<svg width="24" height="24" viewBox="0 0 24 24" fill="none" xmlns="http://www.w3.org/2000/svg">
<g clip-path="url(#clip0_24_2037)">
<path fill-rule="evenodd" clip-rule="evenodd" d="M12 6C10.8133 6 9.65328 6.35189 8.66658 7.01118C7.67989 7.67047 6.91085 8.60754 6.45673 9.7039C6.0026 10.8003 5.88378 12.0067 6.11529 13.1705C6.34681 14.3344 6.91825 15.4035 7.75736 16.2426C8.59648 17.0818 9.66558 17.6532 10.8295 17.8847C11.9934 18.1162 13.1997 17.9974 14.2961 17.5433C15.3925 17.0892 16.3295 16.3201 16.9888 15.3334C17.6481 14.3467 18 13.1867 18 12C18.0078 11.2099 17.8579 10.4262 17.5591 9.69476C17.2603 8.96331 16.8186 8.29879 16.2599 7.74009C15.7012 7.18138 15.0367 6.73972 14.3052 6.44094C13.5738 6.14215 12.7901 5.99225 12 6ZM12 0C9.62663 0 7.30655 0.703788 5.33316 2.02236C3.35977 3.34094 1.8217 5.21509 0.913451 7.4078C0.00519943 9.60051 -0.232441 12.0133 0.230582 14.3411C0.693605 16.6689 1.83649 18.8071 3.51472 20.4853C5.19295 22.1635 7.33115 23.3064 9.65892 23.7694C11.9867 24.2324 14.3995 23.9948 16.5922 23.0866C18.7849 22.1783 20.6591 20.6402 21.9776 18.6668C23.2962 16.6935 24 14.3734 24 12C23.9908 8.82024 22.7235 5.77336 20.4751 3.52492C18.2266 1.27648 15.1798 0.00923395 12 0ZM12 21.6C10.1013 21.6 8.24524 21.037 6.66653 19.9821C5.08782 18.9272 3.85736 17.4279 3.13076 15.6738C2.40416 13.9196 2.21405 11.9894 2.58447 10.1271C2.95488 8.26492 3.8692 6.55436 5.21178 5.21177C6.55436 3.86919 8.26492 2.95488 10.1271 2.58446C11.9894 2.21404 13.9196 2.40416 15.6738 3.13076C17.4279 3.85736 18.9273 5.08781 19.9821 6.66653C21.037 8.24524 21.6 10.1013 21.6 12C21.5926 14.5438 20.5788 16.9813 18.7801 18.7801C16.9813 20.5788 14.5438 21.5926 12 21.6Z" fill="#FF0000"/>
</g>
<defs>
<clipPath id="clip0_24_2037">
<rect width="24" height="24" fill="white"/>
</clipPath>
</defs>
</svg>
