<svg width="24" height="24" viewBox="0 0 24 24" fill="none" xmlns="http://www.w3.org/2000/svg">
<g clip-path="url(#clip0_24_2040)">
<path fill-rule="evenodd" clip-rule="evenodd" d="M12 0C9.62663 0 7.30655 0.703788 5.33316 2.02236C3.35977 3.34094 1.8217 5.21509 0.913451 7.4078C0.00519943 9.60051 -0.232441 12.0133 0.230582 14.3411C0.693605 16.6689 1.83649 18.8071 3.51472 20.4853C5.19295 22.1635 7.33115 23.3064 9.65892 23.7694C11.9867 24.2324 14.3995 23.9948 16.5922 23.0866C18.7849 22.1783 20.6591 20.6402 21.9776 18.6668C23.2962 16.6935 24 14.3734 24 12C23.9908 8.82024 22.7235 5.77336 20.4751 3.52492C18.2266 1.27648 15.1798 0.00923395 12 0ZM12 21.6C10.1013 21.6 8.24524 21.037 6.66653 19.9821C5.08782 18.9272 3.85736 17.4279 3.13076 15.6738C2.40416 13.9196 2.21405 11.9894 2.58447 10.1271C2.95488 8.26492 3.8692 6.55436 5.21178 5.21177C6.55436 3.86919 8.26492 2.95488 10.1271 2.58446C11.9894 2.21404 13.9196 2.40416 15.6738 3.13076C17.4279 3.85736 18.9273 5.08781 19.9821 6.66653C21.037 8.24524 21.6 10.1013 21.6 12C21.5926 14.5438 20.5788 16.9813 18.7801 18.7801C16.9813 20.5788 14.5438 21.5926 12 21.6Z" fill="#BABABA"/>
</g>
<defs>
<clipPath id="clip0_24_2040">
<rect width="24" height="24" fill="white"/>
</clipPath>
</defs>
</svg>
