<svg width="24" height="24" viewBox="0 0 24 24" fill="none" xmlns="http://www.w3.org/2000/svg">
<g clip-path="url(#clip0_24_1076)">
<path d="M19.6108 16.782C20.5177 15.3519 20.9994 13.6934 20.9998 12H18.9998C19.0012 13.1625 18.711 14.3067 18.1558 15.328L19.6108 16.782Z" fill="#7C7687"/>
<path d="M15.328 18.156C13.8155 18.9751 12.0542 19.2081 10.3808 18.8103C8.70733 18.4126 7.23918 17.4121 6.257 16H9V14H3V20H5V17.628C6.3737 19.3532 8.33647 20.51 10.5112 20.876C12.686 21.242 14.9192 20.7915 16.782 19.611L15.328 18.156Z" fill="#7C7687"/>
<path d="M8.67177 5.84408C10.1848 5.02595 11.9461 4.79354 13.6196 5.1912C15.293 5.58887 16.7615 6.58876 17.7448 8.00008H14.9998V10.0001H20.9998V4.00008H18.9998V6.37008C17.6255 4.64554 15.6626 3.48946 13.488 3.12383C11.3135 2.7582 9.08043 3.20879 7.21777 4.38908L8.67177 5.84408Z" fill="#7C7687"/>
<path d="M4.389 7.21802C3.4821 8.64814 3.00038 10.3066 3 12H5C4.99858 10.8376 5.28877 9.69331 5.844 8.67202L4.389 7.21802Z" fill="#7C7687"/>
<path d="M3.29346 4.70679L4.70767 3.29257L20.7074 19.2923L19.2932 20.7065L3.29346 4.70679Z" fill="#7C7687"/>
</g>
<defs>
<clipPath id="clip0_24_1076">
<rect width="24" height="24" fill="white"/>
</clipPath>
</defs>
</svg>
