<svg width="24" height="24" viewBox="0 0 24 24" fill="none" xmlns="http://www.w3.org/2000/svg">
<g clip-path="url(#clip0_24_1108)">
<path d="M16.5 12C15.8 11.4 14.9 10.9 14 10.4C13.6 10.2 12.4 9.2 12.8 7.8L11.9 7.7C13.1 5.8 14.8 3.8 16.8 2C15.2 2.5 13.9 3.3 12.8 4.8C13.4 3.5 14.4 2.3 15.5 1C14 2 12.7 3.3 11.9 4.9L12.5 2.6C11.6 4.1 11 5.7 10.8 7.3L9.70005 6.5L9.50005 6.7C10.5 8.6 10 9.6 9.50005 9.9C8.50005 10.6 6.90005 11.5 6.20005 12.3C4.70005 13.8 4.30005 15.2 4.50005 17.1C4.60005 19.5 6.40005 21.5 8.70005 22.3C9.70005 22.6 10.7 22.7 11.7 22.7C13.4 22.7 15.1 22.2 16.4 21.2C17.7 20.1 18.5 18.4 18.5 16.6C18.5 14.9 17.8 13.2 16.5 12ZM13.6 20.7C13.3 21.4 12.7 22.1 12.3 22.4C12.1 22.4 11.8 22.4 11.6 22.4C11 22.4 10.3 22.3 9.70005 22.2C9.00005 22 8.50005 21.7 8.10005 21.2L8.00005 21.1C7.30005 20.3 6.50005 19 6.10005 17.8C6.00005 17.4 5.90005 17 6.10005 16.5C6.70005 14.5 7.90005 13.8 9.10005 12.9C9.40005 12.7 9.70005 12.6 10 12.4C10.5 12 10.8 10.9 11.1 10C11 10.7 10.8 12.1 10.1 12.6C9.80005 12.8 9.50005 13 9.20005 13.2C8.00005 14 6.80005 14.7 6.30005 16.6C6.20005 17 6.30005 17.4 6.40005 17.8C6.70005 19 7.50005 20.2 8.20005 20.9L8.30005 21C8.70005 21.5 8.90005 21.7 9.90005 22C9.70005 21.9 9.50005 21.8 9.30005 21.6C8.20005 20.8 7.60005 19.8 7.50005 18.4C7.40005 17.3 8.10005 16.1 9.50005 15.4C10.4 14.9 10.7 14.2 11 13.3C10.8 14.3 10.6 15 9.60005 15.5C8.50005 16.2 7.60005 17.5 7.70005 18.4C7.80005 19.5 8.60005 20.7 9.40005 21.5C9.80005 21.9 10.5 22.1 11.2 22.2C11 22.1 10.7 21.9 10.5 21.6C10.3 21.4 10.2 21 10.1 20.7C10 20.3 9.80005 20 9.80005 19.7C9.80005 19 9.90005 18.2 10.4 17.6C10.8 17.1 11 17 11.2 16.5C11.2 14.8 11.2 13.3 11.2 12C11.2 10.6 11.2 9.5 11.2 8.8C11.2 8.1 11.2 7.7 11.2 7.7H11.3C11.3 7.9 11.3 8.4 11.3 9.2C11.3 10 11.3 11.1 11.3 12.5C11.3 13.9 11.3 15.5 11.3 17.2C11.3 18.4 11.3 19.6 11.3 20.9C11.3 21.3 11.3 21.7 11.3 22C11.6 21.5 11.7 20.5 11.8 19.9C11.8 19.4 11.9 18.9 11.8 18.3C11.7 17.6 11.5 16.8 11.5 16.3C11.6 16.8 11.9 17.6 12 18.3C12.1 18.9 12.1 19.4 12.1 19.9C12.1 20.4 12 20.8 12 21.2C11.9 21.5 11.7 21.9 11.4 22.2C12 21.8 12.4 21.1 12.5 20.3C12.7 19.3 12.7 18.4 12.7 17.9C12.7 17.5 12.5 16.8 12.3 16.2C12.2 15.7 11.7 15.2 11.6 14.9C11.4 14.3 11.5 13.9 11.5 13C11.6 13.8 11.6 14.4 11.8 14.7C12 15 12.2 15.4 12.4 15.9C12.7 16.7 12.9 17.6 12.9 18C12.9 18.7 12.8 19.8 12.6 20.6C12.5 20.9 12.4 21.1 12.3 21.4C12.5 21 12.7 20.5 12.8 20.1C13.1 18.6 13.4 17.1 13.2 16.2C13.2 16 13.1 15.3 12.8 14.5C12.4 13.4 11.8 12.5 11.7 12.3C11.5 11.7 11.4 10.1 11.4 9.3C11.4 10.3 11.6 11.8 11.8 12.1C11.9 12.3 12.5 13.3 13 14.4C13.3 15.1 13.4 15.8 13.4 16C13.6 18 13.4 18.8 12.9 20.6C12.8 21 12.5 21.4 12.3 21.8C12.8 21.3 13.2 20.6 13.3 20.1C13.8 17.9 14 15 13.3 12.8C12.9 11.7 12 10.7 11.8 10C11.6 9.4 11.7 9.1 11.7 8.2C11.7 9.2 12 9.9 12.1 10.3C12.2 10.5 13 11.5 13.4 12.6C13.7 13.3 14 15.1 14 15.2C14.3 17.2 14.2 19.1 13.6 20.7Z" fill="white"/>
<path d="M11.2 16.5C11.1 17.1 11 17.2 10.6 17.7C10.1 18.5 10 19.2 10.1 19.7C10.1 20 10.3 20.3 10.4 20.5C10.5 20.8 10.7 21.1 10.9 21.4C11 21.6 11.1 21.7 11.3 21.8C11.3 20.1 11.3 18.3 11.3 16.7C11.2 16.7 11.2 16.6 11.2 16.5Z" fill="white"/>
</g>
<defs>
<clipPath id="clip0_24_1108">
<rect width="24" height="24" fill="white"/>
</clipPath>
</defs>
</svg>
