<svg width="24" height="24" viewBox="0 0 24 24" fill="none" xmlns="http://www.w3.org/2000/svg">
<g clip-path="url(#clip0_24_995)">
<path d="M21.3998 16.3L18.5998 14.8L21.0998 14.2C21.5998 14.1 21.7998 13.6 21.6998 13.2C21.5998 12.8 21.0998 12.5 20.6998 12.6L16.4998 13.7L13.7998 12.2L16.4998 10.7L20.6998 11.8C20.7998 11.8 20.7998 11.8 20.8998 11.8C21.2998 11.8 21.5998 11.6 21.6998 11.2C21.7998 10.8 21.5998 10.3 21.0998 10.2L18.5998 9.6L21.3998 8.1C21.7998 7.9 21.8998 7.4 21.6998 7C21.4998 6.6 20.8998 6.5 20.4998 6.7L17.7998 8L18.4998 5.6C18.5998 5.2 18.3998 4.7 17.8998 4.6C17.3998 4.5 16.9998 4.7 16.8998 5.2L15.7998 9.2L13.0998 10.7V7.7L15.9998 4.8C16.2998 4.5 16.2998 4 15.9998 3.6C15.6998 3.3 15.0998 3.3 14.7998 3.6L12.9998 5.4V2.3C12.9998 1.8 12.5998 1.5 12.0998 1.5C11.5998 1.5 11.1998 1.9 11.1998 2.3V5.4L9.3998 3.6C8.9998 3.3 8.4998 3.3 8.1998 3.6C7.8998 3.9 7.8998 4.4 8.1998 4.8L11.2998 7.7V10.7L8.4998 9.2L7.3998 5.2C7.2998 4.8 6.7998 4.5 6.3998 4.6C5.8998 4.7 5.6998 5.2 5.7998 5.6L6.3998 8L3.5998 6.5C3.1998 6.3 2.6998 6.4 2.3998 6.8C2.1998 7.2 2.2998 7.7 2.6998 7.9L5.4998 9.4L2.9998 10.1C2.4998 10.2 2.2998 10.7 2.3998 11.1C2.4998 11.5 2.7998 11.7 3.1998 11.7C3.2998 11.7 3.2998 11.7 3.3998 11.7L7.5998 10.6L10.2998 12.1L7.5998 13.6L3.3998 12.5C2.8998 12.4 2.4998 12.6 2.3998 13.1C2.2998 13.5 2.4998 14 2.9998 14.1L5.4998 14.7L2.6998 16.2C2.2998 16.4 2.1998 16.9 2.3998 17.3C2.5998 17.6 2.7998 17.7 3.0998 17.7C3.1998 17.7 3.3998 17.7 3.4998 17.6L6.2998 16.1L5.5998 18.5C5.4998 18.9 5.6998 19.4 6.1998 19.5C6.2998 19.5 6.2998 19.5 6.3998 19.5C6.7998 19.5 7.0998 19.3 7.1998 18.9L8.2998 14.9L10.9998 13.4V16.4L7.8998 19.3C7.5998 19.6 7.5998 20.1 7.8998 20.5C8.1998 20.8 8.7998 20.8 9.0998 20.5L10.8998 18.7V21.8C10.8998 22.3 11.2998 22.6 11.7998 22.6C12.2998 22.6 12.6998 22.2 12.6998 21.8V18.7L14.4998 20.5C14.6998 20.7 14.8998 20.7 15.0998 20.7C15.2998 20.7 15.4998 20.6 15.6998 20.5C15.9998 20.2 15.9998 19.7 15.6998 19.3L12.5998 16.4V13.4L15.2998 14.9L16.3998 18.9C16.4998 19.3 16.7998 19.5 17.1998 19.5C17.2998 19.5 17.2998 19.5 17.3998 19.5C17.8998 19.4 18.0998 18.9 17.9998 18.5L17.2998 16.1L20.0998 17.6C20.1998 17.7 20.3998 17.7 20.4998 17.7C20.7998 17.7 21.0998 17.6 21.1998 17.3C21.9998 17 21.7998 16.5 21.3998 16.3Z" fill="#7C7687"/>
</g>
<defs>
<clipPath id="clip0_24_995">
<rect width="24" height="24" fill="white"/>
</clipPath>
</defs>
</svg>
