<svg width="18" height="17" viewBox="0 0 18 17" fill="none" xmlns="http://www.w3.org/2000/svg">
<g clip-path="url(#clip0_24_1165)">
<path opacity="0.695522" fill-rule="evenodd" clip-rule="evenodd" d="M16.7999 14.8L10.1 7.99999L16.7999 1.19999L17.2999 0.699986L16.7999 0.199986C16.4946 -0.0998651 16.0053 -0.0998651 15.7 0.199986L8.99995 6.89999L2.29995 0.199986C1.99459 -0.0998651 1.50532 -0.0998651 1.19995 0.199986L0.699951 0.699986L1.19995 1.19999L7.89995 7.99999L1.19995 14.8C0.9001 15.1053 0.9001 15.5946 1.19995 15.9L1.69995 16.4L2.19995 15.9L8.89995 9.09999L15.6 15.9L16.1 16.4L16.6 15.9C17.1 15.5 17.0999 15 16.7999 14.8Z" fill="white"/>
</g>
<defs>
<clipPath id="clip0_24_1165">
<rect width="18" height="17" fill="white"/>
</clipPath>
</defs>
</svg>
