<svg width="24" height="24" viewBox="0 0 24 24" fill="none" xmlns="http://www.w3.org/2000/svg">
<g clip-path="url(#clip0_24_1041)">
<path d="M18 10V8C18 6.4087 17.3679 4.88258 16.2426 3.75736C15.1174 2.63214 13.5913 2 12 2C10.4087 2 8.88258 2.63214 7.75736 3.75736C6.63214 4.88258 6 6.4087 6 8V10H4V22H20V10H18ZM8 8C8 6.93913 8.42143 5.92172 9.17157 5.17157C9.92172 4.42143 10.9391 4 12 4C13.0609 4 14.0783 4.42143 14.8284 5.17157C15.5786 5.92172 16 6.93913 16 8V10H8V8ZM18 20H6V12H18V20Z" fill="white"/>
</g>
<defs>
<clipPath id="clip0_24_1041">
<rect width="24" height="24" fill="white"/>
</clipPath>
</defs>
</svg>
