<svg width="24" height="24" viewBox="0 0 24 24" fill="none" xmlns="http://www.w3.org/2000/svg">
<g clip-path="url(#clip0_24_1044)">
<path d="M8 9.99997V7.99997C7.99997 7.209 8.23444 6.43578 8.67378 5.77805C9.11312 5.12032 9.73759 4.60761 10.4683 4.30472C11.1989 4.00183 12.003 3.92237 12.7788 4.07638C13.5547 4.23039 14.2674 4.61095 14.827 5.16997L16.239 3.75397C15.3995 2.9159 14.3304 2.34548 13.1668 2.1148C12.0032 1.88411 10.7974 2.00351 9.70165 2.4579C8.60591 2.9123 7.66944 3.68129 7.01058 4.66772C6.35173 5.65415 6.00006 6.81374 6 7.99997V9.99997H4V22H20V9.99997H8ZM18 20H6V12H18V20Z" fill="#7C7687"/>
</g>
<defs>
<clipPath id="clip0_24_1044">
<rect width="24" height="24" fill="white"/>
</clipPath>
</defs>
</svg>
