<svg width="24" height="24" viewBox="0 0 24 24" fill="none" xmlns="http://www.w3.org/2000/svg">
<path fill-rule="evenodd" clip-rule="evenodd" d="M14.0382 4.00011C14.3022 4.00011 14.5632 4.01311 14.8232 4.03811C11.8792 5.60411 10.0382 8.66611 10.0382 12.0001C10.0382 15.3351 11.8792 18.3971 14.8232 19.9621C14.5632 19.9871 14.3022 20.0001 14.0382 20.0001C9.62225 19.9951 6.04325 16.4161 6.03825 12.0001C6.04325 7.58411 9.62225 4.00511 14.0382 4.00011ZM15.1823 21.9301C15.2663 21.9201 15.3462 21.9001 15.4282 21.8931C15.7282 21.8501 16.0352 21.7921 16.3342 21.7261C16.4152 21.7061 16.4942 21.6851 16.5732 21.6631C16.8802 21.5821 17.1842 21.4881 17.4802 21.3791C17.5422 21.3561 17.6042 21.3351 17.6652 21.3121C18.0182 21.1761 18.3642 21.0201 18.7002 20.8431L18.8742 20.7511C19.6252 20.3331 20.3183 19.8191 20.9383 19.2251L18.3302 18.9641C14.7572 18.6011 12.0392 15.5921 12.0392 12.0001C12.0392 8.40911 14.7572 5.40011 18.3302 5.03611L20.9383 4.77611C20.3173 4.18111 19.6232 3.66811 18.8722 3.24911L18.6972 3.15711C18.3612 2.98111 18.0162 2.82511 17.6622 2.68911C17.6012 2.66511 17.5393 2.64411 17.4773 2.62111C17.1773 2.51211 16.8772 2.42111 16.5702 2.33711C16.4912 2.31611 16.4123 2.29411 16.3313 2.27511C16.0313 2.20511 15.7313 2.15111 15.4253 2.10811C15.3433 2.09611 15.2633 2.08011 15.1823 2.07011C11.3512 1.61511 7.60225 3.40111 5.54425 6.66311C3.48525 9.92311 3.48525 14.0771 5.54425 17.3381C7.60225 20.5991 11.3512 22.3861 15.1823 21.9301Z" fill="white"/>
</svg>
