<svg width="24" height="24" viewBox="0 0 24 24" fill="none" xmlns="http://www.w3.org/2000/svg">
<g clip-path="url(#clip0_24_1010)">
<path d="M12 20C13.1046 20 14 19.1046 14 18C14 16.8954 13.1046 16 12 16C10.8954 16 10 16.8954 10 18C10 19.1046 10.8954 20 12 20Z" fill="#7C7687"/>
<path d="M9.9999 4.1499C6.98724 4.55467 4.16926 5.86722 1.9209 7.9129L3.2669 9.3929C5.14662 7.68121 7.48798 6.55974 9.9999 6.1679V4.1499Z" fill="#7C7687"/>
<path d="M14 4.1499V6.1679C16.5119 6.55974 18.8533 7.68121 20.733 9.3929L22.079 7.9129C19.8306 5.86722 17.0127 4.55467 14 4.1499Z" fill="#7C7687"/>
<path d="M9.99991 8.18506C7.98801 8.56106 6.12077 9.49052 4.60791 10.8691L5.95391 12.3491C7.09859 11.3087 8.49208 10.581 9.99991 10.2361V8.18506Z" fill="#7C7687"/>
<path d="M14 8.18506V10.2361C15.5078 10.581 16.9013 11.3087 18.046 12.3491L19.392 10.8691C17.8791 9.49052 16.0119 8.56106 14 8.18506Z" fill="#7C7687"/>
<path d="M9.9998 12.3C8.99665 12.6011 8.07393 13.1236 7.2998 13.829L8.6458 15.308C9.04572 14.9506 9.5036 14.6638 9.9998 14.46V12.3Z" fill="#7C7687"/>
<path d="M14 12.3V14.462C14.4974 14.6648 14.9567 14.9509 15.358 15.308L16.7 13.826C15.9256 13.1217 15.0029 12.6002 14 12.3Z" fill="#7C7687"/>
<path d="M11 3V14.147C11.6605 14.0185 12.3395 14.0185 13 14.147V3H11Z" fill="#7C7687"/>
</g>
<defs>
<clipPath id="clip0_24_1010">
<rect width="24" height="24" fill="white"/>
</clipPath>
</defs>
</svg>
