<svg width="24" height="24" viewBox="0 0 24 24" fill="none" xmlns="http://www.w3.org/2000/svg">
<g clip-path="url(#clip0_24_1171)">
<path fill-rule="evenodd" clip-rule="evenodd" d="M11.9999 20.1818C16.5186 20.1818 20.1818 16.5186 20.1818 11.9999C20.1818 7.48124 16.5186 3.81812 11.9999 3.81812C7.48124 3.81812 3.81812 7.48124 3.81812 11.9999C3.81812 16.5186 7.48124 20.1818 11.9999 20.1818ZM14.9237 10.3008L12 6.70592L7.8578 11.8016C8.13235 11.6288 8.42134 11.4677 8.71996 11.3302C9.79405 10.8351 11.003 10.5758 12.3276 10.678L14.153 10.8155C14.2927 10.8234 14.4227 10.8037 14.5383 10.7566C14.6539 10.7094 14.7503 10.6348 14.8225 10.5365C14.8803 10.4619 14.914 10.3794 14.9237 10.3008ZM11.9422 6.9613L12 6.89058L12.053 6.9613H11.9422ZM11.7929 7.14202L11.8652 7.05166H12.1301L12.2023 7.14202H11.7929ZM11.6436 7.32668L11.7159 7.23632H12.2794L12.3516 7.32668H11.6436ZM11.4943 7.51133L11.5665 7.42097H12.4287L12.5009 7.51133H11.4943ZM11.345 7.69599L11.4172 7.60563H12.578L12.6503 7.69599H11.345ZM11.1957 7.87672L11.2679 7.78635H12.7273L12.7996 7.87672H11.1957ZM11.0464 8.06137L11.1186 7.97101H12.8766L12.9489 8.06137H11.0464ZM10.897 8.24603L10.9693 8.15566H13.0259L13.0982 8.24603H10.897ZM10.7477 8.42676L10.82 8.34032V8.33639H13.1801L13.2523 8.42676H10.7477ZM10.5984 8.61141L10.6707 8.52105H13.3246L13.3968 8.61141H10.5984ZM10.4491 8.79607L10.5213 8.7057H13.4739L13.5461 8.79607H10.4491ZM10.3046 8.98072L10.3769 8.89036H13.628L13.7003 8.98072H10.3046ZM10.1553 9.16145L10.2275 9.07109H13.7773L13.8496 9.16145H10.1553ZM10.006 9.34611L10.0782 9.25574H13.9266L13.9989 9.34611H10.006ZM9.85667 9.53076L9.92891 9.4404H14.076L14.1482 9.53076H9.85667ZM9.70735 9.71542L9.7796 9.62505H14.2253L14.2975 9.71542H9.70735ZM9.55804 9.89614L9.63029 9.80578H14.3746L14.4468 9.89614H9.55804ZM9.40873 10.0808L9.48098 9.99044H14.5239L14.5961 10.0808H9.40873ZM9.25942 10.2655L9.33166 10.1751H14.6732L14.7455 10.2655H9.25942ZM9.1101 10.4501L9.18235 10.3597H14.8225L14.8273 10.3637C14.8177 10.3951 14.8033 10.4226 14.7888 10.4501H9.1101ZM8.96079 10.6308L9.03304 10.5405H14.7262C14.6973 10.5758 14.6636 10.6033 14.625 10.6308H12.6695L12.342 10.6073C11.8748 10.5719 11.4076 10.5798 10.9548 10.6308H8.96079ZM8.81148 10.8155L8.88373 10.7251H10.3431C10.2131 10.7526 10.083 10.7841 9.953 10.8155H8.81148ZM13.9122 10.7251H14.4083C14.3264 10.7448 14.2445 10.7526 14.1627 10.7448L13.9122 10.7251ZM8.66216 11.0001L8.73441 10.9098H9.62066C9.5502 10.931 9.4826 10.9545 9.41345 10.9785C9.39279 10.9857 9.37199 10.9929 9.35093 11.0001H8.66216ZM15.3427 10.9962H15.0778L15.0778 10.9962C15.1115 10.9687 15.1452 10.9412 15.1789 10.9059H15.2705L15.3427 10.9962ZM8.51285 11.1848L8.5851 11.0944H9.09565C9.05953 11.1102 9.0234 11.1249 8.98728 11.1396C8.95116 11.1544 8.91503 11.1691 8.87891 11.1848H8.51285ZM13.0115 11.1809H10.7911C11.2727 11.1062 11.7736 11.0866 12.2794 11.1259L13.0115 11.1809ZM15.4872 11.1809H14.7358C14.7551 11.1769 14.7744 11.1691 14.7888 11.1573C14.837 11.1377 14.8851 11.1141 14.9285 11.0905H15.415L15.4872 11.1809ZM8.36354 11.3655L8.43579 11.2752H8.66698C8.63567 11.2909 8.60557 11.3056 8.57547 11.3203C8.54536 11.3351 8.51526 11.3498 8.48395 11.3655H8.36354ZM15.6365 11.3655H9.953C9.97624 11.3592 9.99928 11.3529 10.0222 11.3466C10.1133 11.3216 10.2026 11.2971 10.295 11.2752H15.5643L15.6365 11.3655ZM8.27684 11.4755L8.28647 11.4598H8.30574L8.27684 11.4755ZM15.7858 11.5502H9.40873L9.40876 11.5502C9.49063 11.5187 9.5725 11.4873 9.65437 11.4598H15.7136L15.7858 11.5502ZM15.9351 11.7309H8.98006L8.99932 11.7191C9.02822 11.7054 9.05832 11.6926 9.08843 11.6798C9.11853 11.6671 9.14863 11.6543 9.17753 11.6406H15.8629L15.9351 11.7309ZM15.9978 11.9156H8.614C8.64289 11.8999 8.67179 11.8851 8.70069 11.8704C8.72959 11.8557 8.75849 11.8409 8.78739 11.8252H16.0122C16.0122 11.8566 16.0074 11.8881 15.9978 11.9156ZM15.8773 12.1002H8.29611C8.32019 12.0845 8.34548 12.0698 8.37077 12.055C8.39605 12.0403 8.42134 12.0256 8.44542 12.0099H15.9544L15.9448 12.0216C15.9255 12.0492 15.9014 12.0767 15.8773 12.1002ZM11.4606 12.2849H8.00711C8.02212 12.2751 8.03665 12.2653 8.05101 12.2556C8.08275 12.2343 8.11363 12.2135 8.14679 12.1945H11.8459C11.7159 12.2181 11.5858 12.2495 11.4606 12.2849ZM14.6491 12.1945H15.7184C15.6461 12.2181 15.5691 12.2299 15.4968 12.2259L14.6491 12.1945ZM10.95 12.4656H7.74702C7.77632 12.447 7.80342 12.4266 7.83129 12.4057C7.84465 12.3956 7.8582 12.3854 7.87225 12.3752H11.1716C11.0945 12.4027 11.0223 12.4342 10.95 12.4656L10.95 12.4656ZM16.5324 12.4656H16.3349C16.3686 12.4381 16.3975 12.4106 16.4264 12.3752H16.4601L16.5324 12.4656ZM10.5888 12.6503H7.50619C7.52546 12.6345 7.54473 12.6198 7.564 12.6051C7.58326 12.5903 7.60253 12.5756 7.62179 12.5599H10.7525C10.7379 12.5679 10.7235 12.5756 10.7094 12.5832C10.6678 12.6056 10.6283 12.6268 10.5888 12.6503ZM12.4624 12.6503H12.8188C12.6984 12.6424 12.578 12.6463 12.4624 12.6503ZM16.6865 12.6503H16.0363L16.0363 12.6503C16.0459 12.6463 16.0556 12.6424 16.07 12.6345C16.1182 12.6149 16.1663 12.5874 16.2097 12.5599H16.6143L16.6865 12.6503ZM10.3046 12.8349H7.28463C7.30149 12.8192 7.31955 12.8045 7.33761 12.7897C7.35568 12.775 7.37374 12.7603 7.3906 12.7446H10.4347C10.413 12.7603 10.3913 12.775 10.3696 12.7897C10.3479 12.8045 10.3263 12.8192 10.3046 12.8349ZM16.7588 12.7446L16.831 12.8349H11.4943C11.5954 12.7996 11.6966 12.7681 11.7977 12.7446H15.3668L15.4631 12.7485C15.5209 12.7485 15.5787 12.7485 15.6365 12.7446H16.7588ZM10.0686 13.0196H7.07752C7.11124 12.9881 7.14495 12.9567 7.17385 12.9292H10.1794C10.1663 12.9398 10.1533 12.95 10.1405 12.9601C10.1153 12.9797 10.0909 12.9988 10.0686 13.0196ZM16.9803 13.0196H11.0704C11.1282 12.9881 11.1908 12.9567 11.2535 12.9292H16.9081L16.9803 13.0196ZM9.8663 13.2003H6.88004C6.91376 13.1728 6.94266 13.1414 6.97155 13.1099L6.97156 13.1099H9.95781C9.94577 13.1217 9.93253 13.1345 9.91928 13.1473C9.90604 13.16 9.89279 13.1728 9.88075 13.1846L9.8663 13.2003ZM17.1296 13.2003H10.767C10.7887 13.1846 10.8115 13.1699 10.8344 13.1551C10.8573 13.1404 10.8802 13.1257 10.9019 13.1099H17.0574L17.1296 13.2003ZM6.7211 13.385L6.79335 13.2946H9.76997L9.67845 13.385H6.7211ZM17.279 13.385H10.5262L10.6369 13.2946H17.2067L17.279 13.385ZM6.57179 13.5696L6.64403 13.4792H9.58212L9.49061 13.5696H6.57179ZM17.4283 13.5696H10.3287L10.3769 13.5225C10.3841 13.5146 10.3913 13.5077 10.3985 13.5009C10.4058 13.494 10.413 13.4871 10.4202 13.4792H17.356L17.4283 13.5696ZM6.42247 13.7543L6.49472 13.6639H9.39428L9.30276 13.7543H6.42247ZM17.5824 13.7543H10.1408L10.2372 13.6639H17.5101L17.5824 13.7543ZM6.27316 13.9389L6.34541 13.8486H9.20643L9.11492 13.9389H6.27316ZM17.7269 13.935H9.94818L10.0397 13.8446H17.6546L17.7269 13.935ZM6.12385 14.1197L6.1961 14.0293H9.01377L8.92226 14.1197H6.12385ZM17.8762 14.1197H9.76034L9.85185 14.0293H17.804L17.8762 14.1197ZM5.97454 14.3043L6.04678 14.2139H8.82593L8.73441 14.3043H5.97454ZM18.0255 14.3043H9.57249L9.664 14.2139H17.9533L18.0255 14.3043ZM15.2416 10.7192C15.2452 10.7143 15.2488 10.7094 15.2512 10.7055L16.0845 11.727C16.0941 11.7545 16.0989 11.782 16.0989 11.8095C16.1037 11.892 16.0748 11.9784 16.0218 12.057C15.964 12.1356 15.8918 12.1984 15.8003 12.2377C15.7088 12.277 15.6028 12.2967 15.492 12.2927L12.8429 12.1945C12.2698 12.1709 11.7303 12.2535 11.2438 12.4263C10.7525 12.5992 10.3142 12.8703 9.94818 13.2278L8.73923 14.4025H5.74334L6.43692 13.55C7.14977 12.7721 7.99748 12.112 8.96079 11.6641C9.953 11.2044 11.0704 10.9648 12.289 11.0591L14.1145 11.1966C14.3409 11.2123 14.5624 11.1769 14.7551 11.0984C14.9477 11.0198 15.1115 10.8941 15.2319 10.733C15.2343 10.7291 15.2379 10.7241 15.2416 10.7192ZM18.2567 14.4065L16.465 12.1984C16.4623 12.2028 16.4592 12.2073 16.456 12.2117C16.448 12.2233 16.4395 12.2354 16.4361 12.2495C16.3397 12.391 16.1952 12.5049 16.0315 12.5795C15.8629 12.6542 15.675 12.6896 15.4728 12.6817L12.8237 12.5835C12.3276 12.5638 11.8603 12.6345 11.4365 12.7838C11.0126 12.9331 10.6369 13.1689 10.3142 13.4792L9.36056 14.4065H18.2567Z" fill="#FF0000"/>
<circle cx="12" cy="12" r="9.5" stroke="#FF0000"/>
</g>
<defs>
<clipPath id="clip0_24_1171">
<rect width="24" height="24" fill="white"/>
</clipPath>
</defs>
</svg>
