<svg width="24" height="24" viewBox="0 0 24 24" fill="none" xmlns="http://www.w3.org/2000/svg">
<path d="M11.5312 16.7695C11.5234 16.4883 11.5195 16.2773 11.5195 16.1367C11.5195 15.3086 11.6367 14.5938 11.8711 13.9922C12.043 13.5391 12.3203 13.082 12.7031 12.6211C12.9844 12.2852 13.4902 11.7949 14.2207 11.1504C14.9512 10.5059 15.4258 9.99219 15.6445 9.60938C15.8633 9.22656 15.9727 8.8086 15.9727 8.35547C15.9727 7.53515 15.6523 6.81446 15.0117 6.19336C14.3711 5.57226 13.5859 5.26172 12.6562 5.26172C11.7578 5.26172 11.0078 5.54297 10.4062 6.10547C9.80468 6.66797 9.41016 7.54687 9.22266 8.74219L7.05469 8.48438C7.25 6.8828 7.83007 5.65625 8.79492 4.80469C9.75977 3.95312 11.0351 3.52734 12.6211 3.52734C14.3008 3.52734 15.6406 3.98437 16.6406 4.89844C17.6406 5.8125 18.1406 6.91796 18.1406 8.21484C18.1406 8.96485 17.9648 9.65625 17.6133 10.2891C17.2617 10.9219 16.5742 11.6914 15.5508 12.5977C14.8633 13.207 14.4141 13.6562 14.2031 13.9453C13.9922 14.2344 13.8359 14.5664 13.7344 14.9414C13.6328 15.3164 13.5742 15.9258 13.5586 16.7695H11.5312ZM11.4023 21V18.5977H13.8047V21H11.4023Z" fill="white"/>
</svg>
