<svg width="24" height="24" viewBox="0 0 24 24" fill="none" xmlns="http://www.w3.org/2000/svg">
<path d="M12 19C9.70917 19.0038 7.56253 17.8824 6.257 16H9V14H3V20H5V17.628C7.38513 20.6102 11.3948 21.7587 14.9971 20.4916C18.5994 19.2245 21.0071 15.8186 21 12H19C18.995 15.8639 15.8639 18.995 12 19Z" fill="white"/>
<path d="M19 4.00004V6.37004C16.6141 3.38883 12.6046 2.24126 9.00266 3.50869C5.40075 4.77611 2.99333 8.18165 3.00001 12H5.00003C4.99975 8.94128 6.9855 6.23655 9.9039 5.32062C12.8223 4.40468 15.9974 5.48967 17.745 8.00004H15V10H21V4.00004H19Z" fill="white"/>
</svg>
