<svg width="24" height="24" viewBox="0 0 24 24" fill="none" xmlns="http://www.w3.org/2000/svg">
<g clip-path="url(#clip0_24_1065)">
<path d="M18 5.99988V4.85388C17.9649 4.10959 17.654 3.40501 17.1279 2.87731C16.6019 2.34962 15.8982 2.03659 15.1541 1.99915C14.4099 1.96172 13.6784 2.20257 13.102 2.6748C12.5257 3.14704 12.1457 3.81687 12.036 4.55388L12 4.58588L11.967 4.55288C11.855 3.8038 11.4637 3.12481 10.8718 2.65222C10.2799 2.17963 9.53119 1.94842 8.77589 2.005C8.02059 2.06158 7.31464 2.40177 6.79976 2.95727C6.28488 3.51277 5.99918 4.24247 6 4.99988V5.99988H2V11.9999H4V21.9999H20V11.9999H22V5.99988H18ZM14 5.41388V4.99988C14 4.73467 14.1054 4.48031 14.2929 4.29278C14.4804 4.10524 14.7348 3.99988 15 3.99988C15.2652 3.99988 15.5196 4.10524 15.7071 4.29278C15.8946 4.48031 16 4.73467 16 4.99988V5.99988H13.414L14 5.41388ZM13 7.99988V15.9999H11V7.99988H13ZM8 4.99988C8 4.73467 8.10536 4.48031 8.29289 4.29278C8.48043 4.10524 8.73478 3.99988 9 3.99988C9.26522 3.99988 9.51957 4.10524 9.70711 4.29278C9.89464 4.48031 10 4.73467 10 4.99988V5.41388L10.586 5.99988H8V4.99988ZM4 7.99988H9V9.99988H4V7.99988ZM18 19.9999H6V11.9999H9V17.9999H15V11.9999H18V19.9999ZM20 9.99988H15V7.99988H20V9.99988Z" fill="white"/>
</g>
<defs>
<clipPath id="clip0_24_1065">
<rect width="24" height="24" fill="white"/>
</clipPath>
</defs>
</svg>
