<svg width="24" height="24" viewBox="0 0 24 24" fill="none" xmlns="http://www.w3.org/2000/svg">
<g clip-path="url(#clip0_24_979)">
<path d="M21.4 16.3L18.6 14.8L21.1 14.2C21.6 14.1 21.8001 13.6 21.7001 13.2C21.6001 12.8 21.1001 12.5 20.7001 12.6L16.5 13.7L13.8 12.2L16.5 10.7L20.7001 11.8C20.8001 11.8 20.8 11.8 20.9 11.8C21.3 11.8 21.6001 11.6 21.7001 11.2C21.8001 10.8 21.6 10.3 21.1 10.2L18.6 9.6L21.4 8.1C21.8 7.9 21.9001 7.4 21.7001 7C21.5001 6.6 20.9 6.5 20.5 6.7L17.8 8L18.5 5.6C18.6 5.2 18.4 4.7 17.9 4.6C17.4 4.5 17 4.7 16.9 5.2L15.8 9.2L13.1 10.7V7.7L16 4.8C16.3 4.5 16.3 4 16 3.6C15.7 3.3 15.1 3.3 14.8 3.6L13 5.4V2.3C13 1.8 12.6 1.5 12.1 1.5C11.6 1.5 11.2 1.9 11.2 2.3V5.4L9.40005 3.6C9.00005 3.3 8.50005 3.3 8.20005 3.6C7.90005 3.9 7.90005 4.4 8.20005 4.8L11.3 7.7V10.7L8.50005 9.2L7.40005 5.2C7.30005 4.8 6.80005 4.5 6.40005 4.6C5.90005 4.7 5.70005 5.2 5.80005 5.6L6.40005 8L3.60005 6.5C3.20005 6.3 2.70005 6.4 2.40005 6.8C2.20005 7.2 2.30005 7.7 2.70005 7.9L5.50005 9.4L3.00005 10.1C2.50005 10.2 2.30005 10.7 2.40005 11.1C2.50005 11.5 2.80005 11.7 3.20005 11.7C3.30005 11.7 3.30005 11.7 3.40005 11.7L7.60005 10.6L10.3 12.1L7.60005 13.6L3.40005 12.5C2.90005 12.4 2.50005 12.6 2.40005 13.1C2.30005 13.5 2.50005 14 3.00005 14.1L5.50005 14.7L2.70005 16.2C2.30005 16.4 2.20005 16.9 2.40005 17.3C2.60005 17.6 2.80005 17.7 3.10005 17.7C3.20005 17.7 3.40005 17.7 3.50005 17.6L6.30005 16.1L5.60005 18.5C5.50005 18.9 5.70005 19.4 6.20005 19.5C6.30005 19.5 6.30005 19.5 6.40005 19.5C6.80005 19.5 7.10005 19.3 7.20005 18.9L8.30005 14.9L11 13.4V16.4L7.90005 19.3C7.60005 19.6 7.60005 20.1 7.90005 20.5C8.20005 20.8 8.80005 20.8 9.10005 20.5L10.9 18.7V21.8C10.9 22.3 11.3 22.6 11.8 22.6C12.3 22.6 12.7 22.2 12.7 21.8V18.7L14.5 20.5C14.7 20.7 14.9 20.7 15.1 20.7C15.3 20.7 15.5 20.6 15.7 20.5C16 20.2 16 19.7 15.7 19.3L12.6 16.4V13.4L15.3 14.9L16.4 18.9C16.5 19.3 16.8 19.5 17.2 19.5C17.3 19.5 17.3 19.5 17.4 19.5C17.9 19.4 18.1 18.9 18 18.5L17.3 16.1L20.1 17.6C20.2 17.7 20.4 17.7 20.5 17.7C20.8 17.7 21.1001 17.6 21.2001 17.3C22.0001 17 21.8 16.5 21.4 16.3Z" fill="white"/>
</g>
<defs>
<clipPath id="clip0_24_979">
<rect width="24" height="24" fill="white"/>
</clipPath>
</defs>
</svg>
