<svg width="24" height="24" viewBox="0 0 24 24" fill="none" xmlns="http://www.w3.org/2000/svg">
<g clip-path="url(#clip0_24_1195)">
<path d="M12 20C13.1046 20 14 19.1046 14 18C14 16.8954 13.1046 16 12 16C10.8954 16 10 16.8954 10 18C10 19.1046 10.8954 20 12 20Z" fill="white"/>
<path d="M20.7329 9.39304C18.3482 7.21048 15.2326 5.99999 11.9999 5.99999C8.76718 5.99999 5.65163 7.21048 3.2669 9.39304L1.9209 7.91304C4.67407 5.39587 8.26947 4 11.9999 4C15.7303 4 19.3257 5.39587 22.0789 7.91304L20.7329 9.39304Z" fill="white"/>
<path d="M18.0459 12.3491C16.3949 10.8381 14.238 10 11.9999 10C9.76184 10 7.60489 10.8381 5.95391 12.3491L4.60791 10.8691C6.62732 9.02344 9.26413 8 11.9999 8C14.7357 8 17.3725 9.02344 19.3919 10.8691L18.0459 12.3491Z" fill="white"/>
<path d="M8.6418 15.305L7.2998 13.826C8.58482 12.6514 10.2628 12 12.0038 12C13.7448 12 15.4228 12.6514 16.7078 13.826L15.3618 15.305C14.4319 14.4907 13.2379 14.0417 12.0018 14.0417C10.7657 14.0417 9.57171 14.4907 8.6418 15.305Z" fill="white"/>
</g>
<defs>
<clipPath id="clip0_24_1195">
<rect width="24" height="24" fill="white"/>
</clipPath>
</defs>
</svg>
