<svg width="30" height="30" viewBox="0 0 30 30" fill="none" xmlns="http://www.w3.org/2000/svg">
<g clip-path="url(#clip0_24_1272)">
<path d="M15 28C12.4288 28 9.91543 27.2376 7.77759 25.8091C5.63975 24.3807 3.97351 22.3503 2.98957 19.9749C2.00563 17.5995 1.74819 14.9856 2.2498 12.4638C2.75141 9.94208 3.98953 7.6257 5.80762 5.80762C7.6257 3.98953 9.94208 2.75141 12.4638 2.2498C14.9856 1.74819 17.5995 2.00563 19.9749 2.98957C22.3503 3.97351 24.3807 5.63975 25.8091 7.77759C27.2376 9.91543 28 12.4288 28 15C28.0034 16.7082 27.6695 18.4002 27.0174 19.9789C26.3653 21.5577 25.4079 22.9922 24.2 24.2C22.9922 25.4079 21.5577 26.3653 19.9789 27.0174C18.4002 27.6695 16.7082 28.0034 15 28ZM15 4.00001C12.8244 4.00001 10.6977 4.64514 8.88873 5.85384C7.07979 7.06254 5.66989 8.7805 4.83733 10.7905C4.00477 12.8005 3.78693 15.0122 4.21137 17.146C4.63581 19.2798 5.68345 21.2398 7.22183 22.7782C8.76021 24.3166 10.7202 25.3642 12.854 25.7886C14.9878 26.2131 17.1995 25.9952 19.2095 25.1627C21.2195 24.3301 22.9375 22.9202 24.1462 21.1113C25.3549 19.3023 26 17.1756 26 15C26.0042 13.5543 25.7226 12.122 25.1713 10.7855C24.62 9.44901 23.8099 8.2347 22.7876 7.21241C21.7653 6.19013 20.551 5.38003 19.2145 4.82873C17.878 4.27742 16.4457 3.99578 15 4.00001Z" fill="#707070"/>
<path d="M15 7C14.3416 6.99345 13.6884 7.11831 13.0789 7.36726C12.4693 7.61622 11.9155 7.98427 11.4499 8.44987C10.9843 8.91547 10.6162 9.46928 10.3673 10.0789C10.1183 10.6884 9.99344 11.3416 9.99999 12C9.99197 12.1334 10.0123 12.267 10.0598 12.392C10.1072 12.5169 10.1806 12.6304 10.2751 12.7249C10.3696 12.8194 10.4831 12.8928 10.608 12.9402C10.733 12.9876 10.8666 13.008 11 13C11.1334 13.008 11.267 12.9876 11.392 12.9402C11.5169 12.8928 11.6304 12.8194 11.7249 12.7249C11.8194 12.6304 11.8928 12.5169 11.9402 12.392C11.9876 12.267 12.008 12.1334 12 12C12 11.2044 12.3161 10.4413 12.8787 9.87868C13.4413 9.31607 14.2043 9 15 9C15.7956 9 16.5587 9.31607 17.1213 9.87868C17.6839 10.4413 18 11.2044 18 12C18.0217 12.2405 17.9879 12.4828 17.9012 12.7082C17.8145 12.9335 17.6772 13.136 17.5 13.3C17.1 13.6 16.4 14.2 15.8 14.6L15 15.3C14.6831 15.5717 14.4294 15.9094 14.2567 16.2894C14.084 16.6694 13.9963 17.0826 14 17.5V19C13.992 19.1334 14.0123 19.267 14.0598 19.392C14.1072 19.5169 14.1806 19.6304 14.2751 19.7249C14.3696 19.8194 14.4831 19.8928 14.608 19.9402C14.733 19.9876 14.8666 20.008 15 20H16V17.5C15.9865 17.2817 16.0582 17.0666 16.2 16.9L17 16.2C17.6 15.7 18.3 15.2 18.7 14.9C19.1227 14.5471 19.4594 14.1025 19.6846 13.6C19.9099 13.0975 20.0177 12.5504 20 12C20.0065 11.3416 19.8817 10.6884 19.6327 10.0789C19.3838 9.46928 19.0157 8.91547 18.5501 8.44987C18.0845 7.98427 17.5307 7.61622 16.9211 7.36726C16.3115 7.11831 15.6584 6.99345 15 7Z" fill="#707070"/>
<path d="M15 21C14.7348 21 14.4804 21.1053 14.2929 21.2929C14.1054 21.4804 14 21.7348 14 22C14 22.2652 14.1054 22.5196 14.2929 22.7071C14.4804 22.8946 14.7348 23 15 23H16V22C16.008 21.8666 15.9876 21.733 15.9402 21.608C15.8928 21.4831 15.8194 21.3696 15.7249 21.2751C15.6304 21.1806 15.5169 21.1072 15.392 21.0598C15.267 21.0123 15.1334 20.992 15 21Z" fill="#707070"/>
</g>
<defs>
<clipPath id="clip0_24_1272">
<rect width="30" height="30" fill="white"/>
</clipPath>
</defs>
</svg>
