<svg width="24" height="24" viewBox="0 0 24 24" fill="none" xmlns="http://www.w3.org/2000/svg">
<g clip-path="url(#clip0_24_1310)">
<path d="M12.326 6.65102C13.6106 6.65102 14.652 5.60964 14.652 4.32502C14.652 3.04041 13.6106 1.99902 12.326 1.99902C11.0414 1.99902 10 3.04041 10 4.32502C10 5.60964 11.0414 6.65102 12.326 6.65102Z" fill="#707070"/>
<path d="M12.326 22.0001C13.6106 22.0001 14.652 20.9588 14.652 19.6741C14.652 18.3895 13.6106 17.3481 12.326 17.3481C11.0414 17.3481 10 18.3895 10 19.6741C10 20.9588 11.0414 22.0001 12.326 22.0001Z" fill="#707070"/>
<path d="M12.326 14.3251C13.6106 14.3251 14.652 13.2837 14.652 11.9991C14.652 10.7145 13.6106 9.6731 12.326 9.6731C11.0414 9.6731 10 10.7145 10 11.9991C10 13.2837 11.0414 14.3251 12.326 14.3251Z" fill="#707070"/>
</g>
<defs>
<clipPath id="clip0_24_1310">
<rect width="24" height="24" fill="white"/>
</clipPath>
</defs>
</svg>
