<svg width="24" height="40" viewBox="0 0 24 40" fill="none" xmlns="http://www.w3.org/2000/svg">
<path d="M21.025 23.116L18.771 13.009L12 14.156L5.229 13L2.975 23.116H1V25.116H23V23.116H21.025ZM6.771 15.294L12 16.183L17.229 15.283L18.976 23.116H5.024L6.771 15.294Z" fill="white"/>
<path d="M13 29.116H11V27.116H2V30.854C2.08087 33.2726 4.08016 35.1831 6.5 35.154C8.77023 35.0683 10.6519 33.3663 10.964 31.116H13.036C13.349 33.3655 15.2304 35.0665 17.5 35.152C19.9198 35.1811 21.9191 33.2706 22 30.852V27.116H13V29.116ZM9 30.854C8.90894 32.1676 7.81677 33.1867 6.5 33.1867C5.18323 33.1867 4.09106 32.1676 4 30.854V29.116H9V30.854ZM15 29.116H20V30.854C19.9089 32.1676 18.8168 33.1867 17.5 33.1867C16.1832 33.1867 15.0911 32.1676 15 30.854V29.116Z" fill="white"/>
</svg>
