<svg width="24" height="40" viewBox="0 0 24 40" fill="none" xmlns="http://www.w3.org/2000/svg">
<path d="M14.9 35H9.1L8.787 31.864L8.72 31.837L6.281 33.837L2.167 29.725L4.167 27.285L4.139 27.219L1 26.9V21.1L4.135 20.786L4.163 20.72L2.163 18.28L6.276 14.168L8.715 16.168L8.782 16.141L9.1 13H14.9L15.213 16.136L15.28 16.163L17.719 14.163L21.828 18.27L19.828 20.71L19.856 20.776L23 21.1V26.9L19.865 27.214L19.837 27.28L21.837 29.72L17.728 33.827L15.289 31.827L15.222 31.854L14.9 35ZM10.9 33H13.1L13.361 30.39L13.987 30.19C14.3287 30.0801 14.6606 29.9416 14.979 29.776L15.562 29.476L17.595 31.14L19.143 29.591L17.479 27.556L17.779 26.972C17.9446 26.6542 18.0831 26.3231 18.193 25.982L18.393 25.357L21 25.1V22.9L18.39 22.639L18.19 22.014C18.0801 21.6729 17.9416 21.3418 17.776 21.024L17.476 20.44L19.138 18.41L17.59 16.861L15.557 18.525L14.974 18.225C14.6556 18.0594 14.3237 17.9209 13.982 17.811L13.356 17.611L13.1 15H10.9L10.639 17.61L10.013 17.81C9.67129 17.9199 9.33945 18.0584 9.021 18.224L8.438 18.524L6.41 16.861L4.862 18.41L6.526 20.445L6.226 21.029C6.0604 21.3468 5.9219 21.6779 5.812 22.019L5.612 22.644L3 22.9V25.1L5.61 25.361L5.81 25.986C5.9199 26.3271 6.0584 26.6582 6.224 26.976L6.524 27.56L4.862 29.59L6.41 31.139L8.443 29.475L9.026 29.775C9.34445 29.9406 9.67629 30.0791 10.018 30.189L10.644 30.389L10.9 33Z" fill="white"/>
<path d="M12 28C9.79086 28 8 26.2091 8 24C8 21.7909 9.79086 20 12 20C14.2091 20 16 21.7909 16 24C16 25.0609 15.5786 26.0783 14.8284 26.8284C14.0783 27.5786 13.0609 28 12 28ZM12 22C10.8954 22 10 22.8954 10 24C10 25.1046 10.8954 26 12 26C13.1046 26 14 25.1046 14 24C14 22.8954 13.1046 22 12 22Z" fill="white"/>
</svg>
