<svg width="24" height="31" viewBox="0 0 24 31" fill="none" xmlns="http://www.w3.org/2000/svg">
<path d="M21.7 22.6L18.7 21L21.4 20.5C21.9 20.5 22.2 20 21.9 19.4C21.9 18.9 21.4 18.6 20.8 18.9L16.5 20L13.5 18.4L16.5 16.8L20.8 17.9H21.1C21.4 17.9 21.9 17.6 21.9 17.4C21.9 16.9 21.6 16.6 21.4 16.3L18.7 15.8L21.7 14.2C22.2 13.9 22.2 13.4 22 13.1C21.7 12.8 21.2 12.6 20.9 12.8L17.9 14.4L18.7 12C18.7 11.5 18.4 11.2 18.2 10.9C17.7 10.9 17.1 11.2 17.1 11.4L16 15.3L13 16.9V13.6L16.3 10.6C16.6 10.3 16.6 9.8 16.3 9.5C16 9.2 15.5 9.2 14.9 9.5L13.1 11.5V8.3C13.1 7.8 12.8 7.5 12.3 7.5C11.8 7.5 11.5 7.8 11.5 8.3V11.5L9.30005 9.4C9.00005 9.1 8.50005 9.1 7.90005 9.4C7.60005 9.7 7.60005 10.2 7.90005 10.5L11.2 13.5V16.8L8.20005 15.2L7.10005 11.1C7.10005 10.6 6.60005 10.3 6.00005 10.6C5.50005 10.6 5.20005 11.1 5.50005 11.7L6.30005 14.1L3.30005 12.5C2.80005 12.2 2.20005 12.5 2.20005 12.8C1.90005 13.1 2.20005 13.6 2.50005 13.9L5.50005 15.5L2.80005 16C2.30005 16 2.00005 16.5 2.30005 17.1C2.20005 17.2 2.80005 17.5 3.00005 17.5H3.30005L7.60005 16.4L10.6 18L7.60005 19.6L3.30005 18.5C2.80005 18.5 2.20005 18.8 2.20005 19C2.20005 19.5 2.50005 19.8 2.70005 20.1L5.40005 20.6L2.40005 22.2C1.90005 22.5 1.90005 23 2.10005 23.3C2.40005 23.6 2.60005 23.8 2.90005 23.8C3.20005 23.8 3.20005 23.8 3.40005 23.8L6.10005 22.2L5.30005 24.9C5.30005 25.4 5.60005 25.7 5.80005 26H6.10005C6.40005 26 6.90005 25.7 6.90005 25.5L8.00005 21.4L11 19.8V23.1L7.70005 26.1C7.40005 26.4 7.40005 26.9 7.70005 27.2C8.00005 27.5 8.50005 27.5 9.10005 27.2L11 25.3V28.6C11 29.1 11.3 29.4 11.8 29.4C12.3 29.4 12.6 29.1 12.6 28.6V25.3L14.5 27.2C15 27.5 15 27.5 15.2 27.5C15.5 27.5 15.7 27.5 15.7 27.2C16 26.9 16 26.4 15.7 26.1L12.4 23.1V19.6L15.4 21.2L16.5 25.3C16.5 25.6 17 25.8 17.3 25.8H17.6C18.1 25.8 18.4 25.3 18.1 24.7V22.3L21.1 23.9C21.4 23.9 21.4 23.9 21.6 23.9C21.9 23.9 22.1 23.6 22.4 23.4C22.6 23.5 22.3 22.9 21.7 22.6Z" fill="black"/>
</svg>
