<svg width="24" height="30" viewBox="0 0 24 30" fill="none" xmlns="http://www.w3.org/2000/svg">
<path d="M21.4075 22.3511C21.796 21.2694 21.9932 20.1284 21.9905 18.9791C21.9667 14.5983 19.1142 10.7351 14.9345 9.42306C14.6586 8.01542 13.4249 7 11.9905 7C10.5561 7 9.32234 8.01542 9.04648 9.42306C6.4378 10.2278 4.2712 12.0635 3.04895 14.5046C1.8267 16.9457 1.65494 19.7802 2.57348 22.3511C1.53698 22.9092 0.9241 24.0233 1.00756 25.1975C1.09102 26.3718 1.85531 27.388 2.96033 27.7939C4.06535 28.1998 5.30571 27.92 6.12948 27.0791C9.62508 29.6158 14.3559 29.6158 17.8515 27.0791C18.674 27.9258 19.9174 28.2099 21.0261 27.8045C22.1347 27.3992 22.9016 26.38 22.984 25.2024C23.0663 24.0249 22.4489 22.9089 21.4075 22.3531V22.3511ZM11.9905 8.97906C12.5428 8.97906 12.9905 9.42677 12.9905 9.97906C12.9905 10.5313 12.5428 10.9791 11.9905 10.9791C11.4382 10.9791 10.9905 10.5313 10.9905 9.97906C10.9905 9.42677 11.4382 8.97906 11.9905 8.97906ZM3.99048 25.9791C3.43819 25.9791 2.99048 25.5313 2.99048 24.9791C2.99048 24.4268 3.43819 23.9791 3.99048 23.9791C4.54276 23.9791 4.99048 24.4268 4.99048 24.9791C4.99048 25.5313 4.54276 25.9791 3.99048 25.9791ZM11.9905 26.9791C10.1617 26.9774 8.38887 26.348 6.96848 25.1961C6.96848 25.1231 6.99048 25.0531 6.99048 24.9791C6.98962 23.5626 5.99816 22.3397 4.61248 22.0461C3.75769 20.0113 3.7849 17.7132 4.68763 15.6993C5.59036 13.6853 7.28777 12.1359 9.37548 11.4201C9.89502 12.3798 10.8986 12.9777 11.99 12.9777C13.0813 12.9777 14.0849 12.3798 14.6045 11.4201C17.8162 12.5492 19.972 15.5747 19.9905 18.9791C19.9895 20.0326 19.778 21.0753 19.3685 22.0461C17.9828 22.3397 16.9913 23.5626 16.9905 24.9791C16.9905 25.0531 17.0075 25.1231 17.0125 25.1961C15.5922 26.3482 13.8193 26.9776 11.9905 26.9791ZM19.9905 25.9791C19.4382 25.9791 18.9905 25.5313 18.9905 24.9791C18.9905 24.4268 19.4382 23.9791 19.9905 23.9791C20.5428 23.9791 20.9905 24.4268 20.9905 24.9791C20.9905 25.5313 20.5428 25.9791 19.9905 25.9791Z" fill="white"/>
<path fill-rule="evenodd" clip-rule="evenodd" d="M16.9905 22.9792V14.6282L11.9905 18.6912L6.99048 14.6282V22.9792H8.99048V18.8302L11.9905 21.2682L14.9905 18.8312V22.9792H16.9905Z" fill="white"/>
</svg>
