<svg width="30" height="30" viewBox="0 0 30 30" fill="none" xmlns="http://www.w3.org/2000/svg">
<g clip-path="url(#clip0_24_1419)">
<g opacity="0.7">
<path d="M15 27C12.6266 27 10.3066 26.2962 8.33316 24.9776C6.35977 23.6591 4.8217 21.7849 3.91345 19.5922C3.0052 17.3995 2.76756 14.9867 3.23058 12.6589C3.6936 10.3312 4.83649 8.19295 6.51472 6.51472C8.19295 4.83649 10.3312 3.6936 12.6589 3.23058C14.9867 2.76756 17.3995 3.0052 19.5922 3.91345C21.7849 4.8217 23.6591 6.35977 24.9776 8.33316C26.2962 10.3066 27 12.6266 27 15C26.9964 18.1815 25.731 21.2317 23.4813 23.4813C21.2317 25.731 18.1815 26.9964 15 27ZM15 6.00001C13.22 6.00001 11.4799 6.52785 9.99987 7.51678C8.51983 8.50571 7.36628 9.91132 6.68509 11.5559C6.0039 13.2004 5.82567 15.01 6.17294 16.7558C6.5202 18.5016 7.37737 20.1053 8.63604 21.364C9.89472 22.6226 11.4984 23.4798 13.2442 23.8271C14.99 24.1743 16.7996 23.9961 18.4442 23.3149C20.0887 22.6337 21.4943 21.4802 22.4832 20.0001C23.4722 18.5201 24 16.78 24 15C23.9976 12.6138 23.0486 10.326 21.3613 8.63868C19.674 6.95136 17.3862 6.00239 15 6.00001Z" fill="#7C7687"/>
<path d="M21 18H13.5V9H16.5V15H21V18Z" fill="#7C7687"/>
</g>
</g>
<defs>
<clipPath id="clip0_24_1419">
<rect width="30" height="30" fill="white"/>
</clipPath>
</defs>
</svg>
