<svg width="28" height="24" viewBox="0 0 28 24" fill="none" xmlns="http://www.w3.org/2000/svg">
<path d="M24.448 11.966L25.707 10.707L24.293 9.293L23.034 10.552C21.5868 9.34549 19.853 8.53233 18 8.191V7C18 4.23858 15.7614 2 13 2C10.2386 2 8 4.23858 8 7V8H7V18H14.16L16.16 16H9V10H17V15.16L19 13.16V10.525C19.9451 10.8594 20.8276 11.3495 21.611 11.975L12.793 20.793L14.207 22.207L23.025 13.389C24.3039 14.9794 25.0008 16.9592 25 19V20H27V19C27.0014 16.4285 26.098 13.9384 24.448 11.966ZM16 8H10V7C10 5.34315 11.3431 4 13 4C14.6569 4 16 5.34315 16 7V8Z" fill="white"/>
</svg>
