<svg width="40" height="26" viewBox="0 0 40 26" fill="none" xmlns="http://www.w3.org/2000/svg">
<path opacity="0.5" fill-rule="evenodd" clip-rule="evenodd" d="M6.00011 10.7772C5.9944 9.85636 6.17156 8.94354 6.52132 8.09169C6.87109 7.23983 7.38649 6.46588 8.03764 5.81473C8.68879 5.16358 9.46273 4.64818 10.3146 4.29842C11.1664 3.94866 12.0793 3.7715 13.0001 3.77721L33.0001 3.77721C33.921 3.7715 34.8338 3.94866 35.6856 4.29842C36.5375 4.64818 37.3114 5.16358 37.9626 5.81473C38.6137 6.46588 39.1291 7.23983 39.4789 8.09169C39.8287 8.94354 40.0058 9.85636 40.0001 10.7772C40.0058 11.6981 39.8287 12.6109 39.4789 13.4627C39.1291 14.3146 38.6137 15.0885 37.9626 15.7397C37.3114 16.3908 36.5375 16.9062 35.6856 17.256C34.8338 17.6058 33.921 17.7829 33.0001 17.7772L13.0001 17.7772C12.0793 17.7829 11.1664 17.6058 10.3146 17.256C9.46273 16.9062 8.68879 16.3908 8.03764 15.7397C7.38649 15.0885 6.87109 14.3146 6.52132 13.4627C6.17156 12.6109 5.9944 11.6981 6.00011 10.7772Z" fill="#BABABA"/>
<g filter="url(#filter0_d_24_1518)">
<path d="M13 21C11.0222 21 9.08879 20.4135 7.4443 19.3147C5.79981 18.2159 4.51808 16.6541 3.7612 14.8268C3.00433 12.9996 2.80629 10.9889 3.19215 9.0491C3.578 7.10929 4.53041 5.32746 5.92893 3.92893C7.32746 2.53041 9.10929 1.578 11.0491 1.19215C12.9889 0.806294 14.9996 1.00433 16.8268 1.7612C18.6541 2.51808 20.2159 3.79981 21.3147 5.4443C22.4135 7.08879 23 9.02219 23 11C23 13.6522 21.9464 16.1957 20.0711 18.0711C18.1957 19.9464 15.6522 21 13 21Z" fill="#BABABA"/>
</g>
<defs>
<filter id="filter0_d_24_1518" x="1" y="1" width="24" height="24" filterUnits="userSpaceOnUse" color-interpolation-filters="sRGB">
<feFlood flood-opacity="0" result="BackgroundImageFix"/>
<feColorMatrix in="SourceAlpha" type="matrix" values="0 0 0 0 0 0 0 0 0 0 0 0 0 0 0 0 0 0 127 0" result="hardAlpha"/>
<feOffset dy="2"/>
<feGaussianBlur stdDeviation="1"/>
<feColorMatrix type="matrix" values="0 0 0 0 0 0 0 0 0 0 0 0 0 0 0 0 0 0 0.239 0"/>
<feBlend mode="normal" in2="BackgroundImageFix" result="effect1_dropShadow_24_1518"/>
<feBlend mode="normal" in="SourceGraphic" in2="effect1_dropShadow_24_1518" result="shape"/>
</filter>
</defs>
</svg>
