<svg width="40" height="26" viewBox="0 0 40 26" fill="none" xmlns="http://www.w3.org/2000/svg">
<path opacity="0.5" fill-rule="evenodd" clip-rule="evenodd" d="M33.9999 11.2228C34.0056 12.1436 33.8284 13.0565 33.4787 13.9083C33.1289 14.7602 32.6135 15.5341 31.9624 16.1853C31.3112 16.8364 30.5373 17.3518 29.6854 17.7016C28.8336 18.0513 27.9207 18.2285 26.9999 18.2228H6.99989C6.07904 18.2285 5.16622 18.0513 4.31436 17.7016C3.46251 17.3518 2.68856 16.8364 2.03741 16.1853C1.38626 15.5341 0.870865 14.7602 0.521104 13.9083C0.171343 13.0565 -0.00581982 12.1436 -0.000110412 11.2228C-0.00581982 10.3019 0.171343 9.38912 0.521104 8.53727C0.870865 7.68541 1.38626 6.91146 2.03741 6.26031C2.68856 5.60916 3.46251 5.09376 4.31436 4.744C5.16622 4.39424 6.07904 4.21708 6.99989 4.22279H26.9999C27.9207 4.21708 28.8336 4.39424 29.6854 4.744C30.5373 5.09376 31.3112 5.60916 31.9624 6.26031C32.6135 6.91146 33.1289 7.68541 33.4787 8.53727C33.8284 9.38912 34.0056 10.3019 33.9999 11.2228Z" fill="#FF6666"/>
<g filter="url(#filter0_d_24_1513)">
<path d="M27 1C28.9778 1 30.9112 1.58649 32.5557 2.6853C34.2002 3.78412 35.4819 5.3459 36.2388 7.17317C36.9957 9.00043 37.1937 11.0111 36.8079 12.9509C36.422 14.8907 35.4696 16.6725 34.0711 18.0711C32.6725 19.4696 30.8907 20.422 28.9509 20.8079C27.0111 21.1937 25.0004 20.9957 23.1732 20.2388C21.3459 19.4819 19.7841 18.2002 18.6853 16.5557C17.5865 14.9112 17 12.9778 17 11C17 8.34784 18.0536 5.8043 19.9289 3.92893C21.8043 2.05357 24.3478 1 27 1Z" fill="#FF6666"/>
</g>
<defs>
<filter id="filter0_d_24_1513" x="15" y="1" width="24" height="24" filterUnits="userSpaceOnUse" color-interpolation-filters="sRGB">
<feFlood flood-opacity="0" result="BackgroundImageFix"/>
<feColorMatrix in="SourceAlpha" type="matrix" values="0 0 0 0 0 0 0 0 0 0 0 0 0 0 0 0 0 0 127 0" result="hardAlpha"/>
<feOffset dy="2"/>
<feGaussianBlur stdDeviation="1"/>
<feColorMatrix type="matrix" values="0 0 0 0 0 0 0 0 0 0 0 0 0 0 0 0 0 0 0.239 0"/>
<feBlend mode="normal" in2="BackgroundImageFix" result="effect1_dropShadow_24_1513"/>
<feBlend mode="normal" in="SourceGraphic" in2="effect1_dropShadow_24_1513" result="shape"/>
</filter>
</defs>
</svg>
