<svg width="24" height="24" viewBox="0 0 24 24" fill="none" xmlns="http://www.w3.org/2000/svg">
<g clip-path="url(#clip0_24_1551)">
<path d="M8 12C8 12.7911 8.2346 13.5645 8.67412 14.2223C9.11365 14.8801 9.73836 15.3928 10.4693 15.6955C11.2002 15.9983 12.0044 16.0775 12.7804 15.9231C13.5563 15.7688 14.269 15.3878 14.8284 14.8284C15.3878 14.269 15.7688 13.5563 15.9231 12.7804C16.0775 12.0044 15.9983 11.2002 15.6955 10.4693C15.3928 9.73836 14.8801 9.11365 14.2223 8.67412C13.5645 8.2346 12.7911 8 12 8C10.9391 8 9.92172 8.42143 9.17157 9.17157C8.42143 9.92172 8 10.9391 8 12ZM14 12C14 12.3956 13.8827 12.7822 13.6629 13.1111C13.4432 13.44 13.1308 13.6964 12.7654 13.8478C12.3999 13.9991 11.9978 14.0387 11.6098 13.9616C11.2219 13.8844 10.8655 13.6939 10.5858 13.4142C10.3061 13.1345 10.1156 12.7781 10.0384 12.3902C9.96126 12.0022 10.0009 11.6001 10.1522 11.2346C10.3036 10.8692 10.56 10.5568 10.8889 10.3371C11.2178 10.1173 11.6044 10 12 10C12.5304 10 13.0391 10.2107 13.4142 10.5858C13.7893 10.9609 14 11.4696 14 12Z" fill="#707070"/>
<path d="M7 8.00009H5.092C5.97048 6.47493 7.32815 5.28266 8.95401 4.60856C10.5799 3.93445 12.3829 3.81628 14.0828 4.27239C15.7828 4.72851 17.2844 5.73337 18.3545 7.13082C19.4245 8.52826 20.003 10.24 20 12.0001H22C22.0023 9.89976 21.3425 7.85213 20.1143 6.14833C18.8861 4.44453 17.152 3.17128 15.1586 2.50959C13.1653 1.84789 11.014 1.83144 9.01073 2.46257C7.00746 3.09369 5.25412 4.34028 4 6.02509V5.00009H2V10.0001H7V8.00009Z" fill="#707070"/>
<path d="M17 16H18.91C18.0315 17.5254 16.6737 18.7178 15.0476 19.3921C13.4216 20.0663 11.6184 20.1846 9.9182 19.7285C8.21803 19.2724 6.71613 18.2674 5.64591 16.8698C4.57569 15.4722 3.99708 13.7603 4.00001 12H2.00001C1.99746 14.1004 2.65715 16.1482 3.88528 17.8522C5.1134 19.5561 6.84746 20.8295 8.84089 21.4914C10.8343 22.1532 12.9857 22.1697 14.989 21.5386C16.9924 20.9075 18.7458 19.6609 20 17.976V19H22V14H17V16Z" fill="#707070"/>
</g>
<defs>
<clipPath id="clip0_24_1551">
<rect width="24" height="24" fill="white"/>
</clipPath>
</defs>
</svg>
