<svg width="24" height="24" viewBox="0 0 24 24" fill="none" xmlns="http://www.w3.org/2000/svg">
<g clip-path="url(#clip0_24_1588)">
<path d="M18 6.00013V4.85413C17.9649 4.10983 17.654 3.40525 17.1279 2.87756C16.6019 2.34987 15.8982 2.03683 15.1541 1.9994C14.4099 1.96196 13.6784 2.20281 13.102 2.67505C12.5257 3.14729 12.1457 3.81712 12.036 4.55413L12 4.58613L11.967 4.55313C11.855 3.80404 11.4637 3.12505 10.8718 2.65246C10.2799 2.17987 9.53119 1.94866 8.77589 2.00524C8.02059 2.06183 7.31464 2.40201 6.79976 2.95751C6.28488 3.51301 5.99918 4.24271 6 5.00013V6.00013H2V12.0001H4V22.0001H20V12.0001H22V6.00013H18ZM14 5.41413V5.00013C14 4.73491 14.1054 4.48056 14.2929 4.29302C14.4804 4.10548 14.7348 4.00013 15 4.00013C15.2652 4.00013 15.5196 4.10548 15.7071 4.29302C15.8946 4.48056 16 4.73491 16 5.00013V6.00013H13.414L14 5.41413ZM13 8.00013V16.0001H11V8.00013H13ZM8 5.00013C8 4.73491 8.10536 4.48056 8.29289 4.29302C8.48043 4.10548 8.73478 4.00013 9 4.00013C9.26522 4.00013 9.51957 4.10548 9.70711 4.29302C9.89464 4.48056 10 4.73491 10 5.00013V5.41413L10.586 6.00013H8V5.00013ZM4 8.00013H9V10.0001H4V8.00013ZM18 20.0001H6V12.0001H9V18.0001H15V12.0001H18V20.0001ZM20 10.0001H15V8.00013H20V10.0001Z" fill="#707070"/>
</g>
<defs>
<clipPath id="clip0_24_1588">
<rect width="24" height="24" fill="white"/>
</clipPath>
</defs>
</svg>
