<svg width="16" height="16" viewBox="0 0 16 16" fill="none" xmlns="http://www.w3.org/2000/svg">
<g clip-path="url(#clip0_24_1573)">
<path d="M8.00014 5C8.13275 5 8.25993 5.05268 8.3537 5.14645C8.44747 5.24021 8.50014 5.36739 8.50014 5.5V9.293L9.64614 8.146C9.74003 8.05211 9.86737 7.99937 10.0001 7.99937C10.1329 7.99937 10.2603 8.05211 10.3541 8.146C10.448 8.23989 10.5008 8.36722 10.5008 8.5C10.5008 8.63278 10.448 8.76011 10.3541 8.854L8.35414 10.854C8.3077 10.9006 8.25252 10.9375 8.19178 10.9627C8.13103 10.9879 8.06591 11.0009 8.00014 11.0009C7.93438 11.0009 7.86925 10.9879 7.80851 10.9627C7.74776 10.9375 7.69259 10.9006 7.64614 10.854L5.64614 8.854C5.59966 8.80751 5.56278 8.75232 5.53762 8.69158C5.51246 8.63084 5.49951 8.56574 5.49951 8.5C5.49951 8.43426 5.51246 8.36916 5.53762 8.30842C5.56278 8.24768 5.59966 8.19249 5.64614 8.146C5.74003 8.05211 5.86737 7.99937 6.00014 7.99937C6.06589 7.99937 6.13099 8.01232 6.19173 8.03748C6.25247 8.06264 6.30766 8.09951 6.35414 8.146L7.50014 9.293V5.5C7.50014 5.36739 7.55282 5.24021 7.64659 5.14645C7.74036 5.05268 7.86754 5 8.00014 5Z" fill="#707070"/>
<path d="M4 0C3.46957 0 2.96086 0.210714 2.58579 0.585786C2.21071 0.960859 2 1.46957 2 2V14C2 14.5304 2.21071 15.0391 2.58579 15.4142C2.96086 15.7893 3.46957 16 4 16H12C12.5304 16 13.0391 15.7893 13.4142 15.4142C13.7893 15.0391 14 14.5304 14 14V2C14 1.46957 13.7893 0.960859 13.4142 0.585786C13.0391 0.210714 12.5304 0 12 0L4 0ZM4 1H12C12.2652 1 12.5196 1.10536 12.7071 1.29289C12.8946 1.48043 13 1.73478 13 2V14C13 14.2652 12.8946 14.5196 12.7071 14.7071C12.5196 14.8946 12.2652 15 12 15H4C3.73478 15 3.48043 14.8946 3.29289 14.7071C3.10536 14.5196 3 14.2652 3 14V2C3 1.73478 3.10536 1.48043 3.29289 1.29289C3.48043 1.10536 3.73478 1 4 1Z" fill="#707070"/>
</g>
<defs>
<clipPath id="clip0_24_1573">
<rect width="16" height="16" fill="white"/>
</clipPath>
</defs>
</svg>
