<svg width="24" height="24" viewBox="0 0 24 24" fill="none" xmlns="http://www.w3.org/2000/svg">
<path d="M14.9999 10.4999H19.9999V5.49987H17.9999V6.71487C15.5656 3.94859 11.5566 3.2029 8.29044 4.90887C5.02427 6.61484 3.34585 10.3311 4.22543 13.9095C5.10501 17.4878 8.31504 20.0025 11.9999 19.9999C14.1228 20.0057 16.1598 19.162 17.6569 17.6569L16.2429 16.2429C14.4655 18.0234 11.7661 18.506 9.48185 17.4516C7.19762 16.3972 5.81378 14.0298 6.01587 11.522C6.21797 9.01434 7.96307 6.89901 10.3867 6.22401C12.8103 5.549 15.3976 6.45767 16.8669 8.49987H14.9999V10.4999Z" fill="#FF0000"/>
</svg>
