<svg width="24" height="24" viewBox="0 0 24 24" fill="none" xmlns="http://www.w3.org/2000/svg">
<g clip-path="url(#clip0_24_1666)">
<path d="M19.448 11.966L20.707 10.707L19.293 9.293L18.034 10.552C16.5868 9.34549 14.853 8.53233 13 8.191V7C13 5.67392 12.4732 4.40215 11.5355 3.46447C10.5979 2.52678 9.32608 2 8 2C6.67392 2 5.40215 2.52678 4.46447 3.46447C3.52678 4.40215 3 5.67392 3 7V8H2V18H9.16L11.16 16H4V10H12V15.16L14 13.16V10.525C14.9451 10.8594 15.8276 11.3495 16.611 11.975L7.793 20.793L9.207 22.207L18.025 13.389C19.3039 14.9794 20.0008 16.9592 20 19V20H22V19C22.0014 16.4285 21.098 13.9384 19.448 11.966ZM11 8H5V7C5 6.20435 5.31607 5.44129 5.87868 4.87868C6.44129 4.31607 7.20435 4 8 4C8.79565 4 9.55871 4.31607 10.1213 4.87868C10.6839 5.44129 11 6.20435 11 7V8Z" fill="#7C7687"/>
</g>
<defs>
<clipPath id="clip0_24_1666">
<rect width="24" height="24" fill="white"/>
</clipPath>
</defs>
</svg>
