<svg width="24" height="24" viewBox="0 0 24 24" fill="none" xmlns="http://www.w3.org/2000/svg">
<g clip-path="url(#clip0_24_1670)">
<path d="M8 10.0002V8.00021C7.99997 7.20925 8.23444 6.43603 8.67378 5.7783C9.11312 5.12056 9.73759 4.60785 10.4683 4.30496C11.1989 4.00207 12.003 3.92261 12.7788 4.07662C13.5547 4.23063 14.2674 4.6112 14.827 5.17021L16.239 3.75421C15.3995 2.91614 14.3304 2.34573 13.1668 2.11504C12.0032 1.88435 10.7974 2.00375 9.70165 2.45815C8.60591 2.91254 7.66944 3.68154 7.01058 4.66797C6.35173 5.6544 6.00006 6.81399 6 8.00021V10.0002H4V22.0002H20V10.0002H8ZM18 20.0002H6V12.0002H18V20.0002Z" fill="#7C7687"/>
</g>
<defs>
<clipPath id="clip0_24_1670">
<rect width="24" height="24" fill="white"/>
</clipPath>
</defs>
</svg>
