<svg width="100" height="100" viewBox="0 0 100 100" fill="none" xmlns="http://www.w3.org/2000/svg">
<g clip-path="url(#clip0_24_1835)">
<path d="M50 24L28 64H72L50 24ZM53 37L52 49H48L47 37H53ZM50 59C49.4067 59 48.8266 58.8241 48.3333 58.4944C47.8399 58.1648 47.4554 57.6962 47.2284 57.148C47.0013 56.5999 46.9419 55.9967 47.0576 55.4147C47.1734 54.8328 47.4591 54.2982 47.8787 53.8787C48.2982 53.4591 48.8328 53.1734 49.4147 53.0576C49.9967 52.9419 50.5999 53.0013 51.148 53.2284C51.6962 53.4554 52.1648 53.8399 52.4944 54.3333C52.8241 54.8266 53 55.4067 53 56C53 56.7956 52.6839 57.5587 52.1213 58.1213C51.5587 58.6839 50.7956 59 50 59Z" fill="#D6D6D6"/>
<path d="M50 8L16 16V65.2C15.9999 66.3146 16.2336 67.4168 16.6859 68.4355C17.1382 69.4541 17.7991 70.3666 18.626 71.114C26.3546 79.0389 35.475 85.4747 45.532 90.1L45.666 90.161C47.0846 90.8133 48.5201 91.4282 49.971 92.005L49.986 91.999L50 92C51.4504 91.4219 52.8858 90.807 54.305 90.156L54.44 90.095C64.4961 85.4709 73.6161 79.0369 81.345 71.114C82.1721 70.3668 82.8331 69.4543 83.2855 68.4356C83.7378 67.4169 83.9713 66.3146 83.971 65.2V64H84V16L50 8ZM79.75 62.25H79.725V63.3C79.7249 64.2755 79.5202 65.2401 79.124 66.1315C78.7278 67.0229 78.149 67.8213 77.425 68.475C70.6628 75.4072 62.6834 81.0369 53.885 85.083L53.767 85.136C52.5253 85.7061 51.2692 86.2443 50 86.75H49.975C48.7051 86.246 47.4489 85.7078 46.208 85.136L46.09 85.083C37.2909 81.0371 29.3108 75.4074 22.548 68.475C21.824 67.8213 21.2452 67.0229 20.849 66.1315C20.4528 65.2401 20.2481 64.2755 20.248 63.3V20.25L49.998 13.25L79.748 20.25L79.75 62.25Z" fill="#D6D6D6"/>
<path d="M50 6.97314L15 15.2081V48.0001H17V16.7921L50 9.02714L83 16.7921L82.972 65.2001C82.9673 66.1846 82.7566 67.1572 82.3534 68.0554C81.9502 68.9536 81.3635 69.7574 80.631 70.4151C72.9934 78.2567 63.9731 84.6201 54.024 89.1851L53.89 89.2461C52.6021 89.8348 51.3018 90.3959 49.99 90.9291L49.975 90.9231C48.6657 90.3935 47.3687 89.8341 46.085 89.2451L45.952 89.1851C35.985 84.6103 26.9493 78.2328 19.3 70.3741C18.578 69.719 18.0005 68.9205 17.6044 68.0297C17.2084 67.1388 17.0026 66.1751 17 65.2001V60.0001H15V65.2001C15.0007 66.4438 15.2597 67.6738 15.7606 68.8122C16.2615 69.9506 16.9935 70.9725 17.91 71.8131C25.7204 79.8288 34.9437 86.3335 45.116 91.0001L45.251 91.0611C46.6857 91.7201 48.1372 92.342 49.604 92.9261L49.997 93.0711L50.367 92.9261C51.8339 92.3422 53.2854 91.7203 54.72 91.0611L54.856 91.0001C65.0114 86.3423 74.2199 79.8503 82.019 71.8501C82.9461 71.0076 83.6875 69.9811 84.196 68.8362C84.7044 67.6912 84.9687 66.4529 84.972 65.2001L85 15.2081L50 6.97314Z" fill="#666666"/>
<path d="M15 52H17V56H15V52Z" fill="#666666"/>
<path d="M64.0001 65.0003H73.6911L50.0001 21.9253L26.3091 65.0003H60.0001V63.0003H29.6911L50.0001 26.0753L70.3091 63.0003H64.0001V65.0003Z" fill="#666666"/>
<path d="M45.9131 36L47.0801 50H52.9201L54.0871 36H45.9131ZM51.0801 48H48.9201L48.0871 38H51.9131L51.0801 48Z" fill="#666666"/>
<path d="M50 52C49.2089 52 48.4355 52.2346 47.7777 52.6741C47.1199 53.1136 46.6072 53.7384 46.3045 54.4693C46.0017 55.2002 45.9225 56.0044 46.0769 56.7804C46.2312 57.5563 46.6122 58.269 47.1716 58.8284C47.731 59.3878 48.4437 59.7688 49.2196 59.9231C49.9956 60.0775 50.7998 59.9983 51.5307 59.6955C52.2616 59.3928 52.8864 58.8801 53.3259 58.2223C53.7654 57.5645 54 56.7911 54 56C54 54.9391 53.5786 53.9217 52.8284 53.1716C52.0783 52.4214 51.0609 52 50 52ZM50 58C49.6044 58 49.2178 57.8827 48.8889 57.6629C48.56 57.4432 48.3036 57.1308 48.1522 56.7654C48.0009 56.3999 47.9613 55.9978 48.0384 55.6098C48.1156 55.2219 48.3061 54.8655 48.5858 54.5858C48.8655 54.3061 49.2219 54.1156 49.6098 54.0384C49.9978 53.9613 50.3999 54.0009 50.7654 54.1522C51.1308 54.3036 51.4432 54.56 51.6629 54.8889C51.8827 55.2178 52 55.6044 52 56C52 56.5304 51.7893 57.0391 51.4142 57.4142C51.0391 57.7893 50.5304 58 50 58Z" fill="#666666"/>
<path d="M78.75 32H80.75V36H78.75V32Z" fill="#666666"/>
<path d="M80.75 19.4581L50 12.2231L19.25 19.4581V63.3001C19.2503 64.4046 19.48 65.497 19.9244 66.5082C20.3689 67.5193 21.0185 68.4271 21.832 69.1741C28.6803 76.2033 36.7675 81.9076 45.687 86.0001L45.793 86.0481C47.0499 86.626 48.3216 87.1708 49.607 87.6821L49.952 87.8451L49.992 87.8291L50.365 87.6811C51.6528 87.1692 52.9269 86.6233 54.186 86.0441L54.301 85.9921C63.1984 81.9112 71.2664 76.2237 78.1 69.2151C78.9248 68.4659 79.5842 67.5529 80.0362 66.5344C80.4882 65.516 80.7228 64.4144 80.725 63.3001L80.75 40.0001H78.75L78.725 63.3001C78.7209 64.1454 78.5396 64.9805 78.1927 65.7513C77.8458 66.5221 77.341 67.2116 76.711 67.7751C70.0414 74.6258 62.164 80.1857 53.475 84.1751L53.352 84.2311C52.2419 84.7415 51.1199 85.2257 49.987 85.6831C48.8594 85.2269 47.7424 84.7448 46.637 84.2371L46.507 84.1781C37.7983 80.1798 29.9037 74.6062 23.221 67.7381C22.6017 67.1763 22.1065 66.4914 21.7671 65.7272C21.4277 64.963 21.2516 64.1363 21.25 63.3001V21.0421L50 14.2771L78.75 21.0421V28.0001H80.75V19.4581Z" fill="#666666"/>
</g>
<defs>
<clipPath id="clip0_24_1835">
<rect width="100" height="100" fill="white"/>
</clipPath>
</defs>
</svg>
