<svg width="100" height="100" viewBox="0 0 100 100" fill="none" xmlns="http://www.w3.org/2000/svg">
<g clip-path="url(#clip0_24_1939)">
<path d="M50 84C57.732 84 64 77.732 64 70C64 62.268 57.732 56 50 56C42.268 56 36 62.268 36 70C36 77.732 42.268 84 50 84Z" fill="#D6D6D6"/>
<path d="M41 28H59V46H41V28Z" fill="#D6D6D6"/>
<path d="M81 58H83V62H81V58Z" fill="#666666"/>
<path d="M81 91H19V84H17V93H83V66H81V91Z" fill="#666666"/>
<path d="M17 76H19V80H17V76Z" fill="#666666"/>
<path d="M80 27V29H87V45H60V29H76V27H66.3C67.6873 26.032 68.8324 24.7568 69.6462 23.2738C70.46 21.7909 70.9206 20.1401 70.9921 18.45C71.0635 16.7598 70.7439 15.0761 70.0582 13.5297C69.3724 11.9833 68.339 10.6161 67.0384 9.5344C65.7378 8.45274 64.2051 7.68586 62.5596 7.29347C60.9141 6.90107 59.2003 6.89375 57.5515 7.27207C55.9028 7.65039 54.3636 8.40415 53.0538 9.47465C51.744 10.5452 50.6989 11.9035 50 13.444C49.3011 11.9035 48.256 10.5452 46.9462 9.47465C45.6364 8.40415 44.0972 7.65039 42.4485 7.27207C40.7997 6.89375 39.0859 6.90107 37.4404 7.29347C35.7949 7.68586 34.2622 8.45274 32.9616 9.5344C31.661 10.6161 30.6276 11.9833 29.9418 13.5297C29.2561 15.0761 28.9365 16.7598 29.0079 18.45C29.0794 20.1401 29.54 21.7909 30.3538 23.2738C31.1676 24.7568 32.3127 26.032 33.7 27H11V47H17V72H19V47H81V54H83V47H89V27H80ZM60 8.99999C62.3869 8.99999 64.6761 9.9482 66.364 11.636C68.0518 13.3239 69 15.613 69 18C69 20.3869 68.0518 22.6761 66.364 24.3639C64.6761 26.0518 62.3869 27 60 27H51V18C51.0026 15.6139 51.9517 13.3262 53.639 11.6389C55.3262 9.9517 57.6139 9.00263 60 8.99999ZM31 18C31 15.613 31.9482 13.3239 33.636 11.636C35.3239 9.9482 37.6131 8.99999 40 8.99999C42.3869 8.99999 44.6761 9.9482 46.364 11.636C48.0518 13.3239 49 15.613 49 18V27H40C37.6139 26.9973 35.3262 26.0483 33.639 24.361C31.9517 22.6738 31.0026 20.3861 31 18ZM17 45H13V29H40V45H17ZM42 45V29H58V45H42Z" fill="#666666"/>
<path d="M55 55.875V58C57.7741 59.1559 60.0621 61.2372 61.4746 63.8898C62.8871 66.5425 63.337 69.6026 62.7476 72.5495C62.1582 75.4964 60.566 78.1481 58.2419 80.0535C55.9178 81.9588 53.0053 83 50 83C46.9947 83 44.0823 81.9588 41.7582 80.0535C39.4341 78.1481 37.8419 75.4964 37.2525 72.5495C36.6631 69.6026 37.1129 66.5425 38.5255 63.8898C39.938 61.2372 42.2259 59.1559 45 58V55.875C41.664 57.0545 38.8523 59.3753 37.0619 62.4274C35.2715 65.4795 34.6177 69.0662 35.2161 72.5537C35.8144 76.0411 37.6264 79.2048 40.3317 81.4855C43.0371 83.7662 46.4616 85.0171 50 85.0171C53.5385 85.0171 56.963 83.7662 59.6683 81.4855C62.3737 79.2048 64.1857 76.0411 64.784 72.5537C65.3824 69.0662 64.7286 65.4795 62.9382 62.4274C61.1478 59.3753 58.3361 57.0545 55 55.875Z" fill="#666666"/>
<path d="M49 52H51V72H49V52Z" fill="#666666"/>
</g>
<defs>
<clipPath id="clip0_24_1939">
<rect width="100" height="100" fill="white"/>
</clipPath>
</defs>
</svg>
