<svg width="100" height="100" viewBox="0 0 100 100" fill="none" xmlns="http://www.w3.org/2000/svg">
<g clip-path="url(#clip0_24_1819)">
<path d="M50 26C45.2533 26 40.6131 27.4076 36.6663 30.0447C32.7195 32.6819 29.6434 36.4302 27.8269 40.8156C26.0104 45.201 25.5351 50.0266 26.4612 54.6822C27.3872 59.3377 29.673 63.6141 33.0294 66.9706C36.3859 70.327 40.6623 72.6128 45.3178 73.5388C49.9734 74.4649 54.799 73.9896 59.1844 72.1731C63.5698 70.3566 67.3181 67.2805 69.9553 63.3337C72.5924 59.3869 74 54.7468 74 50C74 43.6348 71.4715 37.5303 66.9706 33.0294C62.4697 28.5286 56.3652 26 50 26ZM50 68C46.4399 68 42.9598 66.9443 39.9997 64.9665C37.0397 62.9886 34.7326 60.1774 33.3702 56.8883C32.0078 53.5992 31.6513 49.98 32.3459 46.4884C33.0404 42.9967 34.7547 39.7894 37.2721 37.2721C39.7894 34.7547 42.9967 33.0404 46.4884 32.3459C49.98 31.6513 53.5992 32.0078 56.8883 33.3702C60.1774 34.7325 62.9886 37.0397 64.9665 39.9997C66.9443 42.9598 68 46.4399 68 50C68 54.7739 66.1036 59.3523 62.7279 62.7279C59.3523 66.1036 54.7739 68 50 68Z" fill="#413D4A"/>
<path d="M50 31C46.2422 31 42.5687 32.1143 39.4442 34.2021C36.3196 36.2898 33.8844 39.2572 32.4463 42.729C31.0082 46.2008 30.632 50.0211 31.3651 53.7067C32.0982 57.3924 33.9078 60.7778 36.565 63.435C39.2222 66.0922 42.6077 67.9018 46.2933 68.6349C49.9789 69.368 53.7992 68.9918 57.271 67.5537C60.7428 66.1156 63.7102 63.6804 65.7979 60.5558C67.8857 57.4313 69 53.7578 69 50C68.9944 44.9626 66.9909 40.1331 63.4289 36.5711C59.8669 33.0091 55.0374 31.0056 50 31ZM50 67C46.6377 67 43.3509 66.003 40.5553 64.135C37.7597 62.267 35.5807 59.612 34.2941 56.5056C33.0074 53.3993 32.6707 49.9811 33.3267 46.6835C33.9826 43.3858 35.6017 40.3567 37.9792 37.9792C40.3567 35.6017 43.3858 33.9826 46.6835 33.3266C49.9811 32.6707 53.3993 33.0074 56.5056 34.294C59.612 35.5807 62.267 37.7597 64.135 40.5553C66.003 43.3509 67 46.6377 67 50C66.995 54.5071 65.2023 58.8282 62.0153 62.0153C58.8282 65.2023 54.5071 66.995 50 67Z" fill="#A09EA5"/>
<path fill-rule="evenodd" clip-rule="evenodd" d="M50.5 37L57.2756 45.4031C57.2533 45.5867 57.1751 45.7796 57.0412 45.9541C56.8737 46.1837 56.6505 46.3582 56.3826 46.4684C56.1147 46.5786 55.8133 46.6245 55.4896 46.6061L51.259 46.2847C48.1894 46.0459 45.3876 46.652 42.8984 47.8092C42.2063 48.1306 41.5366 48.5071 40.9003 48.9112L50.5 37ZM50.5 37.4316L50.3661 37.5969H50.6228L50.5 37.4316ZM50.1875 37.8082L50.02 38.0194H50.9688L50.8014 37.8082H50.1875ZM49.8414 38.2398L49.674 38.451H51.3149L51.1474 38.2398H49.8414ZM49.4954 38.6714L49.3279 38.8827H51.6609L51.4935 38.6714H49.4954ZM49.1493 39.1031L48.9819 39.3143H52.0069L51.8395 39.1031H49.1493ZM48.8033 39.5255L48.6359 39.7367H52.353L52.1855 39.5255H48.8033ZM48.4573 39.9571L48.2898 40.1684H52.699L52.5316 39.9571H48.4573ZM48.1112 40.3888L47.9438 40.6H53.045L52.8776 40.3888H48.1112ZM47.7652 40.8204L47.5978 41.0224H53.4022L53.2348 40.8112H47.7652V40.8204ZM47.4192 41.2429L47.2517 41.4541H53.7371L53.5697 41.2429H47.4192ZM47.0731 41.6745L46.9057 41.8857H54.0831L53.9157 41.6745H47.0731ZM46.7383 42.1061L46.5708 42.3173H54.4403L54.2729 42.1061H46.7383ZM46.3922 42.5286L46.2248 42.7398H54.7864L54.6189 42.5286H46.3922ZM46.0462 42.9602L45.8788 43.1714H55.1324L54.965 42.9602H46.0462ZM45.7002 43.3918L45.5327 43.6031H55.4784L55.311 43.3918H45.7002ZM45.3541 43.8235L45.1867 44.0347H55.8245L55.657 43.8235H45.3541ZM45.0081 44.2459L44.8406 44.4571H56.1705L56.0031 44.2459H45.0081ZM44.662 44.6776L44.4946 44.8888H56.5166L56.3491 44.6776H44.662ZM44.316 45.1092L44.1486 45.3204H56.8626L56.6952 45.1092H44.316ZM43.97 45.5408L43.8025 45.752H56.963C56.9965 45.6878 57.03 45.6235 57.0523 45.55L57.0412 45.5408H43.97ZM43.6239 45.9633L43.4565 46.1745H48.0778C49.127 46.0551 50.2098 46.0367 51.2925 46.1194L52.0516 46.1745H56.5835C56.6728 46.1102 56.751 46.0459 56.8179 45.9633H43.6239ZM43.2779 46.3949L43.1105 46.6061H45.756C46.0574 46.5327 46.3587 46.4592 46.6601 46.3949H43.2779ZM56.0812 46.3949H54.9315L55.5119 46.4408C55.7017 46.4592 55.8915 46.4408 56.0812 46.3949ZM42.9319 46.8265L42.7644 47.0378H44.3607C44.5727 46.9643 44.7737 46.8908 44.9858 46.8265H42.9319ZM57.6328 47.0286H58.2467L58.0793 46.8173H57.8672C57.7891 46.9 57.7109 46.9643 57.6328 47.0286ZM42.5858 47.2582L42.4184 47.4694H43.2667C43.4342 47.3959 43.6016 47.3316 43.7691 47.2582H42.5858ZM47.6982 47.4602H52.8441L51.1474 47.3316C49.9754 47.2398 48.8145 47.2857 47.6982 47.4602ZM56.8403 47.4602H58.5816L58.4142 47.249H57.2868C57.1863 47.3041 57.0747 47.3592 56.963 47.4051C56.9296 47.4327 56.8849 47.451 56.8403 47.4602ZM42.2398 47.6806L42.0724 47.8918H42.3514C42.4965 47.8184 42.6305 47.7541 42.7756 47.6806H42.2398ZM45.756 47.8918H58.9276L58.7602 47.6806H46.5485C46.2806 47.7449 46.0239 47.8184 45.756 47.8918ZM41.8938 48.1122L41.8714 48.149L41.9384 48.1122H41.8938ZM44.4946 48.3235H59.2737L59.1062 48.1122H45.0639C44.8741 48.1765 44.6844 48.25 44.4946 48.3235ZM43.5012 48.7459H59.6197L59.4523 48.5347H43.9588C43.8249 48.599 43.6798 48.6541 43.5458 48.7184L43.5012 48.7459ZM42.6528 49.1776H59.7648C59.7871 49.1133 59.7983 49.0398 59.7983 48.9663H43.0547C42.9207 49.0398 42.7868 49.1041 42.6528 49.1776ZM41.9161 49.6092H59.4858C59.5416 49.5541 59.5974 49.4898 59.642 49.4255L59.6644 49.398H42.2621C42.1505 49.4714 42.0277 49.5357 41.9161 49.6092ZM41.2463 50.0408H49.2498C49.54 49.9582 49.8414 49.8847 50.1428 49.8296H41.5701C41.4584 49.8939 41.358 49.9673 41.2463 50.0408ZM59.1174 49.8296H56.6393L58.6039 49.9031C58.7714 49.9122 58.95 49.8847 59.1174 49.8296ZM40.6436 50.4633H48.0666C48.234 50.3898 48.4015 50.3163 48.5801 50.252H40.9338C40.8333 50.3255 40.744 50.399 40.6436 50.4633ZM60.5462 50.4633H61.0038L60.8364 50.252H60.7583C60.6913 50.3347 60.6243 50.399 60.5462 50.4633ZM40.0855 50.8949H47.2294C47.3522 50.8214 47.475 50.7571 47.6089 50.6837H40.3533C40.264 50.7571 40.1747 50.8214 40.0855 50.8949ZM51.5716 50.8949H52.5092H52.3976C52.1186 50.8765 51.8395 50.8857 51.5716 50.8949ZM59.8541 50.8949H61.361L61.1936 50.6837H60.256C60.1555 50.748 60.0439 50.8122 59.9323 50.8582C59.8988 50.8765 59.8764 50.8857 59.8541 50.8949ZM39.572 51.3265H46.5708C46.6713 51.2531 46.7717 51.1888 46.8722 51.1153H39.8176C39.7394 51.1888 39.6501 51.2531 39.572 51.3265ZM49.3279 51.3265H61.6959L61.5285 51.1153H58.9276C58.7937 51.1245 58.6597 51.1245 58.5258 51.1245L58.3025 51.1153H50.0312C49.7968 51.1704 49.5624 51.2439 49.3279 51.3265ZM39.092 51.7582H46.0239C46.102 51.6847 46.1913 51.6204 46.2806 51.5469H39.3152C39.2483 51.6112 39.1701 51.6847 39.092 51.7582ZM48.3457 51.7582H62.042L61.8745 51.5469H48.7698C48.6247 51.6112 48.4796 51.6847 48.3457 51.7582ZM38.6343 52.1806H45.555L45.5885 52.1439C45.6443 52.0888 45.7113 52.0245 45.7671 51.9694H38.8464C38.7794 52.0429 38.7125 52.1163 38.6343 52.1806ZM47.6424 52.1806H62.388L62.2206 51.9694H47.955C47.8545 52.0429 47.7429 52.1071 47.6424 52.1806ZM38.4334 52.401L38.266 52.6122H45.1197L45.3318 52.401H38.4334ZM47.0843 52.6122H62.734L62.5666 52.401H47.341C47.2517 52.4745 47.1736 52.5388 47.0843 52.6122ZM38.0874 52.8327L37.9199 53.0439H44.6844L44.8965 52.8327H38.0874ZM46.6266 53.0439H63.0801L62.9126 52.8327H46.8387C46.8052 52.8694 46.7717 52.8969 46.7383 52.9337L46.6266 53.0439ZM37.7413 53.2643L37.5739 53.4755H44.249L44.4611 53.2643H37.7413ZM46.1913 53.4755H63.4373L63.2698 53.2643H46.4145L46.1913 53.4755ZM37.3953 53.6959L37.2279 53.9071H43.8137L44.0258 53.6959H37.3953ZM45.7448 53.898H63.7721L63.6047 53.6867H45.9569L45.7448 53.898ZM37.0493 54.1184L36.8818 54.3296H43.3672L43.5793 54.1184H37.0493ZM45.3095 54.3296H64.1182L63.9507 54.1184H45.5216L45.3095 54.3296ZM36.7032 54.55L36.5358 54.7612H42.9319L43.144 54.55H36.7032ZM44.8741 54.7612H64.4642L64.2968 54.55H45.0862L44.8741 54.7612ZM58.0346 46.349C58.0235 46.3673 58.0012 46.3949 57.99 46.4133C57.7109 46.7898 57.3314 47.0837 56.8849 47.2673C56.4384 47.451 55.9249 47.5337 55.4003 47.4969L51.1697 47.1755C48.3457 46.9551 45.756 47.5153 43.4565 48.5898C41.224 49.6367 39.2594 51.1796 37.6074 52.998L36 54.9908H42.943L45.7448 52.2449C46.5931 51.4092 47.6089 50.7755 48.7475 50.3714C49.8749 49.9673 51.1251 49.7745 52.4534 49.8296L58.5928 50.0592C58.8495 50.0684 59.0951 50.0224 59.3072 49.9306C59.5192 49.8388 59.6867 49.6918 59.8206 49.5082C59.9434 49.3245 60.0104 49.1224 59.9992 48.9296C59.9992 48.8653 59.9881 48.801 59.9657 48.7367L58.0346 46.349ZM60.8476 49.8388L65 55H44.383L46.5931 52.8327C47.341 52.1071 48.2117 51.5561 49.194 51.2071C50.1763 50.8582 51.259 50.6929 52.4088 50.7388L58.5481 50.9684C59.0169 50.9867 59.4523 50.9041 59.843 50.7296C60.2225 50.5551 60.5574 50.2888 60.7806 49.9582C60.7918 49.9122 60.8253 49.8755 60.8476 49.8388Z" fill="#A09EA5"/>
<path d="M83 56H85V60H83V56Z" fill="#A09EA5"/>
<path d="M83 44H85V52H83V44Z" fill="#A09EA5"/>
<path d="M15 48H17V56H15V48Z" fill="#A09EA5"/>
<path d="M15 40H17V44H15V40Z" fill="#A09EA5"/>
<path d="M95.1619 71.0001H84.9999V64.0001H82.9999V73.0001H90.8379L75.9999 90.4561L61.1619 73.0001H67.9999V71.0001H63.5389C68.7346 67.6579 72.5081 62.5097 74.1312 56.549C75.7543 50.5882 75.1119 44.2375 72.3279 38.7226C69.544 33.2077 64.8159 28.9194 59.0561 26.6855C53.2964 24.4516 46.9133 24.4305 41.1389 26.6261L23.9999 6.45605L4.83789 29.0001H14.9999V36.0001H16.9999V27.0001H9.16189L23.9999 9.54405L38.8379 27.0001H31.9999V29.0001H36.4609C31.2652 32.3422 27.4917 37.4904 25.8686 43.4512C24.2455 49.4119 24.8879 55.7626 27.6719 61.2775C30.4558 66.7924 35.1839 71.0807 40.9437 73.3146C46.7034 75.5485 53.0864 75.5697 58.8609 73.3741L75.9999 93.5441L95.1619 71.0001ZM26.9999 50.0001C26.9999 45.4511 28.3488 41.0043 30.8761 37.2219C33.4034 33.4396 36.9955 30.4916 41.1982 28.7508C45.4009 27.01 50.0254 26.5545 54.487 27.442C58.9485 28.3295 63.0467 30.52 66.2633 33.7366C69.48 36.9532 71.6705 41.0514 72.558 45.513C73.4454 49.9745 72.9899 54.5991 71.2491 58.8018C69.5083 63.0045 66.5603 66.5966 62.778 69.1239C58.9957 71.6511 54.5489 73.0001 49.9999 73.0001C43.902 72.9932 38.0559 70.5678 33.744 66.2559C29.4322 61.9441 27.0068 56.0979 26.9999 50.0001Z" fill="#A09EA5"/>
</g>
<defs>
<clipPath id="clip0_24_1819">
<rect width="100" height="100" fill="white"/>
</clipPath>
</defs>
</svg>
