<svg width="100" height="100" viewBox="0 0 100 100" fill="none" xmlns="http://www.w3.org/2000/svg">
<g clip-path="url(#clip0_24_1909)">
<path d="M50 26C45.2533 26 40.6131 27.4076 36.6663 30.0447C32.7195 32.6819 29.6434 36.4302 27.8269 40.8156C26.0104 45.201 25.5351 50.0266 26.4612 54.6822C27.3872 59.3377 29.673 63.6141 33.0294 66.9706C36.3859 70.327 40.6623 72.6128 45.3178 73.5388C49.9734 74.4649 54.799 73.9896 59.1844 72.1731C63.5698 70.3566 67.3181 67.2805 69.9553 63.3337C72.5924 59.3869 74 54.7468 74 50C74 43.6348 71.4715 37.5303 66.9706 33.0294C62.4697 28.5286 56.3652 26 50 26ZM50 68C46.4399 68 42.9598 66.9443 39.9997 64.9665C37.0397 62.9886 34.7326 60.1774 33.3702 56.8883C32.0078 53.5992 31.6513 49.98 32.3459 46.4884C33.0404 42.9967 34.7547 39.7894 37.2721 37.2721C39.7894 34.7547 42.9967 33.0404 46.4884 32.3459C49.98 31.6513 53.5992 32.0078 56.8883 33.3702C60.1774 34.7325 62.9886 37.0397 64.9665 39.9997C66.9443 42.9598 68 46.4399 68 50C68 54.7739 66.1036 59.3523 62.7279 62.7279C59.3523 66.1036 54.7739 68 50 68Z" fill="#D6D6D6"/>
<path d="M50 31C46.2422 31 42.5687 32.1143 39.4442 34.2021C36.3196 36.2898 33.8844 39.2572 32.4463 42.729C31.0082 46.2008 30.632 50.0211 31.3651 53.7067C32.0982 57.3924 33.9078 60.7778 36.565 63.435C39.2222 66.0922 42.6077 67.9018 46.2933 68.6349C49.9789 69.368 53.7992 68.9918 57.271 67.5537C60.7428 66.1156 63.7102 63.6804 65.7979 60.5558C67.8857 57.4313 69 53.7578 69 50C68.9944 44.9626 66.9909 40.1331 63.4289 36.5711C59.8669 33.0091 55.0374 31.0056 50 31ZM50 67C46.6377 67 43.3509 66.003 40.5553 64.135C37.7597 62.267 35.5807 59.612 34.2941 56.5056C33.0074 53.3993 32.6707 49.9811 33.3267 46.6835C33.9826 43.3858 35.6017 40.3567 37.9792 37.9792C40.3567 35.6017 43.3858 33.9826 46.6835 33.3266C49.9811 32.6707 53.3993 33.0074 56.5056 34.294C59.612 35.5807 62.267 37.7597 64.135 40.5553C66.003 43.3509 67 46.6377 67 50C66.995 54.5071 65.2023 58.8282 62.0153 62.0153C58.8282 65.2023 54.5071 66.995 50 67Z" fill="#666666"/>
<path d="M83 56H85V60H83V56Z" fill="#666666"/>
<path d="M83 44H85V52H83V44Z" fill="#666666"/>
<path d="M15 48H17V56H15V48Z" fill="#666666"/>
<path d="M15 40H17V44H15V40Z" fill="#666666"/>
<path d="M95.1619 71.0001H84.9999V64.0001H82.9999V73.0001H90.8379L75.9999 90.4561L61.1619 73.0001H67.9999V71.0001H63.5389C68.7346 67.6579 72.5081 62.5097 74.1312 56.549C75.7543 50.5882 75.1119 44.2375 72.3279 38.7226C69.544 33.2077 64.8159 28.9194 59.0561 26.6855C53.2964 24.4516 46.9133 24.4305 41.1389 26.6261L23.9999 6.45605L4.83789 29.0001H14.9999V36.0001H16.9999V27.0001H9.16189L23.9999 9.54405L38.8379 27.0001H31.9999V29.0001H36.4609C31.2652 32.3422 27.4917 37.4904 25.8686 43.4512C24.2455 49.4119 24.8879 55.7626 27.6719 61.2775C30.4558 66.7924 35.1839 71.0807 40.9437 73.3146C46.7034 75.5485 53.0864 75.5697 58.8609 73.3741L75.9999 93.5441L95.1619 71.0001ZM26.9999 50.0001C26.9999 45.4511 28.3488 41.0043 30.8761 37.2219C33.4034 33.4396 36.9955 30.4916 41.1982 28.7508C45.4009 27.01 50.0254 26.5545 54.487 27.442C58.9485 28.3295 63.0467 30.52 66.2633 33.7366C69.48 36.9532 71.6705 41.0514 72.558 45.513C73.4454 49.9745 72.9899 54.5991 71.2491 58.8018C69.5083 63.0045 66.5603 66.5966 62.778 69.1239C58.9957 71.6511 54.5489 73.0001 49.9999 73.0001C43.902 72.9932 38.0559 70.5678 33.744 66.2559C29.4322 61.9441 27.0068 56.0979 26.9999 50.0001Z" fill="#666666"/>
<path fill-rule="evenodd" clip-rule="evenodd" d="M50.5 39L56.341 46.4694C56.3218 46.6327 56.2544 46.8041 56.139 46.9592C55.9946 47.1633 55.8022 47.3184 55.5712 47.4163C55.3403 47.5143 55.0804 47.5551 54.8014 47.5388L51.1544 47.2531C48.5081 47.0408 46.0928 47.5796 43.9469 48.6082C43.3503 48.8939 42.7729 49.2286 42.2244 49.5878L50.5 39ZM50.5 39.3837L50.3845 39.5306H50.6059L50.5 39.3837ZM50.2306 39.7184L50.0862 39.9061H50.9042L50.7598 39.7184H50.2306ZM49.9323 40.102L49.7879 40.2898H51.2025L51.0581 40.102H49.9323ZM49.6339 40.4857L49.4896 40.6735H51.5008L51.3564 40.4857H49.6339ZM49.3356 40.8694L49.1913 41.0571H51.7991L51.6547 40.8694H49.3356ZM49.0373 41.2449L48.893 41.4327H52.0974L51.953 41.2449H49.0373ZM48.739 41.6286L48.5947 41.8163H52.3957L52.2513 41.6286H48.739ZM48.4407 42.0122L48.2964 42.2H52.694L52.5497 42.0122H48.4407ZM48.1424 42.3959L47.9981 42.5755H53.0019L52.8576 42.3878H48.1424V42.3959ZM47.8441 42.7714L47.6998 42.9592H53.2906L53.1463 42.7714H47.8441ZM47.5458 43.1551L47.4015 43.3429H53.5889L53.4446 43.1551H47.5458ZM47.2571 43.5388L47.1128 43.7265H53.8968L53.7525 43.5388H47.2571ZM46.9588 43.9143L46.8145 44.102H54.1951L54.0508 43.9143H46.9588ZM46.6605 44.298L46.5162 44.4857H54.4935L54.3491 44.298H46.6605ZM46.3622 44.6816L46.2179 44.8694H54.7918L54.6474 44.6816H46.3622ZM46.0639 45.0653L45.9196 45.2531H55.0901L54.9457 45.0653H46.0639ZM45.7656 45.4408L45.6212 45.6286H55.3884L55.244 45.4408H45.7656ZM45.4673 45.8245L45.3229 46.0122H55.6867L55.5423 45.8245H45.4673ZM45.169 46.2082L45.0246 46.3959H55.985L55.8406 46.2082H45.169ZM44.8707 46.5918L44.7263 46.7796H56.0716C56.1005 46.7224 56.1293 46.6653 56.1486 46.6L56.139 46.5918H44.8707ZM44.5724 46.9673L44.428 47.1551H48.4119C49.3164 47.049 50.2498 47.0327 51.1832 47.1061L51.8376 47.1551H55.7444C55.8214 47.098 55.8888 47.0408 55.9465 46.9673H44.5724ZM44.2741 47.351L44.1297 47.5388H46.4103C46.6701 47.4735 46.9299 47.4082 47.1898 47.351H44.2741ZM55.3114 47.351H54.3202L54.8206 47.3918C54.9842 47.4082 55.1478 47.3918 55.3114 47.351ZM43.9758 47.7347L43.8314 47.9224H45.2075C45.3903 47.8571 45.5635 47.7918 45.7463 47.7347H43.9758ZM56.649 47.9143H57.1782L57.0339 47.7265H56.851C56.7837 47.8 56.7163 47.8571 56.649 47.9143ZM43.6774 48.1184L43.5331 48.3061H44.2644C44.4088 48.2408 44.5531 48.1837 44.6975 48.1184H43.6774ZM48.0847 48.298H52.5208L51.0581 48.1837C50.0477 48.102 49.047 48.1429 48.0847 48.298ZM55.9657 48.298H57.4669L57.3226 48.1102H56.3507C56.2641 48.1592 56.1678 48.2082 56.0716 48.249C56.0427 48.2735 56.0042 48.2898 55.9657 48.298ZM43.3791 48.4939L43.2348 48.6816H43.4754C43.6005 48.6163 43.7159 48.5592 43.841 48.4939H43.3791ZM46.4103 48.6816H57.7652L57.6209 48.4939H47.0935C46.8626 48.551 46.6413 48.6163 46.4103 48.6816ZM43.0808 48.8776L43.0616 48.9102L43.1193 48.8776H43.0808ZM45.3229 49.0653H58.0635L57.9192 48.8776H45.8137C45.6501 48.9347 45.4865 49 45.3229 49.0653ZM44.4665 49.4408H58.3618L58.2175 49.2531H44.861C44.7456 49.3102 44.6205 49.3592 44.505 49.4163L44.4665 49.4408ZM43.7352 49.8245H58.4869C58.5062 49.7673 58.5158 49.702 58.5158 49.6367H44.0816C43.9661 49.702 43.8507 49.7592 43.7352 49.8245ZM43.1001 50.2082H58.2463C58.2945 50.1592 58.3426 50.102 58.3811 50.0449L58.4003 50.0204H43.3984C43.3022 50.0857 43.1963 50.1429 43.1001 50.2082ZM42.5227 50.5918H49.4222C49.6724 50.5184 49.9323 50.4531 50.1921 50.4041H42.8018C42.7055 50.4612 42.6189 50.5265 42.5227 50.5918ZM57.9288 50.4041H55.7925L57.4861 50.4694C57.6305 50.4776 57.7845 50.4531 57.9288 50.4041ZM42.0031 50.9673H48.4022C48.5466 50.902 48.6909 50.8367 48.8449 50.7796H42.2533C42.1667 50.8449 42.0897 50.9102 42.0031 50.9673ZM59.1605 50.9673H59.555L59.4107 50.7796H59.3433C59.2856 50.8531 59.2279 50.9102 59.1605 50.9673ZM41.5219 51.351H47.6805C47.7864 51.2857 47.8922 51.2286 48.0077 51.1633H41.7529C41.6759 51.2286 41.5989 51.2857 41.5219 51.351ZM51.4238 51.351H52.2321H52.1359C51.8953 51.3347 51.6547 51.3429 51.4238 51.351ZM58.5639 51.351H59.863L59.7186 51.1633H58.9103C58.8237 51.2204 58.7275 51.2776 58.6313 51.3184C58.6024 51.3347 58.5831 51.3429 58.5639 51.351ZM41.0793 51.7347H47.1128C47.1994 51.6694 47.286 51.6122 47.3726 51.5469H41.291C41.2236 51.6122 41.1467 51.6694 41.0793 51.7347ZM49.4896 51.7347H60.1517L60.0073 51.5469H57.7652C57.6497 51.5551 57.5343 51.5551 57.4188 51.5551L57.2263 51.5469H50.0958C49.8938 51.5959 49.6917 51.6612 49.4896 51.7347ZM40.6655 52.1184H46.6413C46.7086 52.0531 46.7856 51.9959 46.8626 51.9306H40.858C40.8002 51.9878 40.7329 52.0531 40.6655 52.1184ZM48.6428 52.1184H60.45L60.3056 51.9306H49.0085C48.8834 51.9878 48.7583 52.0531 48.6428 52.1184ZM40.271 52.4939H46.2371L46.266 52.4612C46.3141 52.4122 46.3718 52.3551 46.4199 52.3061H40.4538C40.3961 52.3714 40.3383 52.4367 40.271 52.4939ZM48.0366 52.4939H60.7483L60.6039 52.3061H48.306C48.2194 52.3714 48.1232 52.4286 48.0366 52.4939ZM40.0978 52.6898L39.9534 52.8776H45.8618L46.0446 52.6898H40.0978ZM47.5554 52.8776H61.0466L60.9022 52.6898H47.7768C47.6998 52.7551 47.6324 52.8122 47.5554 52.8776ZM39.7995 53.0735L39.6551 53.2612H45.4865L45.6694 53.0735H39.7995ZM47.1609 53.2612H61.3449L61.2005 53.0735H47.3437C47.3149 53.1061 47.286 53.1306 47.2571 53.1633L47.1609 53.2612ZM39.5012 53.4571L39.3568 53.6449H45.1112L45.2941 53.4571H39.5012ZM46.7856 53.6449H61.6528L61.5085 53.4571H46.9781L46.7856 53.6449ZM39.2028 53.8408L39.0585 54.0286H44.736L44.9188 53.8408H39.2028ZM46.4007 54.0204H61.9415L61.7972 53.8327H46.5835L46.4007 54.0204ZM38.9045 54.2163L38.7602 54.4041H44.351L44.5339 54.2163H38.9045ZM46.0254 54.4041H62.2398L62.0955 54.2163H46.2082L46.0254 54.4041ZM38.6062 54.6L38.4619 54.7878H43.9758L44.1586 54.6H38.6062ZM45.6501 54.7878H62.5381L62.3938 54.6H45.8329L45.6501 54.7878ZM56.9954 47.3102C56.9858 47.3265 56.9665 47.351 56.9569 47.3673C56.7163 47.702 56.3891 47.9633 56.0042 48.1265C55.6193 48.2898 55.1767 48.3633 54.7244 48.3306L51.0774 48.0449C48.6428 47.849 46.4103 48.3469 44.428 49.302C42.5035 50.2327 40.8099 51.6041 39.3857 53.2204L38 54.9918H43.9854L46.4007 52.551C47.132 51.8082 48.0077 51.2449 48.9892 50.8857C49.9611 50.5265 51.0389 50.3551 52.184 50.4041L57.4765 50.6082C57.6978 50.6163 57.9095 50.5755 58.0924 50.4939C58.2752 50.4122 58.4196 50.2816 58.535 50.1184C58.6409 49.9551 58.6986 49.7755 58.689 49.6041C58.689 49.5469 58.6794 49.4898 58.6601 49.4327L56.9954 47.3102ZM59.4203 50.4122L63 55H45.2267L47.132 53.0735C47.7768 52.4286 48.5273 51.9388 49.3741 51.6286C50.2209 51.3184 51.1543 51.1714 52.1455 51.2122L57.438 51.4163C57.8422 51.4327 58.2175 51.3592 58.5543 51.2041C58.8814 51.049 59.1701 50.8122 59.3626 50.5184C59.3722 50.4776 59.4011 50.4449 59.4203 50.4122Z" fill="#666666"/>
</g>
<defs>
<clipPath id="clip0_24_1909">
<rect width="100" height="100" fill="white"/>
</clipPath>
</defs>
</svg>
