<svg width="100" height="100" viewBox="0 0 100 100" fill="none" xmlns="http://www.w3.org/2000/svg">
<g clip-path="url(#clip0_24_1968)">
<path d="M50 26C45.2533 26 40.6131 27.4076 36.6663 30.0447C32.7195 32.6819 29.6434 36.4302 27.8269 40.8156C26.0104 45.201 25.5351 50.0266 26.4612 54.6822C27.3872 59.3377 29.673 63.6141 33.0294 66.9706C36.3859 70.327 40.6623 72.6128 45.3178 73.5388C49.9734 74.4649 54.799 73.9896 59.1844 72.1731C63.5698 70.3566 67.3181 67.2805 69.9553 63.3337C72.5924 59.3869 74 54.7468 74 50C74 43.6348 71.4715 37.5303 66.9706 33.0294C62.4697 28.5286 56.3652 26 50 26ZM50 68C46.4399 68 42.9598 66.9443 39.9997 64.9665C37.0397 62.9886 34.7326 60.1774 33.3702 56.8883C32.0078 53.5992 31.6513 49.98 32.3459 46.4884C33.0404 42.9967 34.7547 39.7894 37.2721 37.2721C39.7894 34.7547 42.9967 33.0404 46.4884 32.3459C49.98 31.6513 53.5992 32.0078 56.8883 33.3702C60.1774 34.7325 62.9886 37.0397 64.9665 39.9997C66.9443 42.9598 68 46.4399 68 50C68 54.7739 66.1036 59.3523 62.7279 62.7279C59.3523 66.1036 54.7739 68 50 68Z" fill="#D6D6D6"/>
<path d="M50 31C46.2422 31 42.5687 32.1143 39.4442 34.2021C36.3196 36.2898 33.8844 39.2572 32.4463 42.729C31.0082 46.2008 30.632 50.0211 31.3651 53.7067C32.0982 57.3924 33.9078 60.7778 36.565 63.435C39.2222 66.0922 42.6077 67.9018 46.2933 68.6349C49.9789 69.368 53.7992 68.9918 57.271 67.5537C60.7428 66.1156 63.7102 63.6804 65.7979 60.5558C67.8857 57.4313 69 53.7578 69 50C68.9944 44.9626 66.9909 40.1331 63.4289 36.5711C59.8669 33.0091 55.0374 31.0056 50 31ZM50 67C46.6377 67 43.3509 66.003 40.5553 64.135C37.7597 62.267 35.5807 59.612 34.2941 56.5056C33.0074 53.3993 32.6707 49.9811 33.3267 46.6835C33.9826 43.3858 35.6017 40.3567 37.9792 37.9792C40.3567 35.6017 43.3858 33.9826 46.6835 33.3266C49.9811 32.6707 53.3993 33.0074 56.5056 34.294C59.612 35.5807 62.267 37.7597 64.135 40.5553C66.003 43.3509 67 46.6377 67 50C66.995 54.5071 65.2023 58.8282 62.0153 62.0153C58.8282 65.2023 54.5071 66.995 50 67Z" fill="#666666"/>
<path d="M83 56H85V60H83V56Z" fill="#666666"/>
<path d="M83 44H85V52H83V44Z" fill="#666666"/>
<path d="M15 48H17V56H15V48Z" fill="#666666"/>
<path d="M15 40H17V44H15V40Z" fill="#666666"/>
<path d="M95.1619 71.0001H84.9999V64.0001H82.9999V73.0001H90.8379L75.9999 90.4561L61.1619 73.0001H67.9999V71.0001H63.5389C68.7346 67.6579 72.5081 62.5097 74.1312 56.549C75.7543 50.5882 75.1119 44.2375 72.3279 38.7226C69.544 33.2077 64.8159 28.9194 59.0561 26.6855C53.2964 24.4516 46.9133 24.4305 41.1389 26.6261L23.9999 6.45605L4.83789 29.0001H14.9999V36.0001H16.9999V27.0001H9.16189L23.9999 9.54405L38.8379 27.0001H31.9999V29.0001H36.4609C31.2652 32.3422 27.4917 37.4904 25.8686 43.4512C24.2455 49.4119 24.8879 55.7626 27.6719 61.2775C30.4558 66.7924 35.1839 71.0807 40.9437 73.3146C46.7034 75.5485 53.0864 75.5697 58.8609 73.3741L75.9999 93.5441L95.1619 71.0001ZM26.9999 50.0001C26.9999 45.4511 28.3488 41.0043 30.8761 37.2219C33.4034 33.4396 36.9955 30.4916 41.1982 28.7508C45.4009 27.01 50.0254 26.5545 54.487 27.442C58.9485 28.3295 63.0467 30.52 66.2633 33.7366C69.48 36.9532 71.6705 41.0514 72.558 45.513C73.4454 49.9745 72.9899 54.5991 71.2491 58.8018C69.5083 63.0045 66.5603 66.5966 62.778 69.1239C58.9957 71.6511 54.5489 73.0001 49.9999 73.0001C43.902 72.9932 38.0559 70.5678 33.744 66.2559C29.4322 61.9441 27.0068 56.0979 26.9999 50.0001Z" fill="#666666"/>
<path fill-rule="evenodd" clip-rule="evenodd" d="M50.5 37L56.8083 45.4031C56.7875 45.5867 56.7148 45.7796 56.5901 45.9541C56.4342 46.1837 56.2263 46.3582 55.9769 46.4684C55.7275 46.5786 55.4469 46.6245 55.1455 46.6061L51.2067 46.2847C48.3487 46.0459 45.7402 46.652 43.4226 47.8092C42.7783 48.1306 42.1547 48.5071 41.5624 48.9112L50.5 37ZM50.5 37.4316L50.3753 37.5969H50.6143L50.5 37.4316ZM50.209 37.8082L50.0531 38.0194H50.9365L50.7806 37.8082H50.209ZM49.8868 38.2398L49.7309 38.451H51.2587L51.1028 38.2398H49.8868ZM49.5647 38.6714L49.4088 38.8827H51.5808L51.4249 38.6714H49.5647ZM49.2425 39.1031L49.0866 39.3143H51.903L51.7471 39.1031H49.2425ZM48.9203 39.5255L48.7644 39.7367H52.2252L52.0693 39.5255H48.9203ZM48.5982 39.9571L48.4423 40.1684H52.5473L52.3915 39.9571H48.5982ZM48.276 40.3888L48.1201 40.6H52.8695L52.7136 40.3888H48.276ZM47.9538 40.8204L47.7979 41.0224H53.2021L53.0462 40.8112H47.9538V40.8204ZM47.6316 41.2429L47.4758 41.4541H53.5139L53.358 41.2429H47.6316ZM47.3095 41.6745L47.1536 41.8857H53.836L53.6801 41.6745H47.3095ZM46.9977 42.1061L46.8418 42.3173H54.1686L54.0127 42.1061H46.9977ZM46.6755 42.5286L46.5196 42.7398H54.4908L54.3349 42.5286H46.6755ZM46.3533 42.9602L46.1975 43.1714H54.8129L54.657 42.9602H46.3533ZM46.0312 43.3918L45.8753 43.6031H55.1351L54.9792 43.3918H46.0312ZM45.709 43.8235L45.5531 44.0347H55.4573L55.3014 43.8235H45.709ZM45.3868 44.2459L45.2309 44.4571H55.7794L55.6236 44.2459H45.3868ZM45.0647 44.6776L44.9088 44.8888H56.1016L55.9457 44.6776H45.0647ZM44.7425 45.1092L44.5866 45.3204H56.4238L56.2679 45.1092H44.7425ZM44.4203 45.5408L44.2644 45.752H56.5173C56.5485 45.6878 56.5797 45.6235 56.6005 45.55L56.5901 45.5408H44.4203ZM44.0982 45.9633L43.9423 46.1745H48.2448C49.2217 46.0551 50.2298 46.0367 51.2379 46.1194L51.9446 46.1745H56.164C56.2471 46.1102 56.3199 46.0459 56.3822 45.9633H44.0982ZM43.776 46.3949L43.6201 46.6061H46.0831C46.3637 46.5327 46.6443 46.4592 46.9249 46.3949H43.776ZM55.6963 46.3949H54.6259L55.1663 46.4408C55.343 46.4592 55.5196 46.4408 55.6963 46.3949ZM43.4538 46.8265L43.2979 47.0378H44.7841C44.9815 46.9643 45.1686 46.8908 45.3661 46.8265H43.4538ZM57.1409 47.0286H57.7125L57.5566 46.8173H57.3591C57.2864 46.9 57.2136 46.9643 57.1409 47.0286ZM43.1316 47.2582L42.9758 47.4694H43.7656C43.9215 47.3959 44.0774 47.3316 44.2333 47.2582H43.1316ZM47.8915 47.4602H52.6824L51.1028 47.3316C50.0115 47.2398 48.9307 47.2857 47.8915 47.4602ZM56.403 47.4602H58.0242L57.8684 47.249H56.8187C56.7252 47.3041 56.6212 47.3592 56.5173 47.4051C56.4861 47.4327 56.4446 47.451 56.403 47.4602ZM42.8095 47.6806L42.6536 47.8918H42.9134C43.0485 47.8184 43.1732 47.7541 43.3083 47.6806H42.8095ZM46.0831 47.8918H58.3464L58.1905 47.6806H46.821C46.5716 47.7449 46.3326 47.8184 46.0831 47.8918ZM42.4873 48.1122L42.4665 48.149L42.5289 48.1122H42.4873ZM44.9088 48.3235H58.6686L58.5127 48.1122H45.4388C45.2621 48.1765 45.0855 48.25 44.9088 48.3235ZM43.9838 48.7459H58.9908L58.8349 48.5347H44.4099C44.2852 48.599 44.1501 48.6541 44.0254 48.7184L43.9838 48.7459ZM43.194 49.1776H59.1259C59.1467 49.1133 59.157 49.0398 59.157 48.9663H43.5681C43.4434 49.0398 43.3187 49.1041 43.194 49.1776ZM42.5081 49.6092H58.8661C58.918 49.5541 58.97 49.4898 59.0115 49.4255L59.0323 49.398H42.8303C42.7263 49.4714 42.612 49.5357 42.5081 49.6092ZM41.8845 50.0408H49.336C49.6062 49.9582 49.8868 49.8847 50.1674 49.8296H42.1859C42.082 49.8939 41.9885 49.9673 41.8845 50.0408ZM58.5231 49.8296H56.2159L58.045 49.9031C58.2009 49.9122 58.3672 49.8847 58.5231 49.8296ZM41.3233 50.4633H48.2344C48.3903 50.3898 48.5462 50.3163 48.7125 50.252H41.5935C41.5 50.3255 41.4169 50.399 41.3233 50.4633ZM59.8533 50.4633H60.2794L60.1236 50.252H60.0508C59.9885 50.3347 59.9261 50.399 59.8533 50.4633ZM40.8037 50.8949H47.455C47.5693 50.8214 47.6836 50.7571 47.8083 50.6837H41.0531C40.97 50.7571 40.8868 50.8214 40.8037 50.8949ZM51.4977 50.8949H52.3707H52.2667C52.0069 50.8765 51.7471 50.8857 51.4977 50.8949ZM59.209 50.8949H60.612L60.4561 50.6837H59.5831C59.4896 50.748 59.3857 50.8122 59.2818 50.8582C59.2506 50.8765 59.2298 50.8857 59.209 50.8949ZM40.3256 51.3265H46.8418C46.9353 51.2531 47.0289 51.1888 47.1224 51.1153H40.5543C40.4815 51.1888 40.3984 51.2531 40.3256 51.3265ZM49.4088 51.3265H60.9238L60.7679 51.1153H58.3464C58.2217 51.1245 58.097 51.1245 57.9723 51.1245L57.7644 51.1153H50.0635C49.8453 51.1704 49.627 51.2439 49.4088 51.3265ZM39.8788 51.7582H46.3326C46.4053 51.6847 46.4885 51.6204 46.5716 51.5469H40.0866C40.0242 51.6112 39.9515 51.6847 39.8788 51.7582ZM48.4942 51.7582H61.246L61.0901 51.5469H48.8891C48.754 51.6112 48.6189 51.6847 48.4942 51.7582ZM39.4527 52.1806H45.8961L45.9273 52.1439C45.9792 52.0888 46.0416 52.0245 46.0935 51.9694H39.6501C39.5878 52.0429 39.5254 52.1163 39.4527 52.1806ZM47.8395 52.1806H61.5681L61.4122 51.9694H48.1305C48.037 52.0429 47.933 52.1071 47.8395 52.1806ZM39.2656 52.401L39.1097 52.6122H45.4908L45.6882 52.401H39.2656ZM47.3199 52.6122H61.8903L61.7344 52.401H47.5589C47.4758 52.4745 47.403 52.5388 47.3199 52.6122ZM38.9434 52.8327L38.7875 53.0439H45.0855L45.2829 52.8327H38.9434ZM46.8938 53.0439H62.2125L62.0566 52.8327H47.0912C47.06 52.8694 47.0289 52.8969 46.9977 52.9337L46.8938 53.0439ZM38.6212 53.2643L38.4654 53.4755H44.6801L44.8776 53.2643H38.6212ZM46.4885 53.4755H62.545L62.3891 53.2643H46.6963L46.4885 53.4755ZM38.2991 53.6959L38.1432 53.9071H44.2748L44.4723 53.6959H38.2991ZM46.0727 53.898H62.8568L62.7009 53.6867H46.2702L46.0727 53.898ZM37.9769 54.1184L37.821 54.3296H43.8591L44.0566 54.1184H37.9769ZM45.6674 54.3296H63.179L63.0231 54.1184H45.8649L45.6674 54.3296ZM37.6547 54.55L37.4988 54.7612H43.4538L43.6513 54.55H37.6547ZM45.2621 54.7612H63.5012L63.3453 54.55H45.4596L45.2621 54.7612ZM57.515 46.349C57.5046 46.3673 57.4838 46.3949 57.4734 46.4133C57.2136 46.7898 56.8603 47.0837 56.4446 47.2673C56.0289 47.451 55.5508 47.5337 55.0624 47.4969L51.1236 47.1755C48.4942 46.9551 46.0831 47.5153 43.9423 48.5898C41.8637 49.6367 40.0346 51.1796 38.4965 52.998L37 54.9908H43.4642L46.0727 52.2449C46.8626 51.4092 47.8083 50.7755 48.8684 50.3714C49.918 49.9673 51.082 49.7745 52.3187 49.8296L58.0346 50.0592C58.2737 50.0684 58.5023 50.0224 58.6998 49.9306C58.8972 49.8388 59.0531 49.6918 59.1778 49.5082C59.2921 49.3245 59.3545 49.1224 59.3441 48.9296C59.3441 48.8653 59.3337 48.801 59.3129 48.7367L57.515 46.349ZM60.134 49.8388L64 55H44.8048L46.8626 52.8327C47.5589 52.1071 48.3695 51.5561 49.2841 51.2071C50.1986 50.8582 51.2067 50.6929 52.2771 50.7388L57.9931 50.9684C58.4296 50.9867 58.8349 50.9041 59.1986 50.7296C59.552 50.5551 59.8637 50.2888 60.0716 49.9582C60.082 49.9122 60.1132 49.8755 60.134 49.8388Z" fill="#666666"/>
</g>
<defs>
<clipPath id="clip0_24_1968">
<rect width="100" height="100" fill="white"/>
</clipPath>
</defs>
</svg>
