<?xml version="1.0" encoding="utf-8"?>
<!-- Generator: Adobe Illustrator 24.0.1, SVG Export Plug-In . SVG Version: 6.00 Build 0)  -->
<svg version="1.1" id="Layer_1" xmlns="http://www.w3.org/2000/svg" xmlns:xlink="http://www.w3.org/1999/xlink" x="0px" y="0px"
	 viewBox="0 0 300 100" style="enable-background:new 0 0 300 100;" xml:space="preserve">
<style type="text/css">
	.st0{fill-rule:evenodd;clip-rule:evenodd;fill:#FF0000;}
	.st1{fill-rule:evenodd;clip-rule:evenodd;fill:url(#SVGID_1_);}
	.st2{fill-rule:evenodd;clip-rule:evenodd;fill:#FFFFFF;}
</style>
<g>
	<g>
		<path class="st0" d="M51.5,17.5l20.4,30.8c-0.1,0.7-0.3,1.4-0.7,2c-0.5,0.8-1.2,1.5-2,1.9c-0.8,0.4-1.7,0.6-2.7,0.5l-12.8-1.2
			c-9.3-0.9-17.7,1.3-25.2,5.6c-2.1,1.2-4.1,2.5-6,4L51.5,17.5L51.5,17.5z M74.2,51.8c0,0.1-0.1,0.2-0.1,0.3c-0.8,1.4-2,2.5-3.3,3.1
			c-1.3,0.7-2.9,1-4.5,0.8l-12.8-1.2C45,54,37.2,56,30.2,60c-6.8,3.8-12.7,9.5-17.7,16.2l-4.9,7.3h21l8.5-10.1
			c2.6-3.1,5.6-5.4,9.1-6.9c3.4-1.5,7.2-2.2,11.2-2l18.5,0.9c0.8,0,1.5-0.1,2.1-0.5c0.6-0.3,1.2-0.9,1.5-1.6
			c0.4-0.7,0.6-1.4,0.5-2.1c0-0.2,0-0.5-0.1-0.7L74.2,51.8L74.2,51.8z M82.7,64.6l12.6,18.9H33l6.7-7.9c2.2-2.7,4.9-4.7,7.8-6
			c3-1.3,6.2-1.9,9.7-1.7l18.5,0.9c1.4,0.1,2.7-0.2,3.9-0.9c1.2-0.6,2.1-1.6,2.8-2.8C82.6,64.9,82.7,64.7,82.7,64.6z"/>
		<linearGradient id="SVGID_1_" gradientUnits="userSpaceOnUse" x1="51.4974" y1="54.3226" x2="51.5001" y2="-35.358">
			<stop  offset="0" style="stop-color:#AC0001"/>
			<stop  offset="1" style="stop-color:#FF0001"/>
		</linearGradient>
		<path class="st1" d="M51.5,19l-0.4,0.6h0.8L51.5,19L51.5,19z M50.6,20.4l-0.5,0.8h2.9l-0.5-0.8H50.6L50.6,20.4z M49.5,22L49,22.8
			h5L53.5,22H49.5L49.5,22z M48.5,23.6L48,24.3H55l-0.5-0.8H48.5L48.5,23.6z M47.4,25.2l-0.5,0.8h9.1l-0.5-0.8H47.4L47.4,25.2z
			 M46.4,26.7l-0.5,0.8h11.2l-0.5-0.8H46.4L46.4,26.7z M45.3,28.3l-0.5,0.8h13.3l-0.5-0.8H45.3L45.3,28.3z M44.3,29.9l-0.5,0.8h15.4
			l-0.5-0.8H44.3L44.3,29.9z M43.3,31.5l-0.5,0.8h17.5l-0.5-0.8H43.3L43.3,31.5z M42.2,33l-0.5,0.8h19.6L60.8,33H42.2L42.2,33z
			 M41.2,34.6l-0.5,0.8h21.7l-0.5-0.8H41.2L41.2,34.6z M40.1,36.2l-0.5,0.8h23.8l-0.5-0.8H40.1L40.1,36.2z M39.1,37.8l-0.5,0.8h25.9
			l-0.5-0.8H39.1L39.1,37.8z M38,39.3l-0.5,0.8h27.9L65,39.3H38L38,39.3z M37,40.9l-0.5,0.8h30L66,40.9H37L37,40.9z M35.9,42.5
			l-0.5,0.8h32.1L67,42.5H35.9L35.9,42.5z M34.9,44.1l-0.5,0.8h34.2l-0.5-0.8H34.9L34.9,44.1z M33.9,45.6l-0.5,0.8h36.3l-0.5-0.8
			H33.9L33.9,45.6z M32.8,47.2L32.3,48h38.4l-0.5-0.8H32.8L32.8,47.2z M31.8,48.8l-0.5,0.8H71c0.1-0.2,0.2-0.5,0.3-0.7l0,0H31.8
			L31.8,48.8z M30.7,50.4l-0.5,0.8h13.9c3.2-0.4,6.4-0.5,9.7-0.2l2.3,0.2h13.7c0.3-0.2,0.5-0.5,0.7-0.8H30.7L30.7,50.4z M29.7,51.9
			l-0.5,0.8h8c0.9-0.3,1.8-0.5,2.7-0.8H29.7L29.7,51.9z M68.3,51.9h-3.5l1.8,0.2C67.2,52.1,67.8,52.1,68.3,51.9L68.3,51.9z
			 M28.6,53.5l-0.5,0.8h4.8c0.6-0.3,1.3-0.5,1.9-0.8H28.6L28.6,53.5z M73,54.3h1.8l-0.5-0.8h-0.6C73.5,53.8,73.3,54,73,54.3L73,54.3
			z M27.6,55.1l-0.5,0.8h2.6c0.5-0.3,1-0.5,1.5-0.8H27.6L27.6,55.1z M43,55.8h15.5l-5.1-0.5C49.9,55,46.4,55.2,43,55.8L43,55.8z
			 M70.7,55.8h5.3l-0.5-0.8H72c-0.3,0.2-0.6,0.4-1,0.6C70.9,55.7,70.8,55.8,70.7,55.8L70.7,55.8z M26.5,56.7L26,57.4h0.8
			c0.4-0.3,0.9-0.5,1.3-0.8H26.5L26.5,56.7z M37.2,57.4H77l-0.5-0.8H39.6C38.8,56.9,38,57.1,37.2,57.4L37.2,57.4z M25.5,58.2
			l-0.1,0.1l0.2-0.1H25.5L25.5,58.2z M33.4,59H78l-0.5-0.8H35.1C34.5,58.5,33.9,58.7,33.4,59L33.4,59z M30.4,60.6H79l-0.5-0.8H31.8
			c-0.4,0.2-0.8,0.4-1.2,0.7L30.4,60.6L30.4,60.6z M27.8,62.1h51.7c0.1-0.2,0.1-0.5,0.1-0.8H29C28.6,61.6,28.2,61.9,27.8,62.1
			L27.8,62.1z M25.6,63.7h53c0.2-0.2,0.3-0.4,0.5-0.7l0.1-0.1H26.6C26.3,63.2,25.9,63.5,25.6,63.7L25.6,63.7z M23.6,65.3h24.2
			c0.9-0.3,1.8-0.6,2.7-0.8H24.5C24.2,64.8,23.9,65,23.6,65.3L23.6,65.3z M77.5,64.5H70l5.9,0.3C76.5,64.8,77,64.7,77.5,64.5
			L77.5,64.5z M21.7,66.9h22.4c0.5-0.3,1-0.5,1.5-0.8H22.6C22.3,66.4,22,66.6,21.7,66.9L21.7,66.9z M81.8,66.9h1.4l-0.5-0.8h-0.2
			C82.3,66.4,82.1,66.6,81.8,66.9L81.8,66.9z M20.1,68.4h21.6c0.4-0.3,0.8-0.5,1.1-0.8H20.9C20.6,67.9,20.3,68.2,20.1,68.4
			L20.1,68.4z M54.7,68.4h2.8l-0.4,0C56.4,68.4,55.6,68.4,54.7,68.4L54.7,68.4z M79.7,68.4h4.5l-0.5-0.8h-2.8
			c-0.3,0.2-0.6,0.5-1,0.6C79.9,68.4,79.8,68.4,79.7,68.4L79.7,68.4z M18.5,70h21.1c0.3-0.3,0.6-0.5,0.9-0.8H19.2
			C19,69.5,18.8,69.8,18.5,70L18.5,70z M48,70h37.4l-0.5-0.8h-7.9c-0.4,0-0.8,0-1.2,0l-0.7,0h-25C49.4,69.5,48.7,69.7,48,70L48,70z
			 M17,71.6H38c0.3-0.3,0.5-0.5,0.8-0.8h-21C17.5,71.1,17.3,71.3,17,71.6L17,71.6z M45,71.6h41.4l-0.5-0.8H46.3
			C45.8,71.1,45.4,71.3,45,71.6L45,71.6z M15.7,73.2h20.9l0.1-0.1c0.2-0.2,0.4-0.4,0.5-0.6H16.3C16.1,72.7,15.9,72.9,15.7,73.2
			L15.7,73.2z M42.9,73.2h44.5l-0.5-0.8H43.8C43.5,72.7,43.2,72.9,42.9,73.2L42.9,73.2z M15.1,74l-0.5,0.8h20.7l0.6-0.8H15.1
			L15.1,74z M41.2,74.7h47.3L87.9,74H42C41.7,74.2,41.4,74.5,41.2,74.7L41.2,74.7z M14,75.6l-0.5,0.8h20.4l0.6-0.8H14L14,75.6z
			 M39.8,76.3h49.7L89,75.6H40.4c-0.1,0.1-0.2,0.2-0.3,0.4L39.8,76.3L39.8,76.3z M13,77.1l-0.5,0.8h20.1l0.6-0.8H13L13,77.1z
			 M38.5,77.9h52.1L90,77.1H39.1L38.5,77.9L38.5,77.9z M11.9,78.7l-0.5,0.8h19.9l0.6-0.8H11.9L11.9,78.7z M37.2,79.5h54.4l-0.5-0.8
			H37.8L37.2,79.5L37.2,79.5z M10.9,80.3L10.4,81H30l0.6-0.8H10.9L10.9,80.3z M35.8,81h56.8l-0.5-0.8H36.5L35.8,81L35.8,81z
			 M9.8,81.9l-0.5,0.8h19.3l0.6-0.8H9.8L9.8,81.9z M34.5,82.6h59.2l-0.5-0.8h-58L34.5,82.6z"/>
	</g>
	<path class="st2" d="M132.2,55.9c0,2.4-0.7,4.4-2.2,6.1c-1.6,1.8-3.5,2.7-5.9,2.7H99.6v-6.7h24.6c0.9,0,1.4-0.7,1.4-2.1
		s-0.5-2.1-1.4-2.1h-17.9c-2.4,0-4.3-0.9-5.9-2.7c-1.5-1.7-2.2-3.7-2.2-6.1c0-2.4,0.8-4.5,2.3-6.2c1.5-1.7,3.5-2.6,5.8-2.6h24.6v6.7
		h-24.7c-0.9,0-1.4,0.7-1.4,2.2c0,1.4,0.5,2.1,1.4,2.1h17.9c2.4,0,4.3,0.9,5.9,2.7C131.5,51.5,132.2,53.5,132.2,55.9L132.2,55.9z
		 M273.4,42.1c4,7.6,7.9,15.1,11.8,22.7h7.6c-5-9.5-9.9-19-14.9-28.5h-4.2H273h-4.2c-5,9.5-9.9,19-14.9,28.5h7.6
		C265.5,57.2,269.4,49.6,273.4,42.1L273.4,42.1z M250.2,64.7h-9.1l-8.3-9.3h-9.4v9.3h-6.7V36.2h27.7c2.5,0,4.6,1,6,3
		c1.4,1.8,2.1,4,2.1,6.6c0,2.6-0.7,4.8-2.1,6.6c-1.5,2-3.5,3-6,3h-2.5L250.2,64.7L250.2,64.7z M226.9,48.8h10.6h6.6
		c1.2,0,1.8-1,1.8-2.9c0-2-0.6-2.9-1.8-2.9h-20.6v5.9H226.9L226.9,48.8z M197.2,58.8v6h-6.7v-6H197.2L197.2,58.8z M198.3,52.5h-9.1
		c-4.9-5.5-9.7-10.8-14.6-16.3h9l10.1,11.2l10.1-11.2h9C208.1,41.7,203.2,47.1,198.3,52.5L198.3,52.5z M170.5,64.7h-9.1l-11-10.9
		h-6.9v10.9h-6.7V36.2h6.7v11h6.7l10.4-11h9.1l-13.6,14.3L170.5,64.7z"/>
</g>
</svg>
