<svg width="100" height="100" viewBox="0 0 100 100" fill="none" xmlns="http://www.w3.org/2000/svg">
<g clip-path="url(#clip0_24_1877)">
<path d="M45 18H55V27H45V18Z" fill="#D6D6D6"/>
<path d="M14 66H20V76H14V66Z" fill="#D6D6D6"/>
<path d="M80 66H86V76H80V66Z" fill="#D6D6D6"/>
<path d="M47 66H53V76H47V66Z" fill="#D6D6D6"/>
<path fill-rule="evenodd" clip-rule="evenodd" d="M50.5 31L56.341 38.4694C56.3218 38.6327 56.2544 38.8041 56.139 38.9592C55.9946 39.1633 55.8022 39.3184 55.5712 39.4163C55.3403 39.5143 55.0804 39.5551 54.8014 39.5388L51.1544 39.2531C48.5081 39.0408 46.0928 39.5796 43.9469 40.6082C43.3503 40.8939 42.7729 41.2286 42.2244 41.5878L50.5 31ZM50.5 31.3837L50.3845 31.5306H50.6059L50.5 31.3837ZM50.2306 31.7184L50.0862 31.9061H50.9042L50.7598 31.7184H50.2306ZM49.9323 32.102L49.7879 32.2898H51.2025L51.0581 32.102H49.9323ZM49.6339 32.4857L49.4896 32.6735H51.5008L51.3564 32.4857H49.6339ZM49.3356 32.8694L49.1913 33.0571H51.7991L51.6547 32.8694H49.3356ZM49.0373 33.2449L48.893 33.4327H52.0974L51.953 33.2449H49.0373ZM48.739 33.6286L48.5947 33.8163H52.3957L52.2513 33.6286H48.739ZM48.4407 34.0122L48.2964 34.2H52.694L52.5497 34.0122H48.4407ZM48.1424 34.3959L47.9981 34.5755H53.0019L52.8576 34.3878H48.1424V34.3959ZM47.8441 34.7714L47.6998 34.9592H53.2906L53.1463 34.7714H47.8441ZM47.5458 35.1551L47.4015 35.3429H53.5889L53.4446 35.1551H47.5458ZM47.2571 35.5388L47.1128 35.7265H53.8968L53.7525 35.5388H47.2571ZM46.9588 35.9143L46.8145 36.102H54.1951L54.0508 35.9143H46.9588ZM46.6605 36.298L46.5162 36.4857H54.4935L54.3491 36.298H46.6605ZM46.3622 36.6816L46.2179 36.8694H54.7918L54.6474 36.6816H46.3622ZM46.0639 37.0653L45.9196 37.2531H55.0901L54.9457 37.0653H46.0639ZM45.7656 37.4408L45.6212 37.6286H55.3884L55.244 37.4408H45.7656ZM45.4673 37.8245L45.3229 38.0122H55.6867L55.5423 37.8245H45.4673ZM45.169 38.2082L45.0246 38.3959H55.985L55.8406 38.2082H45.169ZM44.8707 38.5918L44.7263 38.7796H56.0716C56.1005 38.7224 56.1293 38.6653 56.1486 38.6L56.139 38.5918H44.8707ZM44.5724 38.9673L44.428 39.1551H48.4119C49.3164 39.049 50.2498 39.0327 51.1832 39.1061L51.8376 39.1551H55.7444C55.8214 39.098 55.8888 39.0408 55.9465 38.9673H44.5724ZM44.2741 39.351L44.1297 39.5388H46.4103C46.6701 39.4735 46.9299 39.4082 47.1898 39.351H44.2741ZM55.3114 39.351H54.3202L54.8206 39.3918C54.9842 39.4082 55.1478 39.3918 55.3114 39.351ZM43.9758 39.7347L43.8314 39.9224H45.2075C45.3903 39.8571 45.5635 39.7918 45.7463 39.7347H43.9758ZM56.649 39.9143H57.1782L57.0339 39.7265H56.851C56.7837 39.8 56.7163 39.8571 56.649 39.9143ZM43.6774 40.1184L43.5331 40.3061H44.2644C44.4088 40.2408 44.5531 40.1837 44.6975 40.1184H43.6774ZM48.0847 40.298H52.5208L51.0581 40.1837C50.0477 40.102 49.047 40.1429 48.0847 40.298ZM55.9657 40.298H57.4669L57.3226 40.1102H56.3507C56.2641 40.1592 56.1678 40.2082 56.0716 40.249C56.0427 40.2735 56.0042 40.2898 55.9657 40.298ZM43.3791 40.4939L43.2348 40.6816H43.4754C43.6005 40.6163 43.7159 40.5592 43.841 40.4939H43.3791ZM46.4103 40.6816H57.7652L57.6209 40.4939H47.0935C46.8626 40.551 46.6413 40.6163 46.4103 40.6816ZM43.0808 40.8776L43.0616 40.9102L43.1193 40.8776H43.0808ZM45.3229 41.0653H58.0635L57.9192 40.8776H45.8137C45.6501 40.9347 45.4865 41 45.3229 41.0653ZM44.4665 41.4408H58.3618L58.2175 41.2531H44.861C44.7456 41.3102 44.6205 41.3592 44.505 41.4163L44.4665 41.4408ZM43.7352 41.8245H58.4869C58.5062 41.7673 58.5158 41.702 58.5158 41.6367H44.0816C43.9661 41.702 43.8507 41.7592 43.7352 41.8245ZM43.1001 42.2082H58.2463C58.2945 42.1592 58.3426 42.102 58.3811 42.0449L58.4003 42.0204H43.3984C43.3022 42.0857 43.1963 42.1429 43.1001 42.2082ZM42.5227 42.5918H49.4222C49.6724 42.5184 49.9323 42.4531 50.1921 42.4041H42.8018C42.7055 42.4612 42.6189 42.5265 42.5227 42.5918ZM57.9288 42.4041H55.7925L57.4861 42.4694C57.6305 42.4776 57.7845 42.4531 57.9288 42.4041ZM42.0031 42.9673H48.4022C48.5466 42.902 48.6909 42.8367 48.8449 42.7796H42.2533C42.1667 42.8449 42.0897 42.9102 42.0031 42.9673ZM59.1605 42.9673H59.555L59.4107 42.7796H59.3433C59.2856 42.8531 59.2279 42.9102 59.1605 42.9673ZM41.5219 43.351H47.6805C47.7864 43.2857 47.8922 43.2286 48.0077 43.1633H41.7529C41.6759 43.2286 41.5989 43.2857 41.5219 43.351ZM51.4238 43.351H52.2321H52.1359C51.8953 43.3347 51.6547 43.3429 51.4238 43.351ZM58.5639 43.351H59.863L59.7186 43.1633H58.9103C58.8237 43.2204 58.7275 43.2776 58.6313 43.3184C58.6024 43.3347 58.5831 43.3429 58.5639 43.351ZM41.0793 43.7347H47.1128C47.1994 43.6694 47.286 43.6122 47.3726 43.5469H41.291C41.2236 43.6122 41.1467 43.6694 41.0793 43.7347ZM49.4896 43.7347H60.1517L60.0073 43.5469H57.7652C57.6497 43.5551 57.5343 43.5551 57.4188 43.5551L57.2263 43.5469H50.0958C49.8938 43.5959 49.6917 43.6612 49.4896 43.7347ZM40.6655 44.1184H46.6413C46.7086 44.0531 46.7856 43.9959 46.8626 43.9306H40.858C40.8002 43.9878 40.7329 44.0531 40.6655 44.1184ZM48.6428 44.1184H60.45L60.3056 43.9306H49.0085C48.8834 43.9878 48.7583 44.0531 48.6428 44.1184ZM40.271 44.4939H46.2371L46.266 44.4612C46.3141 44.4122 46.3718 44.3551 46.4199 44.3061H40.4538C40.3961 44.3714 40.3383 44.4367 40.271 44.4939ZM48.0366 44.4939H60.7483L60.6039 44.3061H48.306C48.2194 44.3714 48.1232 44.4286 48.0366 44.4939ZM40.0978 44.6898L39.9534 44.8776H45.8618L46.0446 44.6898H40.0978ZM47.5554 44.8776H61.0466L60.9022 44.6898H47.7768C47.6998 44.7551 47.6324 44.8122 47.5554 44.8776ZM39.7995 45.0735L39.6551 45.2612H45.4865L45.6694 45.0735H39.7995ZM47.1609 45.2612H61.3449L61.2005 45.0735H47.3437C47.3149 45.1061 47.286 45.1306 47.2571 45.1633L47.1609 45.2612ZM39.5012 45.4571L39.3568 45.6449H45.1112L45.2941 45.4571H39.5012ZM46.7856 45.6449H61.6528L61.5085 45.4571H46.9781L46.7856 45.6449ZM39.2028 45.8408L39.0585 46.0286H44.736L44.9188 45.8408H39.2028ZM46.4007 46.0204H61.9415L61.7972 45.8327H46.5835L46.4007 46.0204ZM38.9045 46.2163L38.7602 46.4041H44.351L44.5339 46.2163H38.9045ZM46.0254 46.4041H62.2398L62.0955 46.2163H46.2082L46.0254 46.4041ZM38.6062 46.6L38.4619 46.7878H43.9758L44.1586 46.6H38.6062ZM45.6501 46.7878H62.5381L62.3938 46.6H45.8329L45.6501 46.7878ZM56.9954 39.3102C56.9858 39.3265 56.9665 39.351 56.9569 39.3673C56.7163 39.702 56.3891 39.9633 56.0042 40.1265C55.6193 40.2898 55.1767 40.3633 54.7244 40.3306L51.0774 40.0449C48.6428 39.849 46.4103 40.3469 44.428 41.302C42.5035 42.2327 40.8099 43.6041 39.3857 45.2204L38 46.9918H43.9854L46.4007 44.551C47.132 43.8082 48.0077 43.2449 48.9892 42.8857C49.9611 42.5265 51.0389 42.3551 52.184 42.4041L57.4765 42.6082C57.6978 42.6163 57.9095 42.5755 58.0924 42.4939C58.2752 42.4122 58.4196 42.2816 58.535 42.1184C58.6409 41.9551 58.6986 41.7755 58.689 41.6041C58.689 41.5469 58.6794 41.4898 58.6601 41.4327L56.9954 39.3102ZM59.4203 42.4122L63 47H45.2267L47.132 45.0735C47.7768 44.4286 48.5273 43.9388 49.3741 43.6286C50.2209 43.3184 51.1543 43.1714 52.1455 43.2122L57.438 43.4163C57.8422 43.4327 58.2175 43.3592 58.5543 43.2041C58.8814 43.049 59.1701 42.8122 59.3626 42.5184C59.3722 42.4776 59.4011 42.4449 59.4203 42.4122Z" fill="#666666"/>
<path d="M67 40H69V44H67V40Z" fill="#666666"/>
<path d="M50 74C50.5523 74 51 73.5523 51 73C51 72.4477 50.5523 72 50 72C49.4477 72 49 72.4477 49 73C49 73.5523 49.4477 74 50 74Z" fill="#666666"/>
<path d="M83 74C83.5523 74 84 73.5523 84 73C84 72.4477 83.5523 72 83 72C82.4477 72 82 72.4477 82 73C82 73.5523 82.4477 74 83 74Z" fill="#666666"/>
<path d="M32 58H36V60H32V58Z" fill="#666666"/>
<path d="M16 65H13V68H7V72H9V70H13V77H21V70H25V91H9V76H7V93H27V68H21V65H18V60H28V58H16V65ZM19 67V75H15V67H19Z" fill="#666666"/>
<path d="M17 74C17.5523 74 18 73.5523 18 73C18 72.4477 17.5523 72 17 72C16.4477 72 16 72.4477 16 73C16 73.5523 16.4477 74 17 74Z" fill="#666666"/>
<path d="M87 68.0002V65.0002H84V58.0002H51V53.0002H69V48.0002H67V51.0002H33V28.0002H67V36.0002H69V28.0002H73V17.0002H59.46C60.0109 16.3869 60.4294 15.6665 60.6893 14.884C60.9491 14.1016 61.0448 13.274 60.9702 12.4529C60.8957 11.6318 60.6526 10.8349 60.2561 10.1121C59.8595 9.38924 59.3182 8.75596 58.6658 8.25185C58.0134 7.74774 57.2641 7.38363 56.4646 7.18229C55.6651 6.98095 54.8326 6.94671 54.0193 7.08171C53.206 7.21671 52.4292 7.51805 51.7377 7.96688C51.0461 8.41571 50.4545 9.00238 50 9.69023C49.5463 9.00033 48.955 8.41159 48.2631 7.96092C47.5712 7.51026 46.7937 7.20737 45.9793 7.07126C45.1649 6.93516 44.3311 6.96876 43.5303 7.16996C42.7294 7.37116 41.9788 7.73562 41.3254 8.2405C40.6721 8.74539 40.13 9.3798 39.7333 10.104C39.3366 10.8281 39.0938 11.6264 39.02 12.4489C38.9463 13.2713 39.0432 14.1001 39.3048 14.8833C39.5663 15.6664 39.9869 16.3872 40.54 17.0002H27V28.0002H31V53.0002H49V58.0002H40V60.0002H49V65.0002H46V68.0002H40V84.0002H42V70.0002H46V77.0002H54V70.0002H58V91.0002H42V88.0002H40V93.0002H60V68.0002H54V65.0002H51V60.0002H82V65.0002H79V68.0002H73V80.0002H75V70.0002H79V77.0002H87V70.0002H91V91.0002H75V84.0002H73V93.0002H93V68.0002H87ZM71 19.0002V26.0002H56V19.0002H71ZM51 13.0002C51 12.2091 51.2346 11.4357 51.6741 10.7779C52.1136 10.1201 52.7384 9.60746 53.4693 9.30471C54.2002 9.00196 55.0044 8.92274 55.7804 9.07708C56.5563 9.23143 57.269 9.61239 57.8284 10.1718C58.3878 10.7312 58.7688 11.4439 58.9231 12.2199C59.0775 12.9958 58.9983 13.8001 58.6955 14.531C58.3928 15.2619 57.8801 15.8866 57.2223 16.3261C56.5645 16.7656 55.7911 17.0002 55 17.0002H51V13.0002ZM51 19.0002H54V26.0002H46V19.0002H51ZM45 9.00023C46.0609 9.00023 47.0783 9.42165 47.8284 10.1718C48.5786 10.9219 49 11.9394 49 13.0002V17.0002H45C43.9391 17.0002 42.9217 16.5788 42.1716 15.8287C41.4214 15.0785 41 14.0611 41 13.0002C41 11.9394 41.4214 10.9219 42.1716 10.1718C42.9217 9.42165 43.9391 9.00023 45 9.00023ZM29 26.0002V19.0002H44V26.0002H29ZM52 67.0002V75.0002H48V67.0002H52ZM85 75.0002H81V67.0002H85V75.0002Z" fill="#666666"/>
</g>
<defs>
<clipPath id="clip0_24_1877">
<rect width="100" height="100" fill="white"/>
</clipPath>
</defs>
</svg>
