<svg width="100" height="100" viewBox="0 0 100 100" fill="none" xmlns="http://www.w3.org/2000/svg">
<g clip-path="url(#clip0_24_1745)">
<path d="M52.0001 24.8C56.6393 24.8 60.4001 21.0392 60.4001 16.4C60.4001 11.7608 56.6393 8 52.0001 8C47.3609 8 43.6001 11.7608 43.6001 16.4C43.6001 21.0392 47.3609 24.8 52.0001 24.8Z" fill="#413D4A"/>
<path d="M85.6002 87.8C90.2394 87.8 94.0002 84.0392 94.0002 79.4C94.0002 74.7608 90.2394 71 85.6002 71C80.961 71 77.2002 74.7608 77.2002 79.4C77.2002 84.0392 80.961 87.8 85.6002 87.8Z" fill="#413D4A"/>
<path d="M18.4 87.8C23.0392 87.8 26.8 84.0392 26.8 79.4C26.8 74.7608 23.0392 71 18.4 71C13.7608 71 10 74.7608 10 79.4C10 84.0392 13.7608 87.8 18.4 87.8Z" fill="#413D4A"/>
<path d="M39.2002 53.1542V71.0002H31.2002V36.3462L52.0002 53.2462L72.8002 36.3462V71.0002H64.8002V53.1542L52.0002 63.5552" fill="#413D4A"/>
<path d="M30.2002 34.2451V72.0001H40.2002V55.2551L44.0812 58.4091L45.3422 56.8561L38.1992 51.0561V70.0001H32.1992V38.4471L52.0002 54.5341L71.8002 38.4471V52.0001H73.8002V34.2451L52.0002 51.9581L30.2002 34.2451Z" fill="#A09EA5"/>
<path d="M71.8001 70.0002H65.8001V51.0532L52.0001 62.2672L48.3001 59.2572L47.0361 60.8102L52.0001 64.8432L63.8001 55.2562V72.0002H73.8001V64.0002H71.8001V70.0002Z" fill="#A09EA5"/>
<path d="M71.7998 56H73.7998V60H71.7998V56Z" fill="#A09EA5"/>
<path d="M87.356 70.17C89.6359 65.1552 90.8105 59.7087 90.8 54.2C90.7556 45.5553 87.8443 37.1697 82.5224 30.3572C77.2006 23.5447 69.7689 18.6904 61.392 16.555C61.392 16.503 61.4 16.455 61.4 16.4C61.4 13.907 60.4096 11.516 58.6468 9.7532C56.8839 7.99035 54.493 7 52 7C49.5069 7 47.116 7.99035 45.3532 9.7532C43.5903 11.516 42.6 13.907 42.6 16.4C42.6 16.452 42.607 16.5 42.608 16.554C37.0936 17.9282 31.9485 20.4974 27.5368 24.0799C23.1251 27.6623 19.5546 32.1705 17.0777 37.2854C14.6009 42.4003 13.2783 47.997 13.2035 53.6796C13.1287 59.3621 14.3036 64.9917 16.645 70.17C15.0752 70.4657 13.6067 71.1565 12.378 72.1773C11.1493 73.198 10.201 74.5151 9.62267 76.0041C9.04429 77.4931 8.85491 79.1049 9.0724 80.6874C9.28988 82.2699 9.90706 83.7709 10.8657 85.0486C11.8243 86.3264 13.0927 87.3388 14.5512 87.9903C16.0097 88.6418 17.6101 88.9108 19.2015 88.772C20.7928 88.6333 22.3225 88.0913 23.6463 87.1972C24.97 86.3031 26.044 85.0864 26.767 83.662C33.7932 89.6877 42.7438 93 52 93C61.2561 93 70.2068 89.6877 77.233 83.662C77.9567 85.084 79.0307 86.2983 80.3537 87.1903C81.6767 88.0823 83.2051 88.6227 84.7947 88.7605C86.3844 88.8982 87.9829 88.6289 89.4396 87.9778C90.8964 87.3267 92.1632 86.3153 93.1209 85.039C94.0785 83.7627 94.6952 82.2635 94.913 80.6828C95.1308 79.1022 94.9424 77.492 94.3656 76.0043C93.7888 74.5166 92.8426 73.2003 91.6162 72.1796C90.3898 71.1588 88.9237 70.4672 87.356 70.17ZM52 9C53.4636 9 54.8943 9.434 56.1112 10.2471C57.3281 11.0602 58.2766 12.216 58.8367 13.5681C59.3968 14.9203 59.5433 16.4082 59.2578 17.8437C58.9723 19.2791 58.2675 20.5977 57.2326 21.6326C56.1977 22.6675 54.8791 23.3723 53.4436 23.6578C52.0082 23.9433 50.5203 23.7968 49.1681 23.2367C47.816 22.6766 46.6602 21.7281 45.8471 20.5112C45.034 19.2943 44.6 17.8636 44.6 16.4C44.6024 14.4381 45.3828 12.5573 46.77 11.17C48.1573 9.78279 50.0381 9.00238 52 9ZM18.4 86.8C16.9364 86.8 15.5057 86.366 14.2888 85.5529C13.0718 84.7397 12.1234 83.584 11.5633 82.2319C11.0032 80.8797 10.8566 79.3918 11.1422 77.9563C11.4277 76.5209 12.1325 75.2023 13.1674 74.1674C14.2023 73.1325 15.5209 72.4277 16.9563 72.1422C18.3918 71.8567 19.8797 72.0032 21.2318 72.5633C22.584 73.1234 23.7397 74.0719 24.5529 75.2888C25.366 76.5057 25.8 77.9364 25.8 79.4C25.7976 81.3619 25.0172 83.2427 23.6299 84.63C22.2427 86.0172 20.3619 86.7976 18.4 86.8ZM52 91C42.9676 91.0059 34.2496 87.6837 27.512 81.668C27.8558 80.3146 27.8922 78.9013 27.6185 77.532C27.3447 76.1626 26.7678 74.872 25.9301 73.7547C25.0923 72.6375 24.015 71.7221 22.7772 71.0756C21.5394 70.4292 20.1726 70.0681 18.777 70.019C16.4406 65.1149 15.219 59.7543 15.2001 54.3221C15.1811 48.8899 16.3652 43.5209 18.6674 38.6006C20.9696 33.6803 24.3327 29.3308 28.5152 25.8644C32.6977 22.3981 37.5959 19.9008 42.858 18.552C43.3406 20.6145 44.5065 22.4531 46.1662 23.7692C47.8259 25.0853 49.8818 25.8016 52 25.8016C54.1182 25.8016 56.1741 25.0853 57.8338 23.7692C59.4934 22.4531 60.6593 20.6145 61.142 18.552C69.0339 20.6195 76.0227 25.2342 81.0237 31.6799C86.0247 38.1256 88.7582 46.0418 88.8 54.2C88.8118 59.6748 87.5892 65.0819 85.223 70.019C83.8274 70.0681 82.4606 70.4292 81.2228 71.0756C79.985 71.7221 78.9077 72.6375 78.0699 73.7547C77.2321 74.872 76.6552 76.1626 76.3815 77.532C76.1077 78.9013 76.1441 80.3146 76.488 81.668C69.7502 87.6835 61.0323 91.0057 52 91ZM85.6 86.8C84.1364 86.8 82.7057 86.366 81.4888 85.5529C80.2718 84.7397 79.3234 83.584 78.7633 82.2319C78.2032 80.8797 78.0566 79.3918 78.3422 77.9563C78.6277 76.5209 79.3325 75.2023 80.3674 74.1674C81.4023 73.1325 82.7209 72.4277 84.1563 72.1422C85.5918 71.8567 87.0797 72.0032 88.4318 72.5633C89.784 73.1234 90.9397 74.0719 91.7529 75.2888C92.566 76.5057 93 77.9364 93 79.4C92.9976 81.3619 92.2172 83.2427 90.8299 84.63C89.4427 86.0172 87.5619 86.7976 85.6 86.8Z" fill="#A09EA5"/>
</g>
<defs>
<clipPath id="clip0_24_1745">
<rect width="100" height="100" fill="white"/>
</clipPath>
</defs>
</svg>
