<svg width="100" height="100" viewBox="0 0 100 100" fill="none" xmlns="http://www.w3.org/2000/svg">
<g clip-path="url(#clip0_24_1685)">
<path d="M18 8H29V92H18V8Z" fill="#D6D6D6"/>
<path d="M81 17H86V29H81V17Z" fill="#D6D6D6"/>
<path d="M81 38H86V50H81V38Z" fill="#D6D6D6"/>
<path d="M81 59H86V71H81V59Z" fill="#D6D6D6"/>
<path d="M55 45C59.9706 45 64 40.9706 64 36C64 31.0294 59.9706 27 55 27C50.0294 27 46 31.0294 46 36C46 40.9706 50.0294 45 55 45Z" fill="#D6D6D6"/>
<path d="M70.581 64C67.494 55.172 63.451 49 55.25 49C47.049 49 42.73 55.172 39.5 64H70.581Z" fill="#D6D6D6"/>
<path d="M64 7H68.001V9H64V7Z" fill="#666666"/>
<path d="M28 76H30V80H28V76Z" fill="#666666"/>
<path d="M87 30V16H82V7H72V9H80V91H30V84H28V91H19V9H28V72H30V9H60V7H17V93H82V72H87V58H82V51H87V37H82V30H87ZM82 18H85V28H82V18ZM85 60V70H82V60H85ZM85 39V49H82V39H85Z" fill="#666666"/>
<path d="M45 36C45 37.9778 45.5865 39.9112 46.6853 41.5557C47.7841 43.2002 49.3459 44.4819 51.1732 45.2388C53.0004 45.9957 55.0111 46.1937 56.9509 45.8079C58.8907 45.422 60.6725 44.4696 62.0711 43.0711C63.4696 41.6725 64.422 39.8907 64.8079 37.9509C65.1937 36.0111 64.9957 34.0004 64.2388 32.1732C63.4819 30.3459 62.2002 28.7841 60.5557 27.6853C58.9112 26.5865 56.9778 26 55 26C52.3487 26.0029 49.8069 27.0574 47.9321 28.9321C46.0574 30.8069 45.0029 33.3487 45 36ZM63 36C63 37.5823 62.5308 39.129 61.6518 40.4446C60.7727 41.7602 59.5233 42.7855 58.0615 43.391C56.5997 43.9965 54.9911 44.155 53.4393 43.8463C51.8874 43.5376 50.462 42.7757 49.3431 41.6569C48.2243 40.538 47.4624 39.1126 47.1537 37.5607C46.845 36.0089 47.0035 34.4003 47.609 32.9385C48.2145 31.4767 49.2398 30.2273 50.5554 29.3482C51.871 28.4692 53.4177 28 55 28C57.121 28.0024 59.1544 28.846 60.6542 30.3458C62.154 31.8456 62.9976 33.879 63 36Z" fill="#666666"/>
<path d="M55.25 48C45.534 48 41.228 56.367 38.563 63.656L38.071 65H71.99L71.525 63.67C68.815 55.921 64.763 48 55.25 48ZM40.95 63C44.527 53.906 48.85 50 55.25 50C61.612 50 65.7 53.788 69.156 63H40.95Z" fill="#666666"/>
</g>
<defs>
<clipPath id="clip0_24_1685">
<rect width="100" height="100" fill="white"/>
</clipPath>
</defs>
</svg>
