<svg width="100" height="100" viewBox="0 0 100 100" fill="none" xmlns="http://www.w3.org/2000/svg">
<g clip-path="url(#clip0_24_1791)">
<path d="M50 84C57.732 84 64 77.732 64 70C64 62.268 57.732 56 50 56C42.268 56 36 62.268 36 70C36 77.732 42.268 84 50 84Z" fill="#413D4A"/>
<path d="M41 28H59V46H41V28Z" fill="#413D4A"/>
<path d="M81 58H83V62H81V58Z" fill="#A09EA5"/>
<path d="M81 91H19V84H17V93H83V66H81V91Z" fill="#A09EA5"/>
<path d="M17 76H19V80H17V76Z" fill="#A09EA5"/>
<path d="M80 26.9998V28.9998H87V44.9998H60V28.9998H76V26.9998H66.305C67.691 26.031 68.8347 24.7555 69.6473 23.2725C70.4599 21.7895 70.9193 20.1391 70.99 18.4495C71.0606 16.76 70.7404 15.077 70.0544 13.5314C69.3684 11.9858 68.3351 10.6193 67.0348 9.53822C65.7345 8.45716 64.2023 7.69067 62.5575 7.29839C60.9126 6.90611 59.1994 6.89863 57.5512 7.27651C55.9029 7.6544 54.3641 8.40747 53.0544 9.47713C51.7447 10.5468 50.6995 11.9042 50 13.4438C49.3005 11.9042 48.2553 10.5468 46.9456 9.47713C45.6359 8.40747 44.0971 7.6544 42.4488 7.27651C40.8006 6.89863 39.0874 6.90611 37.4425 7.29839C35.7977 7.69067 34.2655 8.45716 32.9652 9.53822C31.6649 10.6193 30.6316 11.9858 29.9456 13.5314C29.2596 15.077 28.9394 16.76 29.01 18.4495C29.0807 20.1391 29.5401 21.7895 30.3527 23.2725C31.1653 24.7555 32.309 26.031 33.695 26.9998H11V46.9998H17V71.9998H19V46.9998H81V53.9998H83V46.9998H89V26.9998H80ZM60 8.99976C62.3869 8.99976 64.6761 9.94797 66.364 11.6358C68.0518 13.3236 69 15.6128 69 17.9998C69 20.3867 68.0518 22.6759 66.364 24.3637C64.6761 26.0515 62.3869 26.9998 60 26.9998H51V17.9998C51.0026 15.6136 51.9517 13.326 53.639 11.6387C55.3262 9.95147 57.6139 9.0024 60 8.99976ZM31 17.9998C31 15.6128 31.9482 13.3236 33.636 11.6358C35.3239 9.94797 37.6131 8.99976 40 8.99976C42.3869 8.99976 44.6761 9.94797 46.364 11.6358C48.0518 13.3236 49 15.6128 49 17.9998V26.9998H40C37.6139 26.9971 35.3262 26.048 33.639 24.3608C31.9517 22.6735 31.0026 20.3859 31 17.9998ZM17 44.9998H13V28.9998H40V44.9998H17ZM42 44.9998V28.9998H58V44.9998H42Z" fill="#A09EA5"/>
<path d="M55 55.875V58C57.7741 59.1559 60.0621 61.2372 61.4746 63.8898C62.8871 66.5425 63.337 69.6026 62.7476 72.5495C62.1582 75.4964 60.566 78.1481 58.2419 80.0535C55.9178 81.9588 53.0053 83 50 83C46.9947 83 44.0823 81.9588 41.7582 80.0535C39.4341 78.1481 37.8419 75.4964 37.2525 72.5495C36.6631 69.6026 37.1129 66.5425 38.5255 63.8898C39.938 61.2372 42.2259 59.1559 45 58V55.875C41.664 57.0545 38.8523 59.3753 37.0619 62.4274C35.2715 65.4795 34.6177 69.0662 35.2161 72.5537C35.8144 76.0411 37.6264 79.2048 40.3317 81.4855C43.0371 83.7662 46.4616 85.0171 50 85.0171C53.5385 85.0171 56.963 83.7662 59.6683 81.4855C62.3737 79.2048 64.1857 76.0411 64.784 72.5537C65.3824 69.0662 64.7286 65.4795 62.9382 62.4274C61.1478 59.3753 58.3361 57.0545 55 55.875Z" fill="#A09EA5"/>
<path d="M49 52H51V72H49V52Z" fill="#A09EA5"/>
</g>
<defs>
<clipPath id="clip0_24_1791">
<rect width="100" height="100" fill="white"/>
</clipPath>
</defs>
</svg>
