<svg width="100" height="100" viewBox="0 0 100 100" fill="none" xmlns="http://www.w3.org/2000/svg">
<path d="M27.77 85.2703C27.27 85.2703 26.87 84.8803 26.87 84.3703V46.8303L26.47 46.7503C17.53 44.9703 11.37 39.4003 8.59 34.7803C7.52 32.9903 7.95 30.6903 9.59 29.4403C10.32 28.8803 11.22 28.5703 12.13 28.5703C13.21 28.5703 14.22 28.9903 14.96 29.7403C20.8 35.6003 26.72 37.9403 27.84 38.3503L27.92 38.3803H40.12L40.2 38.3503C41.33 37.9403 47.24 35.6003 53.08 29.7403C53.83 28.9803 54.83 28.5703 55.91 28.5703C56.82 28.5703 57.72 28.8803 58.45 29.4403C60.09 30.7103 60.51 33.0103 59.45 34.7803C56.68 39.3903 50.52 44.9603 41.57 46.7503L41.17 46.8303V84.3703C41.18 84.6103 41.09 84.8303 40.93 84.9903C40.76 85.1603 40.53 85.2603 40.28 85.2603H27.77V85.2703Z" fill="#D7D6D6"/>
<path d="M75.6799 50.0101C70.9799 50.0101 67.1499 46.1801 67.1499 41.4801C67.1499 36.7802 70.9799 32.9502 75.6799 32.9502C80.3799 32.9502 84.2099 36.7802 84.2099 41.4801C84.2099 46.1801 80.3799 50.0101 75.6799 50.0101Z" fill="#D7D6D6"/>
<path d="M34.0199 35.7C38.2299 35.7 41.6399 32.29 41.6399 28.08C41.6399 23.87 38.2299 20.46 34.0199 20.46C29.8099 20.46 26.3999 23.87 26.3999 28.08C26.3999 32.29 29.8099 35.7 34.0199 35.7Z" fill="#D7D6D6"/>
<path d="M75.6799 32.9502C70.9799 32.9502 67.1499 36.7802 67.1499 41.4801C67.1499 46.1801 70.9799 50.0101 75.6799 50.0101C80.3799 50.0101 84.2099 46.1801 84.2099 41.4801C84.2099 36.7802 80.3799 32.9502 75.6799 32.9502ZM82.3999 41.4801C82.3999 42.8501 81.9899 44.1302 81.2799 45.1902L76.3099 41.1301V34.8001C79.7199 35.1101 82.3999 37.9801 82.3999 41.4801ZM68.9599 41.4801C68.9599 38.1702 71.3599 35.4202 74.5199 34.8702V41.5601C74.5199 41.8301 74.6399 42.0802 74.8499 42.2602L80.0799 46.5501C78.8999 47.5701 77.3699 48.2002 75.6799 48.2002C71.9699 48.2002 68.9599 45.1801 68.9599 41.4801Z" fill="#676767"/>
<path d="M68.1899 85.27V83.27H72.1899V85.27H68.1899Z" fill="#676767"/>
<path d="M34.02 36.7C29.32 36.7 25.5 32.84 25.5 28.08C25.5 23.33 29.32 19.46 34.02 19.46C38.72 19.46 42.54 23.32 42.54 28.08C42.54 32.83 38.72 36.7 34.02 36.7ZM34.02 21.12C30.26 21.12 27.2 24.24 27.2 28.08C27.2 31.92 30.26 35.04 34.02 35.04C37.77 35.04 40.81 31.92 40.81 28.08C40.82 26.18 40.05 24.34 38.69 23.03C37.43 21.8 35.77 21.12 34.02 21.12Z" fill="#676767"/>
<path d="M35.52 15L37.52 17H90.52V54H45.52L43.52 56H92.52V15H35.52Z" fill="#676767"/>
<path d="M74.3101 85.27V83.27H78.3101V85.27H74.3101Z" fill="#676767"/>
<path d="M41.1701 83.2701V46.8401L41.5701 46.7601C50.5301 44.9701 56.6801 39.4101 59.4501 34.7901C60.5201 33.0101 60.0901 30.7101 58.4501 29.4501C57.7301 28.8901 56.8301 28.5801 55.9101 28.5801C54.8301 28.5801 53.8201 29.0001 53.0801 29.7501C47.2401 35.6101 41.3201 37.9501 40.2001 38.3601L40.1201 38.3901H27.9201L27.8401 38.3601C26.7101 37.9501 20.8001 35.6101 14.9601 29.7501C14.2101 29.0001 13.2101 28.5801 12.1301 28.5801C11.2201 28.5801 10.3201 28.8901 9.59009 29.4501C7.96009 30.7001 7.53009 33.0001 8.59009 34.7901C11.3701 39.4101 17.5301 44.9801 26.4701 46.7601L26.8701 46.8401V83.2701H15.8201V85.2701H65.6401V83.2701H41.1701ZM27.9101 45.1801C18.9901 43.7601 12.8701 38.4001 10.1201 33.8501C9.53009 32.8601 9.77009 31.5801 10.6901 30.8501C11.0901 30.5401 11.5901 30.3601 12.1001 30.3601C12.7001 30.3601 13.2601 30.5901 13.6901 31.0101C20.0101 37.3201 26.2901 39.7001 27.5201 40.1301C27.5901 40.1601 27.6701 40.1701 27.7801 40.1701H40.2901C40.3901 40.1701 40.4801 40.1601 40.5801 40.1201C40.6501 40.1001 47.5401 37.8601 54.3801 31.0101C54.7901 30.6001 55.3401 30.3801 55.9401 30.3801C56.4601 30.3801 56.9601 30.5501 57.3701 30.8701C58.2801 31.5801 58.5201 32.8701 57.9201 33.8601C55.2001 38.4001 49.1001 43.7701 40.1401 45.1901C39.7001 45.2601 39.3801 45.6301 39.3801 46.0701V83.2601H28.6801V46.0601C28.6801 45.6201 28.3501 45.2401 27.9101 45.1801Z" fill="#676767"/>
<path d="M35.01 83.5001H33.01V66.0601H35.01V83.5001Z" fill="#676767"/>
<path d="M48.47 51.0098V49.0098H61.96V51.0098H48.47Z" fill="#676767"/>
<path d="M65.45 23.98V21.98H78.94V23.98H65.45Z" fill="#676767"/>
<path d="M65.45 29.1201V27.1201H82.4V29.1201H65.45Z" fill="#676767"/>
</svg>
