<svg width="100" height="100" viewBox="0 0 100 100" fill="none" xmlns="http://www.w3.org/2000/svg">
<g clip-path="url(#clip0_24_1924)">
<path d="M50 26C45.2533 26 40.6131 27.4076 36.6663 30.0447C32.7195 32.6819 29.6434 36.4302 27.8269 40.8156C26.0104 45.201 25.5351 50.0266 26.4612 54.6822C27.3872 59.3377 29.673 63.6141 33.0294 66.9706C36.3859 70.327 40.6623 72.6128 45.3178 73.5388C49.9734 74.4649 54.799 73.9896 59.1844 72.1731C63.5698 70.3566 67.3181 67.2805 69.9553 63.3337C72.5924 59.3869 74 54.7468 74 50C74 43.6348 71.4715 37.5303 66.9706 33.0294C62.4697 28.5286 56.3652 26 50 26ZM50 68C46.4399 68 42.9598 66.9443 39.9997 64.9665C37.0397 62.9886 34.7326 60.1774 33.3702 56.8883C32.0078 53.5992 31.6513 49.98 32.3459 46.4884C33.0404 42.9967 34.7547 39.7894 37.2721 37.2721C39.7894 34.7547 42.9967 33.0404 46.4884 32.3459C49.98 31.6513 53.5992 32.0078 56.8883 33.3702C60.1774 34.7325 62.9886 37.0397 64.9665 39.9997C66.9443 42.9598 68 46.4399 68 50C68 54.7739 66.1036 59.3523 62.7279 62.7279C59.3523 66.1036 54.7739 68 50 68Z" fill="#413D4A"/>
<path d="M50 31C46.2422 31 42.5687 32.1143 39.4442 34.2021C36.3196 36.2898 33.8844 39.2572 32.4463 42.729C31.0082 46.2008 30.632 50.0211 31.3651 53.7067C32.0982 57.3924 33.9078 60.7778 36.565 63.435C39.2222 66.0922 42.6077 67.9018 46.2933 68.6349C49.9789 69.368 53.7992 68.9918 57.271 67.5537C60.7428 66.1156 63.7102 63.6804 65.7979 60.5558C67.8857 57.4313 69 53.7578 69 50C68.9944 44.9626 66.9909 40.1331 63.4289 36.5711C59.8669 33.0091 55.0374 31.0056 50 31ZM50 67C46.6377 67 43.3509 66.003 40.5553 64.135C37.7597 62.267 35.5807 59.612 34.2941 56.5056C33.0074 53.3993 32.6707 49.9811 33.3267 46.6835C33.9826 43.3858 35.6017 40.3567 37.9792 37.9792C40.3567 35.6017 43.3858 33.9826 46.6835 33.3266C49.9811 32.6707 53.3993 33.0074 56.5056 34.294C59.612 35.5807 62.267 37.7597 64.135 40.5553C66.003 43.3509 67 46.6377 67 50C66.995 54.5071 65.2023 58.8282 62.0153 62.0153C58.8282 65.2023 54.5071 66.995 50 67Z" fill="#A09EA5"/>
<path fill-rule="evenodd" clip-rule="evenodd" d="M49.5 39L55.341 46.4694C55.3218 46.6327 55.2544 46.8041 55.139 46.9592C54.9946 47.1633 54.8022 47.3184 54.5712 47.4163C54.3403 47.5143 54.0804 47.5551 53.8014 47.5388L50.1544 47.2531C47.5081 47.0408 45.0928 47.5796 42.9469 48.6082C42.3503 48.8939 41.7729 49.2286 41.2244 49.5878L49.5 39ZM49.5 39.3837L49.3845 39.5306H49.6059L49.5 39.3837ZM49.2306 39.7184L49.0862 39.9061H49.9042L49.7598 39.7184H49.2306ZM48.9323 40.102L48.7879 40.2898H50.2025L50.0581 40.102H48.9323ZM48.6339 40.4857L48.4896 40.6735H50.5008L50.3564 40.4857H48.6339ZM48.3356 40.8694L48.1913 41.0571H50.7991L50.6547 40.8694H48.3356ZM48.0373 41.2449L47.893 41.4327H51.0974L50.953 41.2449H48.0373ZM47.739 41.6286L47.5947 41.8163H51.3957L51.2513 41.6286H47.739ZM47.4407 42.0122L47.2964 42.2H51.694L51.5497 42.0122H47.4407ZM47.1424 42.3959L46.9981 42.5755H52.0019L51.8576 42.3878H47.1424V42.3959ZM46.8441 42.7714L46.6998 42.9592H52.2906L52.1463 42.7714H46.8441ZM46.5458 43.1551L46.4015 43.3429H52.5889L52.4446 43.1551H46.5458ZM46.2571 43.5388L46.1128 43.7265H52.8968L52.7525 43.5388H46.2571ZM45.9588 43.9143L45.8145 44.102H53.1951L53.0508 43.9143H45.9588ZM45.6605 44.298L45.5162 44.4857H53.4935L53.3491 44.298H45.6605ZM45.3622 44.6816L45.2179 44.8694H53.7918L53.6474 44.6816H45.3622ZM45.0639 45.0653L44.9196 45.2531H54.0901L53.9457 45.0653H45.0639ZM44.7656 45.4408L44.6212 45.6286H54.3884L54.244 45.4408H44.7656ZM44.4673 45.8245L44.3229 46.0122H54.6867L54.5423 45.8245H44.4673ZM44.169 46.2082L44.0246 46.3959H54.985L54.8406 46.2082H44.169ZM43.8707 46.5918L43.7263 46.7796H55.0716C55.1005 46.7224 55.1293 46.6653 55.1486 46.6L55.139 46.5918H43.8707ZM43.5724 46.9673L43.428 47.1551H47.4119C48.3164 47.049 49.2498 47.0327 50.1832 47.1061L50.8376 47.1551H54.7444C54.8214 47.098 54.8888 47.0408 54.9465 46.9673H43.5724ZM43.2741 47.351L43.1297 47.5388H45.4103C45.6701 47.4735 45.9299 47.4082 46.1898 47.351H43.2741ZM54.3114 47.351H53.3202L53.8206 47.3918C53.9842 47.4082 54.1478 47.3918 54.3114 47.351ZM42.9758 47.7347L42.8314 47.9224H44.2075C44.3903 47.8571 44.5635 47.7918 44.7463 47.7347H42.9758ZM55.649 47.9143H56.1782L56.0339 47.7265H55.851C55.7837 47.8 55.7163 47.8571 55.649 47.9143ZM42.6774 48.1184L42.5331 48.3061H43.2644C43.4088 48.2408 43.5531 48.1837 43.6975 48.1184H42.6774ZM47.0847 48.298H51.5208L50.0581 48.1837C49.0477 48.102 48.047 48.1429 47.0847 48.298ZM54.9657 48.298H56.4669L56.3226 48.1102H55.3507C55.2641 48.1592 55.1678 48.2082 55.0716 48.249C55.0427 48.2735 55.0042 48.2898 54.9657 48.298ZM42.3791 48.4939L42.2348 48.6816H42.4754C42.6005 48.6163 42.7159 48.5592 42.841 48.4939H42.3791ZM45.4103 48.6816H56.7652L56.6209 48.4939H46.0935C45.8626 48.551 45.6413 48.6163 45.4103 48.6816ZM42.0808 48.8776L42.0616 48.9102L42.1193 48.8776H42.0808ZM44.3229 49.0653H57.0635L56.9192 48.8776H44.8137C44.6501 48.9347 44.4865 49 44.3229 49.0653ZM43.4665 49.4408H57.3618L57.2175 49.2531H43.861C43.7456 49.3102 43.6205 49.3592 43.505 49.4163L43.4665 49.4408ZM42.7352 49.8245H57.4869C57.5062 49.7673 57.5158 49.702 57.5158 49.6367H43.0816C42.9661 49.702 42.8507 49.7592 42.7352 49.8245ZM42.1001 50.2082H57.2463C57.2945 50.1592 57.3426 50.102 57.3811 50.0449L57.4003 50.0204H42.3984C42.3022 50.0857 42.1963 50.1429 42.1001 50.2082ZM41.5227 50.5918H48.4222C48.6724 50.5184 48.9323 50.4531 49.1921 50.4041H41.8018C41.7055 50.4612 41.6189 50.5265 41.5227 50.5918ZM56.9288 50.4041H54.7925L56.4861 50.4694C56.6305 50.4776 56.7845 50.4531 56.9288 50.4041ZM41.0031 50.9673H47.4022C47.5466 50.902 47.6909 50.8367 47.8449 50.7796H41.2533C41.1667 50.8449 41.0897 50.9102 41.0031 50.9673ZM58.1605 50.9673H58.555L58.4107 50.7796H58.3433C58.2856 50.8531 58.2279 50.9102 58.1605 50.9673ZM40.5219 51.351H46.6805C46.7864 51.2857 46.8922 51.2286 47.0077 51.1633H40.7529C40.6759 51.2286 40.5989 51.2857 40.5219 51.351ZM50.4238 51.351H51.2321H51.1359C50.8953 51.3347 50.6547 51.3429 50.4238 51.351ZM57.5639 51.351H58.863L58.7186 51.1633H57.9103C57.8237 51.2204 57.7275 51.2776 57.6313 51.3184C57.6024 51.3347 57.5831 51.3429 57.5639 51.351ZM40.0793 51.7347H46.1128C46.1994 51.6694 46.286 51.6122 46.3726 51.5469H40.291C40.2236 51.6122 40.1467 51.6694 40.0793 51.7347ZM48.4896 51.7347H59.1517L59.0073 51.5469H56.7652C56.6497 51.5551 56.5343 51.5551 56.4188 51.5551L56.2263 51.5469H49.0958C48.8938 51.5959 48.6917 51.6612 48.4896 51.7347ZM39.6655 52.1184H45.6413C45.7086 52.0531 45.7856 51.9959 45.8626 51.9306H39.858C39.8002 51.9878 39.7329 52.0531 39.6655 52.1184ZM47.6428 52.1184H59.45L59.3056 51.9306H48.0085C47.8834 51.9878 47.7583 52.0531 47.6428 52.1184ZM39.271 52.4939H45.2371L45.266 52.4612C45.3141 52.4122 45.3718 52.3551 45.4199 52.3061H39.4538C39.3961 52.3714 39.3383 52.4367 39.271 52.4939ZM47.0366 52.4939H59.7483L59.6039 52.3061H47.306C47.2194 52.3714 47.1232 52.4286 47.0366 52.4939ZM39.0978 52.6898L38.9534 52.8776H44.8618L45.0446 52.6898H39.0978ZM46.5554 52.8776H60.0466L59.9022 52.6898H46.7768C46.6998 52.7551 46.6324 52.8122 46.5554 52.8776ZM38.7995 53.0735L38.6551 53.2612H44.4865L44.6694 53.0735H38.7995ZM46.1609 53.2612H60.3449L60.2005 53.0735H46.3437C46.3149 53.1061 46.286 53.1306 46.2571 53.1633L46.1609 53.2612ZM38.5012 53.4571L38.3568 53.6449H44.1112L44.2941 53.4571H38.5012ZM45.7856 53.6449H60.6528L60.5085 53.4571H45.9781L45.7856 53.6449ZM38.2028 53.8408L38.0585 54.0286H43.736L43.9188 53.8408H38.2028ZM45.4007 54.0204H60.9415L60.7972 53.8327H45.5835L45.4007 54.0204ZM37.9045 54.2163L37.7602 54.4041H43.351L43.5339 54.2163H37.9045ZM45.0254 54.4041H61.2398L61.0955 54.2163H45.2082L45.0254 54.4041ZM37.6062 54.6L37.4619 54.7878H42.9758L43.1586 54.6H37.6062ZM44.6501 54.7878H61.5381L61.3938 54.6H44.8329L44.6501 54.7878ZM55.9954 47.3102C55.9858 47.3265 55.9665 47.351 55.9569 47.3673C55.7163 47.702 55.3891 47.9633 55.0042 48.1265C54.6193 48.2898 54.1767 48.3633 53.7244 48.3306L50.0774 48.0449C47.6428 47.849 45.4103 48.3469 43.428 49.302C41.5035 50.2327 39.8099 51.6041 38.3857 53.2204L37 54.9918H42.9854L45.4007 52.551C46.132 51.8082 47.0077 51.2449 47.9892 50.8857C48.9611 50.5265 50.0389 50.3551 51.184 50.4041L56.4765 50.6082C56.6978 50.6163 56.9095 50.5755 57.0924 50.4939C57.2752 50.4122 57.4196 50.2816 57.535 50.1184C57.6409 49.9551 57.6986 49.7755 57.689 49.6041C57.689 49.5469 57.6794 49.4898 57.6601 49.4327L55.9954 47.3102ZM58.4203 50.4122L62 55H44.2267L46.132 53.0735C46.7768 52.4286 47.5273 51.9388 48.3741 51.6286C49.2209 51.3184 50.1543 51.1714 51.1455 51.2122L56.438 51.4163C56.8422 51.4327 57.2175 51.3592 57.5543 51.2041C57.8814 51.049 58.1701 50.8122 58.3626 50.5184C58.3722 50.4776 58.4011 50.4449 58.4203 50.4122Z" fill="#A09EA5"/>
<path d="M83 56H85V60H83V56Z" fill="#A09EA5"/>
<path d="M83 44H85V52H83V44Z" fill="#A09EA5"/>
<path d="M15 48H17V56H15V48Z" fill="#A09EA5"/>
<path d="M15 40H17V44H15V40Z" fill="#A09EA5"/>
<path d="M95.1619 71.0001H84.9999V64.0001H82.9999V73.0001H90.8379L75.9999 90.4561L61.1619 73.0001H67.9999V71.0001H63.5389C68.7346 67.6579 72.5081 62.5097 74.1312 56.549C75.7543 50.5882 75.1119 44.2375 72.3279 38.7226C69.544 33.2077 64.8159 28.9194 59.0561 26.6855C53.2964 24.4516 46.9133 24.4305 41.1389 26.6261L23.9999 6.45605L4.83789 29.0001H14.9999V36.0001H16.9999V27.0001H9.16189L23.9999 9.54405L38.8379 27.0001H31.9999V29.0001H36.4609C31.2652 32.3422 27.4917 37.4904 25.8686 43.4512C24.2455 49.4119 24.8879 55.7626 27.6719 61.2775C30.4558 66.7924 35.1839 71.0807 40.9437 73.3146C46.7034 75.5485 53.0864 75.5697 58.8609 73.3741L75.9999 93.5441L95.1619 71.0001ZM26.9999 50.0001C26.9999 45.4511 28.3488 41.0043 30.8761 37.2219C33.4034 33.4396 36.9955 30.4916 41.1982 28.7508C45.4009 27.01 50.0254 26.5545 54.487 27.442C58.9485 28.3295 63.0467 30.52 66.2633 33.7366C69.48 36.9532 71.6705 41.0514 72.558 45.513C73.4454 49.9745 72.9899 54.5991 71.2491 58.8018C69.5083 63.0045 66.5603 66.5966 62.778 69.1239C58.9957 71.6511 54.5489 73.0001 49.9999 73.0001C43.902 72.9932 38.0559 70.5678 33.744 66.2559C29.4322 61.9441 27.0068 56.0979 26.9999 50.0001Z" fill="#A09EA5"/>
</g>
<defs>
<clipPath id="clip0_24_1924">
<rect width="100" height="100" fill="white"/>
</clipPath>
</defs>
</svg>
