<svg width="100" height="100" viewBox="0 0 100 100" fill="none" xmlns="http://www.w3.org/2000/svg">
<g clip-path="url(#clip0_24_1778)">
<path d="M49.9995 62C56.6269 62 61.9995 56.6274 61.9995 50C61.9995 43.3726 56.6269 38 49.9995 38C43.3721 38 37.9995 43.3726 37.9995 50C37.9995 56.6274 43.3721 62 49.9995 62Z" fill="#413D4A"/>
<path d="M49.9995 24C54.4178 24 57.9995 20.4183 57.9995 16C57.9995 11.5817 54.4178 8 49.9995 8C45.5812 8 41.9995 11.5817 41.9995 16C41.9995 20.4183 45.5812 24 49.9995 24Z" fill="#413D4A"/>
<path d="M49.9995 92C54.4178 92 57.9995 88.4183 57.9995 84C57.9995 79.5817 54.4178 76 49.9995 76C45.5812 76 41.9995 79.5817 41.9995 84C41.9995 88.4183 45.5812 92 49.9995 92Z" fill="#413D4A"/>
<path d="M20.5547 41C24.973 41 28.5547 37.4183 28.5547 33C28.5547 28.5817 24.973 25 20.5547 25C16.1364 25 12.5547 28.5817 12.5547 33C12.5547 37.4183 16.1364 41 20.5547 41Z" fill="#413D4A"/>
<path d="M79.4448 75C83.8631 75 87.4448 71.4183 87.4448 67C87.4448 62.5817 83.8631 59 79.4448 59C75.0265 59 71.4448 62.5817 71.4448 67C71.4448 71.4183 75.0265 75 79.4448 75Z" fill="#413D4A"/>
<path d="M20.5547 75C24.973 75 28.5547 71.4183 28.5547 67C28.5547 62.5817 24.973 59 20.5547 59C16.1364 59 12.5547 62.5817 12.5547 67C12.5547 71.4183 16.1364 75 20.5547 75Z" fill="#413D4A"/>
<path d="M79.4448 41C83.8631 41 87.4448 37.4183 87.4448 33C87.4448 28.5817 83.8631 25 79.4448 25C75.0265 25 71.4448 28.5817 71.4448 33C71.4448 37.4183 75.0265 41 79.4448 41Z" fill="#413D4A"/>
<path d="M83.9449 59.206C82.8695 58.5882 81.6778 58.1997 80.4449 58.065V48H78.4449V58.066C77.2139 58.206 76.0249 58.5979 74.9519 59.2172C73.8789 59.8366 72.9449 60.6701 72.2079 61.666L61.7079 55.605C62.5562 53.858 62.9969 51.9412 62.9969 49.999C62.9969 48.0569 62.5562 46.1401 61.7079 44.393L72.2079 38.332C72.9448 39.3278 73.8786 40.1613 74.9515 40.7806C76.0243 41.4 77.2131 41.7919 78.4439 41.932V44H80.4439V41.936C81.9307 41.7714 83.3531 41.2388 84.5824 40.3863C85.8116 39.5339 86.809 38.3885 87.4843 37.0536C88.1596 35.7188 88.4916 34.2367 88.4502 32.7414C88.4087 31.2461 87.9952 29.7846 87.247 28.4893C86.4988 27.1939 85.4395 26.1054 84.165 25.3224C82.8904 24.5393 81.4407 24.0862 79.947 24.0042C78.4534 23.9222 76.9628 24.2138 75.6102 24.8526C74.2575 25.4915 73.0854 26.4574 72.1999 27.663L58.2419 19.6C58.8427 18.2302 59.0927 16.7323 58.9692 15.2416C58.8456 13.7509 58.3525 12.3145 57.5344 11.0623C56.7163 9.81007 55.5989 8.7815 54.2834 8.06959C52.9679 7.35767 51.4957 6.98486 49.9999 6.98486C48.5041 6.98486 47.0319 7.35767 45.7164 8.06959C44.4009 8.7815 43.2836 9.81007 42.4654 11.0623C41.6473 12.3145 41.1542 13.7509 41.0307 15.2416C40.9071 16.7323 41.1571 18.2302 41.7579 19.6L27.7999 27.663C26.9144 26.4574 25.7423 25.4915 24.3896 24.8526C23.037 24.2138 21.5464 23.9222 20.0528 24.0042C18.5591 24.0862 17.1094 24.5393 15.8349 25.3224C14.5603 26.1054 13.501 27.1939 12.7528 28.4893C12.0046 29.7846 11.5911 31.2461 11.5497 32.7414C11.5082 34.2367 11.8402 35.7188 12.5155 37.0536C13.1908 38.3885 14.1882 39.5339 15.4175 40.3863C16.6467 41.2388 18.0691 41.7714 19.5559 41.936V52H21.5559V41.934C22.7868 41.7938 23.9757 41.4018 25.0487 40.7825C26.1217 40.1632 27.0558 39.3298 27.7929 38.334L38.2929 44.394C37.4446 46.1415 37.0039 48.0586 37.0039 50.001C37.0039 51.9435 37.4446 53.8606 38.2929 55.608L27.7929 61.668C27.056 60.6721 26.1219 59.8386 25.0489 59.2192C23.9759 58.5999 22.7869 58.208 21.5559 58.068V56H19.5559V58.065C18.069 58.2295 16.6465 58.7621 15.4171 59.6145C14.1877 60.4669 13.1902 61.6124 12.5148 62.9473C11.8394 64.2821 11.5074 65.7643 11.5489 67.2598C11.5903 68.7552 12.0039 70.2167 12.7521 71.5121C13.5004 72.8076 14.5598 73.896 15.8345 74.6791C17.1092 75.4621 18.559 75.9151 20.0528 75.997C21.5465 76.0789 23.0372 75.7871 24.3898 75.1481C25.7425 74.509 26.9145 73.5429 27.7999 72.337L41.7579 80.4C41.1571 81.7698 40.9071 83.2678 41.0307 84.7585C41.1542 86.2492 41.6473 87.6856 42.4654 88.9378C43.2836 90.19 44.4009 91.2186 45.7164 91.9305C47.0319 92.6424 48.5041 93.0152 49.9999 93.0152C51.4957 93.0152 52.9679 92.6424 54.2834 91.9305C55.5989 91.2186 56.7163 90.19 57.5344 88.9378C58.3525 87.6856 58.8456 86.2492 58.9692 84.7585C59.0927 83.2678 58.8427 81.7698 58.2419 80.4L72.1999 72.337C72.9933 73.4151 74.0172 74.3026 75.197 74.9349C76.3768 75.5671 77.6828 75.9283 79.0198 75.9921C80.3569 76.0558 81.6913 75.8205 82.9259 75.3033C84.1604 74.7861 85.2641 74 86.1565 73.0023C87.0489 72.0047 87.7075 70.8205 88.0843 69.5361C88.4612 68.2517 88.5468 66.8994 88.3349 65.5777C88.123 64.256 87.619 62.9983 86.8596 61.896C86.1002 60.7938 85.1044 59.8748 83.9449 59.206ZM49.9999 61C47.8243 61 45.6976 60.3549 43.8886 59.1462C42.0797 57.9375 40.6698 56.2195 39.8372 54.2095C39.0047 52.1996 38.7868 49.9878 39.2113 47.854C39.6357 45.7202 40.6834 43.7602 42.2217 42.2219C43.7601 40.6835 45.7201 39.6358 47.8539 39.2114C49.9877 38.787 52.1994 39.0048 54.2094 39.8374C56.2194 40.6699 57.9374 42.0798 59.1461 43.8888C60.3548 45.6977 60.9999 47.8244 60.9999 50C60.9965 52.9164 59.8364 55.7123 57.7743 57.7744C55.7121 59.8366 52.9162 60.9966 49.9999 61ZM75.9449 26.938C77.3474 26.1282 78.9873 25.8297 80.5852 26.0934C82.1831 26.3571 83.6401 27.1667 84.708 28.3843C85.7759 29.6019 86.3885 31.152 86.4416 32.7707C86.4946 34.3893 85.9848 35.9763 84.9989 37.2612C84.013 38.546 82.6121 39.4493 81.0349 39.8171C79.4577 40.1849 77.8018 39.9944 76.3493 39.2781C74.8968 38.5618 73.7376 37.364 73.0692 35.8888C72.4009 34.4136 72.2647 32.7524 72.6839 31.188C72.9211 30.2999 73.3313 29.4673 73.8909 28.738C74.4504 28.0087 75.1485 27.3971 75.9449 26.938ZM49.9999 9.00003C51.3844 9.00003 52.7378 9.41057 53.8889 10.1797C55.04 10.9489 55.9373 12.0422 56.4671 13.3212C56.9969 14.6003 57.1355 16.0078 56.8654 17.3657C56.5953 18.7235 55.9286 19.9708 54.9497 20.9498C53.9707 21.9287 52.7234 22.5954 51.3655 22.8655C50.0077 23.1356 48.6002 22.997 47.3211 22.4672C46.042 21.9374 44.9488 21.0402 44.1796 19.889C43.4105 18.7379 42.9999 17.3845 42.9999 16C43.002 14.1442 43.7402 12.3649 45.0525 11.0526C46.3648 9.74033 48.144 9.00215 49.9999 9.00003ZM26.6169 36.5C25.9246 37.6988 24.8924 38.6654 23.6508 39.2776C22.4093 39.8898 21.014 40.1201 19.6415 39.9395C18.2691 39.7588 16.981 39.1752 15.9401 38.2626C14.8993 37.3499 14.1524 36.1491 13.7939 34.812C13.5535 33.9243 13.4915 32.9977 13.6117 32.0859C13.7318 31.1741 14.0317 30.2952 14.4939 29.5C15.4222 27.8923 16.9511 26.7192 18.7443 26.2387C20.5375 25.7583 22.4482 26.0098 24.0559 26.938C25.6635 27.8665 26.8364 29.3955 27.3166 31.1887C27.7969 32.9819 27.5452 34.8924 26.6169 36.5ZM28.7979 36.6C29.6219 34.7317 29.7811 32.6375 29.2489 30.666C29.1285 30.2317 28.976 29.8069 28.7929 29.395L42.7659 21.327C43.4997 22.3267 44.4322 23.1638 45.5051 23.7858C46.5779 24.4077 47.7678 24.8011 48.9999 24.941V28H50.9999V24.941C52.2317 24.8015 53.4214 24.4088 54.4942 23.7876C55.567 23.1664 56.4998 22.33 57.2339 21.331L71.2069 29.4C71.0239 29.8123 70.8715 30.2374 70.7509 30.672C70.2195 32.6414 70.378 34.7332 71.1999 36.6L60.7179 42.657C59.6195 41.0563 58.1764 39.7218 56.4948 38.7517C54.8131 37.7817 52.9355 37.2005 50.9999 37.051V32H48.9999V37.051C47.0643 37.2005 45.1867 37.7817 43.505 38.7517C41.8234 39.7218 40.3804 41.0563 39.2819 42.657L28.7979 36.6ZM24.0549 73.062C22.6524 73.8719 21.0125 74.1704 19.4146 73.9067C17.8167 73.643 16.3597 72.8333 15.2918 71.6158C14.2239 70.3982 13.6113 68.848 13.5582 67.2294C13.5052 65.6107 14.015 64.0238 15.0009 62.7389C15.9868 61.454 17.3877 60.5507 18.9649 60.183C20.5421 59.8152 22.198 60.0057 23.6505 60.722C25.103 61.4383 26.2622 62.6361 26.9306 64.1113C27.5989 65.5864 27.7351 67.2477 27.3159 68.812C27.0785 69.7001 26.6683 70.5325 26.1087 71.2618C25.5491 71.9911 24.8512 72.6028 24.0549 73.062ZM49.9999 91C48.6154 91 47.2621 90.5895 46.1109 89.8203C44.9598 89.0512 44.0626 87.9579 43.5328 86.6788C43.0029 85.3997 42.8643 83.9923 43.1344 82.6344C43.4045 81.2765 44.0712 80.0293 45.0502 79.0503C46.0291 78.0713 47.2764 77.4046 48.6343 77.1345C49.9921 76.8644 51.3996 77.0031 52.6787 77.5329C53.9578 78.0627 55.051 78.9599 55.8202 80.111C56.5894 81.2622 56.9999 82.6156 56.9999 84C56.9978 85.8559 56.2596 87.6351 54.9473 88.9474C53.635 90.2597 51.8558 90.9979 49.9999 91ZM57.2339 78.669C56.4998 77.6701 55.567 76.8337 54.4942 76.2125C53.4214 75.5912 52.2317 75.1985 50.9999 75.059V72H48.9999V75.059C47.7682 75.1985 46.5786 75.5911 45.5058 76.2122C44.433 76.8332 43.5002 77.6693 42.7659 78.668L28.7929 70.6C28.976 70.1878 29.1285 69.7627 29.2489 69.328C29.7805 67.3587 29.6221 65.2668 28.7999 63.4L39.2849 57.347C40.3835 58.9467 41.8262 60.2801 43.5073 61.2495C45.1884 62.2188 47.0651 62.7996 48.9999 62.949V68H50.9999V62.949C52.9355 62.7995 54.8131 62.2184 56.4948 61.2483C58.1764 60.2782 59.6195 58.9438 60.7179 57.343L71.1999 63.4C70.3759 65.268 70.2167 67.3619 70.7489 69.333C70.8694 69.7677 71.0218 70.1929 71.2049 70.605L57.2339 78.669ZM85.5069 70.5C84.5786 72.1077 83.0497 73.2809 81.2565 73.7613C79.4633 74.2418 77.5527 73.9902 75.9449 73.062C74.3372 72.1337 73.1641 70.6048 72.6836 68.8116C72.2032 67.0184 72.4547 65.1078 73.3829 63.5C74.3178 61.9054 75.8454 60.7452 77.6325 60.2728C79.4195 59.8003 81.321 60.0539 82.9218 60.9781C84.5226 61.9024 85.6928 63.4223 86.1771 65.2062C86.6615 66.9901 86.4205 68.8931 85.5069 70.5Z" fill="#A09EA5"/>
</g>
<defs>
<clipPath id="clip0_24_1778">
<rect width="100" height="100" fill="white"/>
</clipPath>
</defs>
</svg>
