<?xml version="1.0" encoding="utf-8"?>
<!-- Generator: Adobe Illustrator 24.0.1, SVG Export Plug-In . SVG Version: 6.00 Build 0)  -->
<svg version="1.1" id="Layer_1" xmlns="http://www.w3.org/2000/svg" xmlns:xlink="http://www.w3.org/1999/xlink" x="0px" y="0px"
	 viewBox="0 0 49 60" style="enable-background:new 0 0 49 60;" xml:space="preserve">
<style type="text/css">
	.st0{fill-rule:evenodd;clip-rule:evenodd;fill:#FFFFFF;}
</style>
<g>
	<path class="st0" d="M24.5,9.1l9.7,14.6c0,0.3-0.1,0.7-0.3,1c-0.2,0.4-0.6,0.7-0.9,0.9c-0.4,0.2-0.8,0.3-1.3,0.2l-6.1-0.6
		c-4.4-0.4-8.4,0.6-12,2.7c-1,0.6-2,1.2-2.9,1.9L24.5,9.1L24.5,9.1z M24.5,9.8l-0.2,0.3h0.4L24.5,9.8L24.5,9.8z M24.1,10.5l-0.2,0.4
		h1.4l-0.2-0.4H24.1L24.1,10.5z M23.6,11.2l-0.2,0.4h2.4l-0.2-0.4H23.6L23.6,11.2z M23.1,12l-0.2,0.4h3.4L25.9,12H23.1L23.1,12z
		 M22.6,12.7l-0.2,0.4h4.3l-0.2-0.4H22.6L22.6,12.7z M22.1,13.5l-0.2,0.4h5.3l-0.2-0.4H22.1L22.1,13.5z M21.6,14.2l-0.2,0.4h6.3
		l-0.2-0.4H21.6L21.6,14.2z M21.1,15l-0.2,0.4h7.3L27.9,15H21.1L21.1,15z M20.6,15.7l-0.2,0.4h8.3l-0.2-0.4H20.6L20.6,15.7z
		 M20.1,16.5l-0.2,0.4h9.3l-0.2-0.4H20.1L20.1,16.5z M19.6,17.2l-0.2,0.4h10.3l-0.2-0.4H19.6L19.6,17.2z M19.1,18l-0.2,0.4h11.3
		L29.9,18H19.1L19.1,18z M18.6,18.7l-0.2,0.4h12.3l-0.2-0.4H18.6L18.6,18.7z M18.1,19.5l-0.2,0.4h13.3l-0.2-0.4H18.1L18.1,19.5z
		 M17.6,20.2l-0.2,0.4h14.3l-0.2-0.4H17.6L17.6,20.2z M17.1,20.9l-0.2,0.4h15.3l-0.2-0.4H17.1L17.1,20.9z M16.6,21.7l-0.2,0.4h16.2
		l-0.2-0.4H16.6L16.6,21.7z M16.1,22.4l-0.2,0.4h17.2l-0.2-0.4H16.1L16.1,22.4z M15.6,23.2l-0.2,0.4h18.2l-0.2-0.4H15.6L15.6,23.2z
		 M15.1,23.9l-0.2,0.4h18.9c0.1-0.1,0.1-0.2,0.1-0.3l0,0H15.1L15.1,23.9z M14.6,24.7l-0.2,0.4H21c1.5-0.2,3.1-0.2,4.6-0.1l1.1,0.1
		h6.5c0.1-0.1,0.2-0.2,0.3-0.4H14.6L14.6,24.7z M14.1,25.4l-0.2,0.4h3.8c0.4-0.1,0.9-0.3,1.3-0.4H14.1L14.1,25.4z M32.5,25.4h-1.6
		l0.8,0.1C32,25.5,32.2,25.5,32.5,25.4L32.5,25.4z M13.6,26.2l-0.2,0.4h2.3c0.3-0.1,0.6-0.2,0.9-0.4H13.6L13.6,26.2z M34.7,26.5h0.9
		l-0.2-0.4h-0.3C35,26.3,34.8,26.4,34.7,26.5L34.7,26.5z M13.1,26.9l-0.2,0.4h1.2c0.2-0.1,0.5-0.2,0.7-0.4H13.1L13.1,26.9z
		 M20.5,27.3h7.4l-2.4-0.2C23.7,26.9,22.1,27,20.5,27.3L20.5,27.3z M33.6,27.3h2.5l-0.2-0.4h-1.6c-0.1,0.1-0.3,0.2-0.5,0.3
		C33.7,27.2,33.7,27.3,33.6,27.3L33.6,27.3z M12.6,27.7L12.4,28h0.4c0.2-0.1,0.4-0.2,0.6-0.4H12.6L12.6,27.7z M17.7,28h18.9
		l-0.2-0.4H18.8C18.5,27.8,18.1,27.9,17.7,28L17.7,28z M12.2,28.4L12.2,28.4L12.2,28.4L12.2,28.4L12.2,28.4z M15.9,28.8h21.2
		l-0.2-0.4H16.7C16.4,28.5,16.2,28.7,15.9,28.8L15.9,28.8z M14.5,29.5h23.1l-0.2-0.4H15.1C14.9,29.3,14.7,29.4,14.5,29.5L14.5,29.5
		L14.5,29.5z M13.3,30.3h24.5c0-0.1,0-0.2,0-0.4h-24C13.6,30,13.4,30.2,13.3,30.3L13.3,30.3z M12.2,31h25.2c0.1-0.1,0.2-0.2,0.2-0.3
		l0,0H12.7C12.5,30.8,12.4,30.9,12.2,31L12.2,31z M11.2,31.8h11.5c0.4-0.1,0.8-0.3,1.3-0.4H11.7C11.5,31.5,11.4,31.7,11.2,31.8
		L11.2,31.8z M36.9,31.4h-3.6l2.8,0.1C36.4,31.6,36.6,31.5,36.9,31.4L36.9,31.4z M10.4,32.5H21c0.2-0.1,0.5-0.3,0.7-0.4h-11
		C10.6,32.3,10.5,32.4,10.4,32.5L10.4,32.5z M38.9,32.5h0.7l-0.2-0.4h-0.1C39.1,32.3,39,32.4,38.9,32.5L38.9,32.5z M9.6,33.3h10.2
		c0.2-0.1,0.4-0.2,0.5-0.4H9.9C9.8,33,9.7,33.2,9.6,33.3L9.6,33.3z M26,33.3h1.3l-0.2,0C26.8,33.3,26.4,33.3,26,33.3L26,33.3z
		 M37.9,33.3h2.2l-0.2-0.4h-1.3c-0.1,0.1-0.3,0.2-0.5,0.3C38,33.2,37.9,33.3,37.9,33.3L37.9,33.3z M8.8,34h10
		c0.1-0.1,0.3-0.2,0.4-0.4H9.2C9.1,33.8,8.9,33.9,8.8,34L8.8,34z M22.8,34h17.7l-0.2-0.4h-3.7c-0.2,0-0.4,0-0.6,0l-0.3,0H23.8
		C23.5,33.8,23.1,33.9,22.8,34L22.8,34z M8.1,34.8h9.9c0.1-0.1,0.2-0.2,0.4-0.4h-10C8.4,34.5,8.2,34.7,8.1,34.8L8.1,34.8z
		 M21.4,34.8h19.6l-0.2-0.4H22C21.8,34.5,21.6,34.7,21.4,34.8L21.4,34.8z M7.5,35.5h9.9l0.1-0.1c0.1-0.1,0.2-0.2,0.3-0.3H7.8
		C7.7,35.3,7.6,35.4,7.5,35.5L7.5,35.5z M20.4,35.5h21.2l-0.2-0.4H20.9C20.7,35.3,20.5,35.4,20.4,35.5L20.4,35.5z M7.2,35.9L7,36.3
		h9.8l0.3-0.4H7.2L7.2,35.9z M19.6,36.3H42l-0.2-0.4H20C19.8,36,19.7,36.2,19.6,36.3L19.6,36.3z M6.7,36.7L6.5,37h9.7l0.3-0.4H6.7
		L6.7,36.7z M18.9,37h23.6l-0.2-0.4H19.2c-0.1,0.1-0.1,0.1-0.2,0.2L18.9,37L18.9,37z M6.2,37.4L6,37.8h9.6l0.3-0.4H6.2L6.2,37.4z
		 M18.3,37.8H43l-0.2-0.4H18.6L18.3,37.8L18.3,37.8z M5.7,38.2l-0.2,0.4h9.4l0.3-0.4H5.7L5.7,38.2z M17.7,38.5h25.9l-0.2-0.4H18
		L17.7,38.5L17.7,38.5z M5.2,38.9L5,39.3h9.3l0.3-0.4H5.2L5.2,38.9z M17.1,39.3h27l-0.2-0.4H17.4L17.1,39.3L17.1,39.3z M4.7,39.7
		L4.5,40h9.2l0.3-0.4H4.7L4.7,39.7z M16.4,40h28.1l-0.2-0.4H16.7L16.4,40L16.4,40z M35.3,25.4c0,0,0,0.1-0.1,0.1
		c-0.4,0.7-0.9,1.2-1.6,1.5c-0.6,0.3-1.4,0.5-2.1,0.4l-6.1-0.6c-4.1-0.4-7.8,0.6-11.1,2.5c-3.2,1.8-6,4.5-8.4,7.7l-2.3,3.5h10l4-4.8
		c1.2-1.5,2.7-2.6,4.3-3.3c1.6-0.7,3.4-1,5.3-0.9l8.8,0.4c0.4,0,0.7-0.1,1-0.2c0.3-0.2,0.6-0.4,0.7-0.7c0.2-0.3,0.3-0.7,0.3-1
		c0-0.1,0-0.2,0-0.3L35.3,25.4L35.3,25.4z M39.3,31.4l6,9H15.7l3.2-3.8c1.1-1.3,2.3-2.2,3.7-2.8c1.4-0.6,3-0.9,4.6-0.8l8.8,0.4
		c0.7,0,1.3-0.1,1.9-0.4c0.6-0.3,1-0.8,1.3-1.3C39.3,31.6,39.3,31.5,39.3,31.4z"/>
	<path class="st0" d="M9.8,48.9c0,0.6-0.2,1-0.5,1.4c-0.4,0.4-0.8,0.6-1.4,0.6H2.2v-1.5h5.7c0.2,0,0.3-0.2,0.3-0.5
		c0-0.3-0.1-0.5-0.3-0.5H3.8c-0.5,0-1-0.2-1.4-0.6c-0.3-0.4-0.5-0.9-0.5-1.4c0-0.6,0.2-1,0.5-1.4c0.4-0.4,0.8-0.6,1.4-0.6h5.7v1.5
		H3.8c-0.2,0-0.3,0.2-0.3,0.5c0,0.3,0.1,0.5,0.3,0.5h4.2c0.6,0,1,0.2,1.4,0.6C9.6,47.9,9.8,48.3,9.8,48.9L9.8,48.9z M42.6,45.7
		c0.9,1.8,1.8,3.5,2.7,5.3h1.8c-1.2-2.2-2.3-4.4-3.5-6.6h-1h-0.2h-1c-1.2,2.2-2.3,4.4-3.5,6.6h1.8C40.7,49.2,41.7,47.4,42.6,45.7
		L42.6,45.7z M37.2,50.9h-2.1l-1.9-2.2H31v2.2h-1.5v-6.6h6.4c0.6,0,1.1,0.2,1.4,0.7c0.3,0.4,0.5,0.9,0.5,1.5c0,0.6-0.2,1.1-0.5,1.5
		c-0.3,0.5-0.8,0.7-1.4,0.7h-0.6L37.2,50.9L37.2,50.9z M31.8,47.2h2.5h1.5c0.3,0,0.4-0.2,0.4-0.7c0-0.5-0.1-0.7-0.4-0.7H31v1.4H31.8
		L31.8,47.2z M24.9,49.6v1.4h-1.5v-1.4H24.9L24.9,49.6z M25.2,48.1H23c-1.1-1.3-2.3-2.5-3.4-3.8h2.1l2.3,2.6l2.3-2.6h2.1
		C27.4,45.6,26.3,46.8,25.2,48.1L25.2,48.1z M18.7,50.9h-2.1L14,48.4h-1.6v2.5h-1.5v-6.6h1.5v2.5H14l2.4-2.5h2.1l-3.2,3.3L18.7,50.9
		z"/>
</g>
</svg>
