<svg width="100" height="100" viewBox="0 0 100 100" fill="none" xmlns="http://www.w3.org/2000/svg">
<g clip-path="url(#clip0_24_1759)">
<path d="M45 18H55V27H45V18Z" fill="#413D4A"/>
<path d="M14 66H20V76H14V66Z" fill="#413D4A"/>
<path d="M80 66H86V76H80V66Z" fill="#413D4A"/>
<path d="M47 66H53V76H47V66Z" fill="#413D4A"/>
<path fill-rule="evenodd" clip-rule="evenodd" d="M50.5 32L55.8737 38.5357C55.856 38.6786 55.7941 38.8286 55.6878 38.9643C55.555 39.1429 55.378 39.2786 55.1655 39.3643C54.953 39.45 54.714 39.4857 54.4573 39.4714L51.102 39.2214C48.6674 39.0357 46.4453 39.5071 44.4711 40.4071C43.9222 40.6571 43.3911 40.95 42.8865 41.2643L50.5 32ZM50.5 32.3357L50.3938 32.4643H50.5974L50.5 32.3357ZM50.2521 32.6286L50.1193 32.7929H50.8718L50.739 32.6286H50.2521ZM49.9777 32.9643L49.8449 33.1286H51.1463L51.0135 32.9643H49.9777ZM49.7032 33.3L49.5704 33.4643H51.4207L51.2879 33.3H49.7032ZM49.4288 33.6357L49.296 33.8H51.6951L51.5624 33.6357H49.4288ZM49.1543 33.9643L49.0216 34.1286H51.9696L51.8368 33.9643H49.1543ZM48.8799 34.3L48.7471 34.4643H52.244L52.1112 34.3H48.8799ZM48.6055 34.6357L48.4727 34.8H52.5185L52.3857 34.6357H48.6055ZM48.331 34.9714L48.1982 35.1286H52.8018L52.669 34.9643H48.331V34.9714ZM48.0566 35.3L47.9238 35.4643H53.0674L52.9346 35.3H48.0566ZM47.7821 35.6357L47.6493 35.8H53.3418L53.209 35.6357H47.7821ZM47.5166 35.9714L47.3838 36.1357H53.6251L53.4923 35.9714H47.5166ZM47.2421 36.3L47.1093 36.4643H53.8995L53.7667 36.3H47.2421ZM46.9677 36.6357L46.8349 36.8H54.174L54.0412 36.6357H46.9677ZM46.6932 36.9714L46.5604 37.1357H54.4484L54.3156 36.9714H46.6932ZM46.4188 37.3071L46.286 37.4714H54.7229L54.5901 37.3071H46.4188ZM46.1443 37.6357L46.0115 37.8H54.9973L54.8645 37.6357H46.1443ZM45.8699 37.9714L45.7371 38.1357H55.2717L55.139 37.9714H45.8699ZM45.5955 38.3071L45.4627 38.4714H55.5462L55.4134 38.3071H45.5955ZM45.321 38.6429L45.1882 38.8071H55.6259C55.6524 38.7571 55.679 38.7071 55.6967 38.65L55.6878 38.6429H45.321ZM45.0466 38.9714L44.9138 39.1357H48.5789C49.4111 39.0429 50.2698 39.0286 51.1286 39.0929L51.7306 39.1357H55.3249C55.3957 39.0857 55.4577 39.0357 55.5108 38.9714H45.0466ZM44.7721 39.3071L44.6393 39.4714H46.7375C46.9765 39.4143 47.2156 39.3571 47.4546 39.3071H44.7721ZM54.9265 39.3071H54.0146L54.475 39.3429C54.6255 39.3571 54.776 39.3429 54.9265 39.3071ZM44.4977 39.6429L44.3649 39.8071H45.6309C45.7991 39.75 45.9584 39.6929 46.1266 39.6429H44.4977ZM56.157 39.8H56.644L56.5112 39.6357H56.343C56.281 39.7 56.219 39.75 56.157 39.8ZM44.2232 39.9786L44.0905 40.1429H44.7633C44.8961 40.0857 45.0289 40.0357 45.1617 39.9786H44.2232ZM48.2779 40.1357H52.3591L51.0135 40.0357C50.0839 39.9643 49.1632 40 48.2779 40.1357ZM55.5285 40.1357H56.9095L56.7768 39.9714H55.8826C55.8029 40.0143 55.7144 40.0571 55.6259 40.0929C55.5993 40.1143 55.5639 40.1286 55.5285 40.1357ZM43.9488 40.3071L43.816 40.4714H44.0373C44.1524 40.4143 44.2587 40.3643 44.3737 40.3071H43.9488ZM46.7375 40.4714H57.184L57.0512 40.3071H47.3661C47.1536 40.3571 46.95 40.4143 46.7375 40.4714ZM43.6744 40.6429L43.6567 40.6714L43.7098 40.6429H43.6744ZM45.7371 40.8071H57.4584L57.3256 40.6429H46.1886C46.0381 40.6929 45.8876 40.75 45.7371 40.8071ZM44.9492 41.1357H57.7329L57.6001 40.9714H45.3122C45.2059 41.0214 45.0908 41.0643 44.9846 41.1143L44.9492 41.1357ZM44.2764 41.4714H57.848C57.8657 41.4214 57.8745 41.3643 57.8745 41.3071H44.5951C44.4888 41.3643 44.3826 41.4143 44.2764 41.4714ZM43.6921 41.8071H57.6266C57.6709 41.7643 57.7152 41.7143 57.7506 41.6643L57.7683 41.6429H43.9665C43.878 41.7 43.7806 41.75 43.6921 41.8071ZM43.1609 42.1429H49.5085C49.7386 42.0786 49.9777 42.0214 50.2167 41.9786H43.4176C43.3291 42.0286 43.2494 42.0857 43.1609 42.1429ZM57.3345 41.9786H55.3691L56.9273 42.0357C57.06 42.0429 57.2017 42.0214 57.3345 41.9786ZM42.6828 42.4714H48.5701C48.7028 42.4143 48.8356 42.3571 48.9773 42.3071H42.913C42.8333 42.3643 42.7625 42.4214 42.6828 42.4714ZM58.4677 42.4714H58.8306L58.6978 42.3071H58.6359C58.5828 42.3714 58.5296 42.4214 58.4677 42.4714ZM42.2402 42.8071H47.9061C48.0035 42.75 48.1008 42.7 48.2071 42.6429H42.4527C42.3818 42.7 42.311 42.75 42.2402 42.8071ZM51.3499 42.8071H52.0935H52.005C51.7837 42.7929 51.5624 42.8 51.3499 42.8071ZM57.9188 42.8071H59.1139L58.9811 42.6429H58.2375C58.1578 42.6929 58.0693 42.7429 57.9808 42.7786C57.9542 42.7929 57.9365 42.8 57.9188 42.8071ZM41.8329 43.1429H47.3838C47.4634 43.0857 47.5431 43.0357 47.6228 42.9786H42.0277C41.9657 43.0357 41.8949 43.0857 41.8329 43.1429ZM49.5704 43.1429H59.3795L59.2467 42.9786H57.184C57.0778 42.9857 56.9715 42.9857 56.8653 42.9857L56.6882 42.9786H50.1282C49.9423 43.0214 49.7564 43.0786 49.5704 43.1429ZM41.4523 43.4786H46.95C47.0119 43.4214 47.0828 43.3714 47.1536 43.3143H41.6293C41.5762 43.3643 41.5142 43.4214 41.4523 43.4786ZM48.7914 43.4786H59.654L59.5212 43.3143H49.1278C49.0127 43.3643 48.8976 43.4214 48.7914 43.4786ZM41.0893 43.8071H46.5781L46.6047 43.7786C46.649 43.7357 46.7021 43.6857 46.7463 43.6429H41.2575C41.2044 43.7 41.1513 43.7571 41.0893 43.8071ZM48.2336 43.8071H59.9284L59.7956 43.6429H48.4815C48.4018 43.7 48.3133 43.75 48.2336 43.8071ZM40.9299 43.9786L40.7972 44.1429H46.2329L46.4011 43.9786H40.9299ZM47.791 44.1429H60.2028L60.0701 43.9786H47.9946C47.9238 44.0357 47.8618 44.0857 47.791 44.1429ZM40.6555 44.3143L40.5227 44.4786H45.8876L46.0558 44.3143H40.6555ZM47.428 44.4786H60.4773L60.3445 44.3143H47.5962C47.5697 44.3429 47.5431 44.3643 47.5166 44.3929L47.428 44.4786ZM40.3811 44.65L40.2483 44.8143H45.5423L45.7105 44.65H40.3811ZM47.0828 44.8143H60.7606L60.6278 44.65H47.2598L47.0828 44.8143ZM40.1066 44.9857L39.9738 45.15H45.1971L45.3653 44.9857H40.1066ZM46.7286 45.1429H61.0262L60.8934 44.9786H46.8968L46.7286 45.1429ZM39.8322 45.3143L39.6994 45.4786H44.843L45.0112 45.3143H39.8322ZM46.3834 45.4786H61.3006L61.1678 45.3143H46.5516L46.3834 45.4786ZM39.5577 45.65L39.4249 45.8143H44.4977L44.6659 45.65H39.5577ZM46.0381 45.8143H61.5751L61.4423 45.65H46.2063L46.0381 45.8143ZM56.4758 39.2714C56.4669 39.2857 56.4492 39.3071 56.4403 39.3214C56.219 39.6143 55.918 39.8429 55.5639 39.9857C55.2098 40.1286 54.8025 40.1929 54.3865 40.1643L51.0312 39.9143C48.7914 39.7429 46.7375 40.1786 44.9138 41.0143C43.1432 41.8286 41.5851 43.0286 40.2748 44.4429L39 45.9929H44.5065L46.7286 43.8571C47.4015 43.2071 48.2071 42.7143 49.1101 42.4C50.0042 42.0857 50.9958 41.9357 52.0493 41.9786L56.9184 42.1571C57.122 42.1643 57.3168 42.1286 57.485 42.0571C57.6532 41.9857 57.786 41.8714 57.8922 41.7286C57.9896 41.5857 58.0427 41.4286 58.0339 41.2786C58.0339 41.2286 58.025 41.1786 58.0073 41.1286L56.4758 39.2714ZM58.7067 41.9857L62 46H45.6486L47.4015 44.3143C47.9946 43.75 48.6851 43.3214 49.4642 43.05C50.2433 42.7786 51.102 42.65 52.0139 42.6857L56.883 42.8643C57.2548 42.8786 57.6001 42.8143 57.9099 42.6786C58.2109 42.5429 58.4765 42.3357 58.6536 42.0786C58.6624 42.0429 58.689 42.0143 58.7067 41.9857Z" fill="#A09EA5"/>
<path d="M67 40H69V44H67V40Z" fill="#A09EA5"/>
<path d="M50 74C50.5523 74 51 73.5523 51 73C51 72.4477 50.5523 72 50 72C49.4477 72 49 72.4477 49 73C49 73.5523 49.4477 74 50 74Z" fill="#A09EA5"/>
<path d="M83 74C83.5523 74 84 73.5523 84 73C84 72.4477 83.5523 72 83 72C82.4477 72 82 72.4477 82 73C82 73.5523 82.4477 74 83 74Z" fill="#A09EA5"/>
<path d="M32 58H36V60H32V58Z" fill="#A09EA5"/>
<path d="M16 65H13V68H7V72H9V70H13V77H21V70H25V91H9V76H7V93H27V68H21V65H18V60H28V58H16V65ZM19 67V75H15V67H19Z" fill="#A09EA5"/>
<path d="M17 74C17.5523 74 18 73.5523 18 73C18 72.4477 17.5523 72 17 72C16.4477 72 16 72.4477 16 73C16 73.5523 16.4477 74 17 74Z" fill="#A09EA5"/>
<path d="M87 68.0002V65.0002H84V58.0002H51V53.0002H69V48.0002H67V51.0002H33V28.0002H67V36.0002H69V28.0002H73V17.0002H59.46C60.0109 16.3869 60.4294 15.6665 60.6893 14.884C60.9491 14.1016 61.0448 13.274 60.9702 12.4529C60.8957 11.6318 60.6526 10.8349 60.2561 10.1121C59.8595 9.38924 59.3182 8.75596 58.6658 8.25185C58.0134 7.74774 57.2641 7.38363 56.4646 7.18229C55.6651 6.98095 54.8326 6.94671 54.0193 7.08171C53.206 7.21671 52.4292 7.51805 51.7377 7.96688C51.0461 8.41571 50.4545 9.00238 50 9.69023C49.5463 9.00033 48.955 8.41159 48.2631 7.96092C47.5712 7.51026 46.7937 7.20737 45.9793 7.07126C45.1649 6.93516 44.3311 6.96876 43.5303 7.16996C42.7294 7.37116 41.9788 7.73562 41.3254 8.2405C40.6721 8.74539 40.13 9.3798 39.7333 10.104C39.3366 10.8281 39.0938 11.6264 39.02 12.4489C38.9463 13.2713 39.0432 14.1001 39.3048 14.8833C39.5663 15.6664 39.9869 16.3872 40.54 17.0002H27V28.0002H31V53.0002H49V58.0002H40V60.0002H49V65.0002H46V68.0002H40V84.0002H42V70.0002H46V77.0002H54V70.0002H58V91.0002H42V88.0002H40V93.0002H60V68.0002H54V65.0002H51V60.0002H82V65.0002H79V68.0002H73V80.0002H75V70.0002H79V77.0002H87V70.0002H91V91.0002H75V84.0002H73V93.0002H93V68.0002H87ZM71 19.0002V26.0002H56V19.0002H71ZM51 13.0002C51 12.2091 51.2346 11.4357 51.6741 10.7779C52.1136 10.1201 52.7384 9.60746 53.4693 9.30471C54.2002 9.00196 55.0044 8.92274 55.7804 9.07708C56.5563 9.23143 57.269 9.61239 57.8284 10.1718C58.3878 10.7312 58.7688 11.4439 58.9231 12.2199C59.0775 12.9958 58.9983 13.8001 58.6955 14.531C58.3928 15.2619 57.8801 15.8866 57.2223 16.3261C56.5645 16.7656 55.7911 17.0002 55 17.0002H51V13.0002ZM51 19.0002H54V26.0002H46V19.0002H51ZM45 9.00023C46.0609 9.00023 47.0783 9.42165 47.8284 10.1718C48.5786 10.9219 49 11.9394 49 13.0002V17.0002H45C43.9391 17.0002 42.9217 16.5788 42.1716 15.8287C41.4214 15.0785 41 14.0611 41 13.0002C41 11.9394 41.4214 10.9219 42.1716 10.1718C42.9217 9.42165 43.9391 9.00023 45 9.00023ZM29 26.0002V19.0002H44V26.0002H29ZM52 67.0002V75.0002H48V67.0002H52ZM85 75.0002H81V67.0002H85V75.0002Z" fill="#A09EA5"/>
</g>
<defs>
<clipPath id="clip0_24_1759">
<rect width="100" height="100" fill="white"/>
</clipPath>
</defs>
</svg>
