<svg width="73" height="73" viewBox="0 0 73 73" fill="none" xmlns="http://www.w3.org/2000/svg">
<g clip-path="url(#clip0_24_2004)">
<g opacity="0.999">
<path d="M34.6813 10.353V3.40001C33.5463 3.40001 32.5103 3.40001 31.4743 3.44901C31.3743 3.44901 31.1293 3.79401 31.1293 3.99101C31.0803 4.92801 31.1293 5.86401 31.1293 6.85001H27.7293V0H38.0893V6.90001H41.6413V0H45.0413V10.353H41.5883V17.353H44.9883V31.153H48.4883V27.8H51.8883V34.653H41.5883V38.548C41.5883 39.287 41.5393 40.076 41.5883 40.816C41.6373 41.408 41.3883 41.605 40.7993 41.555C39.9113 41.506 39.0723 41.555 38.0363 41.555V45.105H34.6363V48.505C33.6493 48.505 32.7123 48.554 31.8243 48.505C31.2813 48.505 31.1333 48.653 31.1333 49.195C31.1823 50.132 31.1333 51.019 31.1333 52.005H34.6853V55.456H27.7763V45.156H31.1763V41.705H34.6293V34.805H31.1763V41.605H27.7763V31.354H31.1313V27.8H27.6763V21H31.0763C31.0763 21.887 31.1253 22.775 31.0763 23.662C31.0273 24.303 31.2243 24.5 31.8653 24.451C32.8023 24.402 33.6903 24.451 34.6283 24.451V31.251H38.0283V24.4C39.0153 24.4 40.0013 24.351 40.9883 24.4C41.4323 24.4 41.5803 24.252 41.5803 23.808V21.4C41.5803 20.956 41.4323 20.808 40.9883 20.808H38.0773V10.451C36.9489 10.3208 35.8114 10.2874 34.6773 10.351L34.6813 10.353Z" fill="white"/>
<path d="M24.272 0C24.272 0.3 24.223 0.592012 24.223 0.937012V23.319C24.223 24.059 24.023 24.206 23.335 24.206C15.886 24.157 8.38705 24.206 0.935051 24.206C0.635051 24.206 0.343047 24.255 -0.00195312 24.255V0H24.272ZM20.72 3.451C20.473 3.451 20.276 3.40201 20.079 3.40201H4.09505C3.50305 3.40201 3.40405 3.60201 3.40405 4.14201V20.115C3.40405 20.315 3.45305 20.509 3.45305 20.707H20.72V3.451Z" fill="white"/>
<path d="M72.6671 24.255C72.3671 24.255 72.0751 24.206 71.7301 24.206H49.3301C48.5901 24.206 48.4421 24.006 48.4421 23.319C48.4911 15.875 48.4421 8.38101 48.4421 0.937012C48.4421 0.637012 48.3931 0.345 48.3931 0H72.6651L72.6671 24.255ZM69.2141 20.705C69.2141 20.405 69.2631 20.163 69.2631 19.916V4.19C69.2631 3.5 69.0161 3.401 68.4241 3.401H51.9471V20.701L69.2141 20.705Z" fill="white"/>
<path d="M0 48.3618C0.3 48.3618 0.592004 48.4108 0.937004 48.4108H23.383C24.123 48.4108 24.271 48.6108 24.271 49.2978C24.222 56.7908 24.271 64.2358 24.271 71.7288C24.271 72.0288 24.32 72.3208 24.32 72.6658H0.0490036C3.60236e-06 64.5318 0 56.4468 0 48.3618ZM20.72 51.9118C20.52 51.9118 20.42 51.8628 20.276 51.8628H4.04601C3.45401 51.8628 3.405 52.1628 3.405 52.6018V68.4268C3.405 69.0678 3.605 69.2648 4.244 69.2648C9.47334 69.2155 14.7027 69.2155 19.932 69.2648C20.623 69.2648 20.82 69.1168 20.82 68.4268C20.771 63.2008 20.82 57.9758 20.82 52.7498C20.769 52.4538 20.769 52.2068 20.72 51.9118Z" fill="white"/>
<path d="M0 27.6572H3.355V44.9572H0V27.6572Z" fill="white"/>
<path d="M72.6671 31.0572H65.8101V27.6572H72.6671V31.0572Z" fill="white"/>
<path d="M48.3912 65.6662V72.6172H44.9912C44.9912 70.3002 45.0402 67.9832 45.0402 65.6172H44.9912C46.1262 65.6662 47.2602 65.6662 48.3912 65.6662Z" fill="white"/>
<path d="M27.6763 72.6158V69.2158H34.6323V72.6158H27.6763Z" fill="white"/>
<path d="M72.6632 69.215H69.2632V65.666H72.6632V69.215Z" fill="white"/>
<path d="M72.667 38.0079H69.312V34.6079H72.667V38.0079Z" fill="white"/>
<path d="M72.6632 58.713H69.2632V55.313H72.6632V58.713Z" fill="white"/>
<path d="M55.3511 72.6158V69.2158H58.7511V72.6158H55.3511Z" fill="white"/>
<path d="M55.3509 69.2148H51.9509V65.6618H48.3509C48.3999 64.1338 48.3999 62.6048 48.4509 61.0768V58.7618H41.5869V55.3618H51.8969V48.3618H55.2519V51.8618H58.7049C58.7049 52.2068 58.7539 52.5028 58.7539 52.7488V58.1228C58.7539 58.6648 58.9019 58.8128 59.4449 58.8128H69.1139V62.2128H55.3019C55.3509 64.6308 55.3509 66.9478 55.3509 69.2148Z" fill="white"/>
<path d="M62.3071 44.9599V41.5089H55.4001V44.9599H51.9471V41.4599H48.4941C48.4941 40.3749 48.4942 39.3399 48.5432 38.3539C48.5432 38.2539 48.9381 38.0539 49.1841 38.0539H58.9021V27.7549H62.3021V34.6079H65.7021V45.0079C64.5761 44.9599 63.4421 44.9599 62.3071 44.9599Z" fill="white"/>
<path d="M34.6309 69.2162V65.6642H27.7739V58.8112H34.6309V55.2642H38.0309V58.7642C38.9679 58.7642 39.8559 58.8132 40.7439 58.7642C41.3359 58.7152 41.5329 58.9122 41.5329 59.5042C41.4839 60.3912 41.5329 61.2292 41.5329 62.1662H38.0799V69.1662C36.8509 69.2162 35.7659 69.2162 34.6309 69.2162Z" fill="white"/>
<path d="M37.9859 45.0088H41.4859V48.4088H44.9389V51.8088H38.0319C38.0319 49.4918 38.0319 47.2238 37.9829 45.0088H37.9859Z" fill="white"/>
<path d="M62.3028 51.9119H58.9028V44.9609H62.3028V51.9119Z" fill="white"/>
<path d="M69.312 55.3121H62.356V51.9121H69.312V55.3121Z" fill="white"/>
<path d="M51.9471 44.9609V48.3609H48.4941V44.9609H51.9471Z" fill="white"/>
<path d="M44.9419 44.9079H41.5869V41.6079H44.9419V44.9079Z" fill="white"/>
<path d="M45.0372 65.6628H41.6372V62.3628H45.0372C44.9882 63.4622 44.9882 64.5634 45.0372 65.6628Z" fill="white"/>
<path d="M20.6701 37.9591C20.6701 38.9451 20.7191 39.9311 20.7191 40.9171C20.7191 41.3611 20.8671 41.5581 21.3111 41.5091C22.2481 41.4601 23.1361 41.5091 24.1231 41.5091V44.8591H6.95605V41.5071H10.3111V34.5591H17.2671V37.9111C18.3982 38.0005 19.5338 38.0168 20.6671 37.9601L20.6701 37.9591Z" fill="white"/>
<path d="M10.3599 34.606H7.00488V27.7061H13.7639V31.006H10.3639C10.3148 32.2055 10.3148 33.4065 10.3639 34.606H10.3599Z" fill="white"/>
<path d="M27.6762 27.6069V31.0069H17.3652V27.6069C20.8182 27.6559 24.2222 27.6559 27.6762 27.6069Z" fill="white"/>
<path d="M34.6321 10.3032V13.7032H27.7251V10.3032C30.0441 10.3522 32.3621 10.3522 34.6321 10.3032Z" fill="white"/>
<path d="M34.6309 24.2561V20.7061H37.9859V24.2561H34.6309Z" fill="white"/>
<path d="M20.6699 38.0092V34.6572H24.1229V37.9572C22.9879 37.9572 21.8039 37.9572 20.6699 38.0062V38.0092Z" fill="white"/>
<path d="M65.6609 69.1172H62.356V65.7651H65.6609V69.1172Z" fill="white"/>
<path d="M17.2659 7V17.2H7.00488V7H17.2659Z" fill="white"/>
<path d="M55.4502 6.95117H65.7112V17.2052H55.4502V6.95117Z" fill="white"/>
<path d="M17.2169 65.6661H7.00488V55.4121H17.2169V65.6661Z" fill="white"/>
</g>
</g>
<defs>
<clipPath id="clip0_24_2004">
<rect width="72.667" height="72.667" fill="white"/>
</clipPath>
</defs>
</svg>
