<svg width="100" height="100" viewBox="0 0 100 100" fill="none" xmlns="http://www.w3.org/2000/svg">
<g clip-path="url(#clip0_24_1956)">
<path d="M80 60C86.6274 60 92 58.2091 92 56C92 53.7909 86.6274 52 80 52C73.3726 52 68 53.7909 68 56C68 58.2091 73.3726 60 80 60Z" fill="#D6D6D6"/>
<path d="M64 72C70.6274 72 76 70.2091 76 68C76 65.7909 70.6274 64 64 64C57.3726 64 52 65.7909 52 68C52 70.2091 57.3726 72 64 72Z" fill="#D6D6D6"/>
<path d="M32 24H46V38H32V24Z" fill="#D6D6D6"/>
<path d="M12 60H14V64H12V60Z" fill="#666666"/>
<path fill-rule="evenodd" clip-rule="evenodd" d="M38.5 43L45.7429 52.3367C45.719 52.5408 45.6355 52.7551 45.4923 52.949C45.3133 53.2041 45.0747 53.398 44.7883 53.5204C44.5019 53.6429 44.1798 53.6939 43.8337 53.6735L39.3114 53.3163C36.03 53.051 33.035 53.7245 30.3741 55.0102C29.6343 55.3673 28.9184 55.7857 28.2383 56.2347L38.5 43ZM38.5 43.4796L38.3568 43.6633H38.6313L38.5 43.4796ZM38.1659 43.898L37.9869 44.1327H39.0012L38.8222 43.898H38.1659ZM37.796 44.3776L37.617 44.6122H39.3711L39.1921 44.3776H37.796ZM37.4261 44.8571L37.2471 45.0918H39.741L39.562 44.8571H37.4261ZM37.0562 45.3367L36.8772 45.5714H40.1109L39.9319 45.3367H37.0562ZM36.6863 45.8061L36.5073 46.0408H40.4808L40.3018 45.8061H36.6863ZM36.3164 46.2857L36.1374 46.5204H40.8507L40.6717 46.2857H36.3164ZM35.9465 46.7653L35.7675 47H41.2206L41.0416 46.7653H35.9465ZM35.5766 47.2449L35.3976 47.4694H41.6024L41.4234 47.2347H35.5766V47.2449ZM35.2067 47.7143L35.0277 47.949H41.9604L41.7814 47.7143H35.2067ZM34.8368 48.1939L34.6578 48.4286H42.3303L42.1513 48.1939H34.8368ZM34.4788 48.6735L34.2998 48.9082H42.7121L42.5331 48.6735H34.4788ZM34.1089 49.1429L33.9299 49.3776H43.082L42.903 49.1429H34.1089ZM33.739 49.6224L33.56 49.8571H43.4519L43.2729 49.6224H33.739ZM33.3691 50.102L33.1901 50.3367H43.8218L43.6428 50.102H33.3691ZM32.9992 50.5816L32.8202 50.8163H44.1917L44.0127 50.5816H32.9992ZM32.6293 51.051L32.4503 51.2857H44.5616L44.3826 51.051H32.6293ZM32.2594 51.5306L32.0804 51.7653H44.9315L44.7525 51.5306H32.2594ZM31.8895 52.0102L31.7105 52.2449H45.3014L45.1224 52.0102H31.8895ZM31.5196 52.4898L31.3406 52.7245H45.4088C45.4446 52.6531 45.4804 52.5816 45.5042 52.5L45.4923 52.4898H31.5196ZM31.1497 52.9592L30.9707 53.1939H35.9107C37.0323 53.0612 38.1898 53.0408 39.3472 53.1327L40.1586 53.1939H45.0031C45.0985 53.1225 45.1821 53.051 45.2537 52.9592H31.1497ZM30.7798 53.4388L30.6008 53.6735H33.4288C33.751 53.5918 34.0731 53.5102 34.3953 53.4388H30.7798ZM44.4661 53.4388H43.2371L43.8576 53.4898C44.0604 53.5102 44.2633 53.4898 44.4661 53.4388ZM30.4099 53.9184L30.2309 54.1531H31.9373C32.164 54.0714 32.3788 53.9898 32.6055 53.9184H30.4099ZM46.1247 54.1429H46.781L46.602 53.9082H46.3753C46.2918 54 46.2082 54.0714 46.1247 54.1429ZM30.04 54.398L29.861 54.6327H30.7679C30.9469 54.551 31.1259 54.4796 31.3049 54.398H30.04ZM35.505 54.6225H41.0058L39.1921 54.4796C37.9392 54.3776 36.6982 54.4286 35.505 54.6225ZM45.2775 54.6225H47.139L46.96 54.3878H45.7548C45.6474 54.449 45.5281 54.5102 45.4088 54.5612C45.373 54.5918 45.3253 54.6122 45.2775 54.6225ZM29.6701 54.8673L29.4911 55.102H29.7895C29.9446 55.0204 30.0878 54.949 30.2429 54.8673H29.6701ZM33.4288 55.102H47.5089L47.3299 54.8673H34.276C33.9896 54.9388 33.7152 55.0204 33.4288 55.102ZM29.3002 55.3469L29.2764 55.3878L29.348 55.3469H29.3002ZM32.0804 55.5816H47.8788L47.6998 55.3469H32.689C32.4861 55.4184 32.2833 55.5 32.0804 55.5816ZM31.0185 56.051H48.2487L48.0697 55.8163H31.5077C31.3645 55.8878 31.2094 55.949 31.0662 56.0204L31.0185 56.051ZM30.1116 56.5306H48.4038C48.4276 56.4592 48.4396 56.3776 48.4396 56.2959H30.5412C30.398 56.3776 30.2548 56.449 30.1116 56.5306ZM29.3241 57.0102H48.1055C48.1651 56.949 48.2248 56.8776 48.2725 56.8061L48.2964 56.7755H29.694C29.5747 56.8571 29.4434 56.9286 29.3241 57.0102ZM28.6082 57.4898H37.1636C37.4738 57.398 37.796 57.3163 38.1182 57.2551H28.9542C28.8349 57.3265 28.7275 57.4082 28.6082 57.4898ZM47.7117 57.2551H45.0627L47.1628 57.3367C47.3418 57.3469 47.5327 57.3163 47.7117 57.2551ZM27.9638 57.9592H35.8988C36.0778 57.8776 36.2567 57.7959 36.4477 57.7245H28.2741C28.1667 57.8061 28.0712 57.8878 27.9638 57.9592ZM49.239 57.9592H49.7283L49.5493 57.7245H49.4657C49.3941 57.8163 49.3226 57.8878 49.239 57.9592ZM27.3672 58.4388H35.0038C35.1351 58.3571 35.2664 58.2857 35.4095 58.2041H27.6536C27.5581 58.2857 27.4627 58.3571 27.3672 58.4388ZM39.6455 58.4388H40.6478H40.5285C40.2302 58.4184 39.9319 58.4286 39.6455 58.4388ZM48.4992 58.4388H50.1101L49.9311 58.2041H48.9288C48.8214 58.2755 48.7021 58.3469 48.5828 58.398C48.547 58.4184 48.5231 58.4286 48.4992 58.4388ZM26.8183 58.9184H34.2998C34.4072 58.8367 34.5146 58.7653 34.622 58.6837H27.0808C26.9973 58.7653 26.9018 58.8367 26.8183 58.9184ZM37.2471 58.9184H50.4681L50.2891 58.6837H47.5089C47.3657 58.6939 47.2225 58.6939 47.0793 58.6939L46.8406 58.6837H37.9988C37.7483 58.7449 37.4977 58.8265 37.2471 58.9184ZM26.3052 59.398H33.7152C33.7987 59.3163 33.8941 59.2449 33.9896 59.1633H26.5439C26.4723 59.2347 26.3888 59.3163 26.3052 59.398ZM36.1971 59.398H50.838L50.659 59.1633H36.6505C36.4954 59.2347 36.3403 59.3163 36.1971 59.398ZM25.816 59.8673H33.214L33.2498 59.8265C33.3095 59.7653 33.3811 59.6939 33.4407 59.6327H26.0427C25.9711 59.7143 25.8995 59.7959 25.816 59.8673ZM35.4453 59.8673H51.2079L51.0289 59.6327H35.7794C35.6721 59.7143 35.5527 59.7857 35.4453 59.8673ZM25.6012 60.1122L25.4222 60.3469H32.7487L32.9754 60.1122H25.6012ZM34.8487 60.3469H51.5778L51.3988 60.1122H35.1232C35.0277 60.1939 34.9442 60.2653 34.8487 60.3469ZM25.2313 60.5918L25.0523 60.8265H32.2833L32.51 60.5918H25.2313ZM34.3595 60.8265H51.9477L51.7687 60.5918H34.5862C34.5504 60.6327 34.5146 60.6633 34.4788 60.7041L34.3595 60.8265ZM24.8614 61.0714L24.6824 61.3061H31.8179L32.0447 61.0714H24.8614ZM33.8941 61.3061H52.3295L52.1505 61.0714H34.1328L33.8941 61.3061ZM24.4915 61.551L24.3125 61.7857H31.3526L31.5793 61.551H24.4915ZM33.4169 61.7755H52.6875L52.5085 61.5408H33.6436L33.4169 61.7755ZM24.1216 62.0204L23.9426 62.2551H30.8753L31.102 62.0204H24.1216ZM32.9515 62.2551H53.0574L52.8784 62.0204H33.1782L32.9515 62.2551ZM23.7517 62.5L23.5727 62.7347H30.4099L30.6366 62.5H23.7517ZM32.4861 62.7347H53.4273L53.2483 62.5H32.7129L32.4861 62.7347ZM46.5543 53.3878C46.5423 53.4082 46.5185 53.4388 46.5065 53.4592C46.2082 53.8776 45.8025 54.2041 45.3253 54.4082C44.848 54.6122 44.2991 54.7041 43.7383 54.6633L39.2159 54.3061C36.1971 54.0612 33.4288 54.6837 30.9707 55.8776C28.5843 57.0408 26.4842 58.7551 24.7182 60.7755L23 62.9898H30.4219L33.4169 59.9388C34.3237 59.0102 35.4095 58.3061 36.6266 57.8571C37.8318 57.4082 39.1682 57.1939 40.5881 57.2551L47.1509 57.5102C47.4253 57.5204 47.6878 57.4694 47.9145 57.3673C48.1413 57.2653 48.3202 57.102 48.4634 56.898C48.5947 56.6939 48.6663 56.4694 48.6544 56.2551C48.6544 56.1837 48.6424 56.1122 48.6186 56.0408L46.5543 53.3878ZM49.5612 57.2653L54 63H31.9611L34.3237 60.5918C35.1232 59.7857 36.0539 59.1735 37.1039 58.7857C38.154 58.398 39.3114 58.2143 40.5404 58.2653L47.1032 58.5204C47.6043 58.5408 48.0697 58.449 48.4873 58.2551C48.893 58.0612 49.251 57.7653 49.4896 57.398C49.5015 57.3469 49.5373 57.3061 49.5612 57.2653Z" fill="#666666"/>
<path d="M92.046 57.9942C92.3335 57.7452 92.5666 57.4396 92.7308 57.0966C92.8949 56.7535 92.9866 56.3802 93 56.0002C93 52.7172 86.46 51.0002 80 51.0002C73.54 51.0002 67 52.7172 67 56.0002C67.0134 56.3802 67.1051 56.7535 67.2692 57.0966C67.4334 57.4396 67.6665 57.7452 67.954 57.9942C67.656 58.2354 67.4156 58.5401 67.2505 58.8862C67.0854 59.2322 66.9997 59.6108 66.9997 59.9942C66.9997 60.3776 67.0854 60.7561 67.2505 61.1022C67.4156 61.4482 67.656 61.753 67.954 61.9942C67.6142 62.316 67.3499 62.7091 67.18 63.1452C66.7933 63.1105 66.4 63.0822 66 63.0602V39.0002H71V23.0002H52.644C53.6886 22.1601 54.5322 21.0971 55.113 19.8889C55.6938 18.6808 55.9972 17.3581 56.001 16.0176C56.0047 14.6771 55.7088 13.3527 55.1348 12.1414C54.5607 10.93 53.7232 9.86227 52.6833 9.01631C51.6435 8.17035 50.4277 7.56755 49.1248 7.25202C47.822 6.93649 46.4651 6.9162 45.1534 7.19265C43.8417 7.46909 42.6084 8.03528 41.5438 8.84978C40.4791 9.66428 39.61 10.7065 39 11.9002C38.3904 10.7057 37.5214 9.66265 36.4566 8.84741C35.3918 8.03216 34.1582 7.46534 32.8461 7.18844C31.5339 6.91154 30.1765 6.93157 28.8731 7.24706C27.5697 7.56256 26.3533 8.16552 25.313 9.01183C24.2728 9.85813 23.4349 10.9264 22.8608 12.1383C22.2867 13.3502 21.9909 14.6752 21.995 16.0163C21.9991 17.3573 22.3031 18.6804 22.8846 19.8888C23.4662 21.0972 24.3106 22.1603 25.356 23.0002H7V39.0002H12V56.0002H14V39.0002H64V63.0002C57.54 63.0002 51 64.7172 51 68.0002C51.0134 68.3802 51.1051 68.7535 51.2692 69.0966C51.4334 69.4396 51.6665 69.7452 51.954 69.9942C51.656 70.2354 51.4156 70.5401 51.2505 70.8862C51.0854 71.2322 50.9997 71.6108 50.9997 71.9942C50.9997 72.3776 51.0854 72.7561 51.2505 73.1022C51.4156 73.4482 51.656 73.753 51.954 73.9942C51.6503 74.2808 51.4033 74.6221 51.226 75.0002H14V68.0002H12V77.0002H51.23C51.4083 77.3731 51.6537 77.7101 51.954 77.9942C51.656 78.2354 51.4156 78.5401 51.2505 78.8862C51.0854 79.2322 50.9997 79.6108 50.9997 79.9942C50.9997 80.3776 51.0854 80.7561 51.2505 81.1022C51.4156 81.4482 51.656 81.753 51.954 81.9942C51.656 82.2354 51.4156 82.5401 51.2505 82.8862C51.0854 83.2322 50.9997 83.6108 50.9997 83.9942C50.9997 84.3776 51.0854 84.7561 51.2505 85.1022C51.4156 85.4482 51.656 85.753 51.954 85.9942C51.6651 86.2445 51.4311 86.552 51.2669 86.8973C51.1028 87.2425 51.0119 87.618 51 88.0002C51 91.2832 57.54 93.0002 64 93.0002C69.874 93.0002 75.8 91.5762 76.826 88.8502C77.868 88.9432 78.932 89.0002 80 89.0002C86.46 89.0002 93 87.2832 93 84.0002C92.9881 83.618 92.8972 83.2425 92.733 82.8973C92.5689 82.552 92.3349 82.2445 92.046 81.9942C92.344 81.753 92.5844 81.4482 92.7495 81.1022C92.9146 80.7561 93.0003 80.3776 93.0003 79.9942C93.0003 79.6108 92.9146 79.2322 92.7495 78.8862C92.5844 78.5401 92.344 78.2354 92.046 77.9942C92.344 77.753 92.5844 77.4482 92.7495 77.1022C92.9146 76.7561 93.0003 76.3776 93.0003 75.9942C93.0003 75.6108 92.9146 75.2322 92.7495 74.8862C92.5844 74.5401 92.344 74.2354 92.046 73.9942C92.344 73.753 92.5844 73.4482 92.7495 73.1022C92.9146 72.7561 93.0003 72.3776 93.0003 71.9942C93.0003 71.6108 92.9146 71.2322 92.7495 70.8862C92.5844 70.5401 92.344 70.2354 92.046 69.9942C92.344 69.753 92.5844 69.4482 92.7495 69.1022C92.9146 68.7561 93.0003 68.3776 93.0003 67.9942C93.0003 67.6108 92.9146 67.2322 92.7495 66.8862C92.5844 66.5401 92.344 66.2354 92.046 65.9942C92.344 65.753 92.5844 65.4482 92.7495 65.1022C92.9146 64.7561 93.0003 64.3776 93.0003 63.9942C93.0003 63.6108 92.9146 63.2322 92.7495 62.8862C92.5844 62.5401 92.344 62.2354 92.046 61.9942C92.344 61.753 92.5844 61.4482 92.7495 61.1022C92.9146 60.7561 93.0003 60.3776 93.0003 59.9942C93.0003 59.6108 92.9146 59.2322 92.7495 58.8862C92.5844 58.5401 92.344 58.2354 92.046 57.9942ZM31 37.0002H9V25.0002H31V37.0002ZM24 16.0002C24 14.1436 24.7375 12.3632 26.0503 11.0504C27.363 9.73766 29.1435 9.00016 31 9.00016C32.8565 9.00016 34.637 9.73766 35.9497 11.0504C37.2625 12.3632 38 14.1436 38 16.0002V23.0002H31C29.1441 22.998 27.3649 22.2599 26.0526 20.9476C24.7403 19.6353 24.0021 17.856 24 16.0002ZM45 37.0002H33V25.0002H45V37.0002ZM40 23.0002V16.0002C40 14.6157 40.4105 13.2623 41.1797 12.1112C41.9489 10.96 43.0421 10.0628 44.3212 9.53301C45.6003 9.00319 47.0078 8.86457 48.3656 9.13467C49.7235 9.40476 50.9708 10.0714 51.9497 11.0504C52.9287 12.0294 53.5954 13.2767 53.8655 14.6345C54.1356 15.9924 53.997 17.3999 53.4672 18.6789C52.9373 19.958 52.0401 21.0513 50.889 21.8204C49.7378 22.5896 48.3845 23.0002 47 23.0002H40ZM47 37.0002V25.0002H69V37.0002H47ZM64 91.0002C56.883 91.0002 53 89.0182 53 88.0002C53 87.7592 53.247 87.4612 53.678 87.1512C56.179 88.3702 60.1 89.0002 64 89.0002C67.9 89.0002 71.821 88.3702 74.322 87.1512C74.753 87.4612 75 87.7592 75 88.0002C75 89.0182 71.117 91.0002 64 91.0002ZM64 87.0002C56.883 87.0002 53 85.0182 53 84.0002C53 83.7592 53.247 83.4612 53.678 83.1512C56.179 84.3702 60.1 85.0002 64 85.0002C67.9 85.0002 71.821 84.3702 74.322 83.1512C74.753 83.4612 75 83.7592 75 84.0002C75 85.0182 71.117 87.0002 64 87.0002ZM64 83.0002C56.883 83.0002 53 81.0182 53 80.0002C53 79.7592 53.247 79.4612 53.678 79.1512C56.179 80.3702 60.1 81.0002 64 81.0002C67.9 81.0002 71.821 80.3702 74.322 79.1512C74.753 79.4612 75 79.7592 75 80.0002C75 81.0182 71.117 83.0002 64 83.0002ZM64 79.0002C56.883 79.0002 53 77.0182 53 76.0002C53 75.7592 53.247 75.4612 53.678 75.1512C56.179 76.3702 60.1 77.0002 64 77.0002C67.9 77.0002 71.821 76.3702 74.322 75.1512C74.753 75.4612 75 75.7592 75 76.0002C75 77.0182 71.117 79.0002 64 79.0002ZM64 75.0002C56.883 75.0002 53 73.0182 53 72.0002C53 71.7592 53.247 71.4612 53.678 71.1512C56.179 72.3702 60.1 73.0002 64 73.0002C67.9 73.0002 71.821 72.3702 74.322 71.1512C74.753 71.4612 75 71.7592 75 72.0002C75 73.0182 71.117 75.0002 64 75.0002ZM64 71.0002C56.883 71.0002 53 69.0182 53 68.0002C53 66.9822 56.883 65.0002 64 65.0002C71.117 65.0002 75 66.9822 75 68.0002C75 69.0182 71.117 71.0002 64 71.0002ZM80 87.0002C78.793 87.0002 77.7 86.9322 76.687 86.8322C76.5176 86.5216 76.3014 86.2389 76.046 85.9942C76.3871 85.672 76.6537 85.2792 76.827 84.8432C77.868 84.9432 78.927 85.0002 80 85.0002C83.9 85.0002 87.821 84.3702 90.322 83.1512C90.753 83.4612 91 83.7592 91 84.0002C91 85.0182 87.117 87.0002 80 87.0002ZM80 83.0002C78.793 83.0002 77.7 82.9322 76.687 82.8322C76.5176 82.5216 76.3014 82.2389 76.046 81.9942C76.3871 81.672 76.6537 81.2792 76.827 80.8432C77.868 80.9432 78.927 81.0002 80 81.0002C83.9 81.0002 87.821 80.3702 90.322 79.1512C90.753 79.4612 91 79.7592 91 80.0002C91 81.0182 87.117 83.0002 80 83.0002ZM80 79.0002C78.793 79.0002 77.7 78.9322 76.687 78.8322C76.5176 78.5216 76.3014 78.2389 76.046 77.9942C76.3871 77.672 76.6537 77.2792 76.827 76.8432C77.868 76.9432 78.927 77.0002 80 77.0002C83.9 77.0002 87.821 76.3702 90.322 75.1512C90.753 75.4612 91 75.7592 91 76.0002C91 77.0182 87.117 79.0002 80 79.0002ZM80 75.0002C78.793 75.0002 77.7 74.9322 76.687 74.8322C76.5176 74.5216 76.3014 74.2389 76.046 73.9942C76.3871 73.672 76.6537 73.2792 76.827 72.8432C77.868 72.9432 78.927 73.0002 80 73.0002C83.9 73.0002 87.821 72.3702 90.322 71.1512C90.753 71.4612 91 71.7592 91 72.0002C91 73.0182 87.117 75.0002 80 75.0002ZM80 71.0002C78.793 71.0002 77.7 70.9322 76.687 70.8322C76.5176 70.5216 76.3014 70.2389 76.046 69.9942C76.3871 69.672 76.6537 69.2792 76.827 68.8432C77.868 68.9432 78.927 69.0002 80 69.0002C83.9 69.0002 87.821 68.3702 90.322 67.1512C90.753 67.4612 91 67.7592 91 68.0002C91 69.0182 87.117 71.0002 80 71.0002ZM80 67.0002C78.8 67.0002 77.713 66.9332 76.7 66.8342C76.079 65.6722 74.525 64.7722 72.487 64.1342C74.9468 64.727 77.4698 65.0178 80 65.0002C83.9 65.0002 87.821 64.3702 90.322 63.1512C90.753 63.4612 91 63.7592 91 64.0002C91 65.0182 87.117 67.0002 80 67.0002ZM69.368 63.4172C69.4645 63.3209 69.5682 63.2319 69.678 63.1512C70.269 63.4281 70.8793 63.6621 71.504 63.8512C70.7983 63.6772 70.0857 63.5325 69.368 63.4172ZM80 63.0002C72.883 63.0002 69 61.0182 69 60.0002C69 59.7592 69.247 59.4612 69.678 59.1512C72.179 60.3702 76.1 61.0002 80 61.0002C83.9 61.0002 87.821 60.3702 90.322 59.1512C90.753 59.4612 91 59.7592 91 60.0002C91 61.0182 87.117 63.0002 80 63.0002ZM80 59.0002C72.883 59.0002 69 57.0182 69 56.0002C69 54.9822 72.883 53.0002 80 53.0002C87.117 53.0002 91 54.9822 91 56.0002C91 57.0182 87.117 59.0002 80 59.0002Z" fill="#666666"/>
</g>
<defs>
<clipPath id="clip0_24_1956">
<rect width="100" height="100" fill="white"/>
</clipPath>
</defs>
</svg>
