/* XPM */
static char *_447223dea2e4a30bbc652204037526063IUUyCfUVDw02lV[] = {
/* columns rows colors chars-per-pixel */
"16 16 21 1 ",
"  c None",
". c black",
"X c #CD0000",
"o c #CF0000",
"O c #D00000",
"+ c #D10000",
"@ c #D20000",
"# c #D30000",
"$ c #D40000",
"% c #D50000",
"& c #D60000",
"* c #D70000",
"= c #D80000",
"- c #D90000",
"; c #DA0000",
": c #DB0000",
"> c #DD0000",
", c #DE0000",
"< c #DF0000",
"1 c #E50000",
"2 c #E70000",
/* pixels */
"                ",
"                ",
"                ",
"       22       ",
"       --       ",
"      -&&-      ",
"     -&-&-,     ",
"     ,-#&&&     ",
"    -##---,     ",
"   &oo-####o-   ",
"   &&,-&&&&&&   ",
"                ",
"  ....   .. .   ",
"                ",
"                ",
"                "
};
