/* XPM */
static char *_09e2f10e6294e3387719d05d0d5da6aHS102ERlIWDtr1IS[] = {
/* columns rows colors chars-per-pixel */
"32 32 30 1 ",
"  c None",
". c black",
"X c #CC0000",
"o c #CE0000",
"O c #CF0000",
"+ c #D00000",
"@ c #D10000",
"# c #D20000",
"$ c #D30000",
"% c #D40000",
"& c #D50000",
"* c #D60000",
"= c #D70000",
"- c #D80000",
"; c #D90000",
": c #DA0000",
"> c #DB0000",
", c #DC0000",
"< c #DD0000",
"1 c #DE0000",
"2 c #DF0000",
"3 c #E10000",
"4 c #E20000",
"5 c #E30000",
"6 c #E40000",
"7 c #E50000",
"8 c #E90000",
"9 c #EB0000",
"0 c #EC0000",
"q c #F00000",
/* pixels */
"                                ",
"                                ",
"                                ",
"                                ",
"                                ",
"                q               ",
"               63               ",
"              0339              ",
"              1:::0             ",
"             1::::1             ",
"            6======3            ",
"            :=======0           ",
"           1========1           ",
"          1X@::::=:::           ",
"          :    13    19         ",
"           :=XXXXXXXXX@         ",
"          :============         ",
"        1XXXX@:                 ",
"       :XXXX@  =@@==@@@@@       ",
"      3XXXX@ 1@XXXXXXXXXX1      ",
"      @@@@@ 3@@@@@@@@@@@@@      ",
"     3::::3 ::::::::::::::1     ",
"                                ",
"                                ",
"    ...  . .  . .  .  .  ..     ",
"    .... ..    .   .... . .     ",
"    .... . .       . .  .  .    ",
"                                ",
"                                ",
"                                ",
"                                ",
"                                "
};
