/* XPM */
static char *_763859b519a439ab01554866c9f5473Gd1K0NS1jo9lCnMk[] = {
/* columns rows colors chars-per-pixel */
"48 48 57 1 ",
"  c None",
". c black",
"X c #CD0001",
"o c #CF0000",
"O c #CE0001",
"+ c #CF0001",
"@ c #D00000",
"# c #D10000",
"$ c #D00001",
"% c #D10001",
"& c #D20000",
"* c #D20001",
"= c #D30001",
"- c #D40001",
"; c #D50001",
": c #D60000",
"> c #D60001",
", c #D70001",
"< c #D80000",
"1 c #D90000",
"2 c #D80001",
"3 c #D90001",
"4 c #DA0000",
"5 c #DB0000",
"6 c #DA0001",
"7 c #DB0001",
"8 c #DC0000",
"9 c #DD0000",
"0 c #DC0001",
"q c #DD0001",
"w c #DE0000",
"e c #DF0000",
"r c #DE0001",
"t c #DF0001",
"y c #E00000",
"u c #E10000",
"i c #E00001",
"p c #E10001",
"a c #E20000",
"s c #E30000",
"d c #E20001",
"f c #E30001",
"g c #E40000",
"h c #E50000",
"j c #E40001",
"k c #E60000",
"l c #E70000",
"z c #E60001",
"x c #E80000",
"c c #E90000",
"v c #EA0000",
"b c #EB0000",
"n c #EC0000",
"m c #ED0000",
"M c #EE0000",
"N c #EF0000",
"B c #F10000",
/* pixels */
"                                                ",
"                                                ",
"                                                ",
"                                                ",
"                                                ",
"                                                ",
"                                                ",
"                                                ",
"                       mv                       ",
"                       jjB                      ",
"                      vrrj                      ",
"                     muuuuv                     ",
"                     urrrrum                    ",
"                    j333333u                    ",
"                   vr3333333j                   ",
"                   r>>>>>>>>3m                  ",
"                  j3333333333r                  ",
"                 mr33333333333j                 ",
"                 3%%%%%%%%%%%%>v                ",
"                u>>>>>333>>>>>>u                ",
"               j%%%333j j3>3r33                 ",
"               %+r              uv              ",
"              vj   uur3333ruurrr>r              ",
"                u>%%++%%%+++++++%%u             ",
"               3%%%%%%%%%%%%%%%%%%>             ",
"             u3>>>>>>>3ujuuujjjjurj             ",
"            r%++++++%r              u           ",
"           3+++++++>   >>>>>>>>%%%%%%v          ",
"          r%+++++%3  r%%+++++++++++++3          ",
"         j%++++++>  >+++++++++++++++++u         ",
"         r>>>>>>r  r>>>>>>>>>>>>>>>>>>3m        ",
"        u%%%%%%>u r%%%%%%%%%%%%%%%%%%%%3        ",
"       m>>>>>>>r v>>>>>>>>>>>>>>>>>>>>>>j       ",
"                                                ",
"                                                ",
"       .....         .    .  ....     .         ",
"      ...... .   .   ..  .. .......  ...        ",
"      .....  ....     ....  ..   ..  . ..       ",
"       ..... ....      .    ......  ..  .       ",
"          .. .  ..          .  ..   .   ..      ",
"      ...... .   ..    .    .   .. ..    .      ",
"                                                ",
"                                                ",
"                                                ",
"                                                ",
"                                                ",
"                                                ",
"                                                "
};
