/* XPM */
static char *_280a5eb3991490391cdabd3b2c02dd7[] = {
/* columns rows colors chars-per-pixel */
"128 128 69 1 ",
"  c None",
". c black",
"X c #AC0001",
"o c #AD0001",
"O c #B10001",
"+ c #B20001",
"@ c #B60001",
"# c #B70001",
"$ c #BA0001",
"% c #BC0001",
"& c #C10001",
"* c #C40001",
"= c #C50001",
"- c #C60001",
"; c #C70001",
": c #C80001",
"> c #C90001",
", c #CA0001",
"< c #CB0001",
"1 c #CC0001",
"2 c #CD0001",
"3 c #CE0001",
"4 c #CF0001",
"5 c #D00001",
"6 c #D10001",
"7 c #D20001",
"8 c #D60001",
"9 c #D70001",
"0 c #D80001",
"q c #D90001",
"w c #DB0000",
"e c #DC0000",
"r c #DD0000",
"t c #DC0001",
"y c #DD0001",
"u c #DE0001",
"i c #DF0001",
"p c #E00000",
"a c #E10000",
"s c #E00001",
"d c #E10001",
"f c #E20000",
"g c #E30000",
"h c #E20001",
"j c #E30001",
"k c #E40000",
"l c #E50000",
"z c #E40001",
"x c #E50001",
"c c #E70000",
"v c #E80000",
"b c #E90000",
"n c #EA0000",
"m c #EB0000",
"M c #EC0000",
"N c #ED0000",
"B c #EE0000",
"V c #EF0000",
"C c #F00000",
"Z c #F10000",
"A c #F20000",
"S c #F40000",
"D c #F50000",
"F c #F70000",
"G c #F80000",
"H c #F90000",
"J c #FA0000",
"K c #FB0000",
"L c red",
/* pixels */
"                                                                                                                                ",
"                                                                                                                                ",
"                                                                                                                                ",
"                                                                                                                                ",
"                                                                                                                                ",
"                                                                                                                                ",
"                                                                                                                                ",
"                                                                                                                                ",
"                                                                                                                                ",
"                                                                                                                                ",
"                                                                                                                                ",
"                                                                                                                                ",
"                                                                                                                                ",
"                                                                                                                                ",
"                                                                                                                                ",
"                                                                                                                                ",
"                                                                                                                                ",
"                                                                                                                                ",
"                                                                                                                                ",
"                                                                                                                                ",
"                                                                                                                                ",
"                                                                                                                                ",
"                                                               LL                                                               ",
"                                                              LVVL                                                              ",
"                                                              D00D                                                              ",
"                                                             LmxxmL                                                             ",
"                                                            LV9999VL                                                            ",
"                                                            DxxxxxxD                                                            ",
"                                                           LZxxxxxxZL                                                           ",
"                                                          Lh;;;;;;;;hL                                                          ",
"                                                          DhhhhhhhhhhD                                                          ",
"                                                         LVhhhhhhhhhhVL                                                         ",
"                                                        Lh;;;;;;;;;;;;hL                                                        ",
"                                                        KZZZZZZZZZZZZZVD                                                        ",
"                                                       Lh66666666666666hL                                                       ",
"                                                      Lx6666666666666666xL                                                      ",
"                                                      KxhhhhuuuhhhhhhhhhxK                                                      ",
"                                                     Lu444444444444444444uL                                                     ",
"                                                    Lx44444444444444444444xL                                                    ",
"                                                    KhuuuuuuuuuuuuuuuuuuuuhK                                                    ",
"                                                   Lu4444444444444444444444uL                                                   ",
"                                                  LmuuuuuuuuuuuuuuuuuuuuuuuumL                                                  ",
"                                                  LhuuuuuuuuuuuuuuuuuuuuuuuuhL                                                  ",
"                                                 L<$$$$$$$$$$$$$$$$$$$$$$$$$$<L                                                 ",
"                                                 muu0uuuuuu000uuuuu000uuuuuu00m                                                 ",
"                                                Lhuu00uuuuu000uuuu000u0uuuu000hL                                                ",
"                                               L<##############################<L                                               ",
"                                               ZVVVVVVVVVVVVVVVVVVVVVVVVVVVVVVVVZ                                               ",
"                                              L4<;;;<<<<<<;;<<<<<<<<<<<;<<<<<<<<4L                                              ",
"                                             L6;;;;;;;;;;;;;;;;;;;;;;;;;;;;;;;;;;6L                                             ",
"                                             Z000000000000000000000000000000000000Z                                             ",
"                                            L<;;;;;;;;;;;;;;;;;;;;;;;;;;;;;;;;;;;;<L                                            ",
"                                           L4;;;;;;;;;;;;;;;;;;;;;;;;;;;;;;;;;;;;;;u                                            ",
"                                           Z000000009000000000009000000090000000000D                                            ",
"                                          K<;;;;;;;;****;;;0000000**;;;;;;;;****;;6                                             ",
"                                         Lu99999999uVLLLL           LLLLLLLLLmmmZL    L                                         ",
"                                         D99999999mL                           L     LL                                         ",
"                                        D+XXXX;mL                                   L<+D                                        ",
"                                       L0990LL          LLmhmmmmxhmLLL             Z9990L                                       ",
"                                       K990D        LLLDh999999999999hmLLLLLLLLLLLK99999K                                       ",
"                                      K+;L       D0*XXXXXXXXXXXXXXXXXXXXXXXXXXXXXXXXXXXX+K                                      ",
"                                     LKL      LxmmmmmmmmmmmmmmmmmmmmmmmmmmmmmmmmmmmmmmmmmmL                                     ",
"                                     LL     LL<*******************************************D                                     ",
"                                    L      h***********************************************K                                    ",
"                                         Zm999999999999999999999999999999999999999999999999m                                    ",
"                                       LV**************************************************4                                    ",
"                                      Z;***************************************************x                                    ",
"                                     V0999999999999999999999999mmmmmmmmmmmmmmmmmmm09999990mL                                    ",
"                                    x************************6xL            LLLLLLZhhhxmhV    L                                 ",
"                                  D99999999999999999999999DL                                  0K                                ",
"                                 Lm9999999999999999999999Z                                   D9mL                               ",
"                                D$XXXXXXXXXXXXXXXXXXXX#V        LLLxmxLLLLLLLLLL           K*XXXx                               ",
"                               K999999999999999999999DL      Z09999999999999999999999999999999999K                              ",
"                              Lx99999999999999999999h     LLV999999999999999999999999999999999999mL                             ",
"                             D%XXXXXXXXXXXXXXXXXXXXh     V*XXXXXXXXXXXXXXXXXXXXXXXXXXXXXXXXXXXXXXXx                             ",
"                            LmmmmmmmmmmmmmmmmmmmmmL     mmmmmmmmmmmmmmmmmmmmmmmmmmmmmmmmmmmmmmmmmmmK                            ",
"                            x********************0    L0*******************************************uL                           ",
"                           h********************h    D;*********************************************x                           ",
"                          Ku9999999999999999999hD   Dx9999999999999999999999999999999999999999999999hK                          ",
"                         L0********************K    h************************************************0L                         ",
"                         x*******************;L    9**************************************************x                         ",
"                        K09999999999999999990V    V9999999999999999999999999999999999999999999999999990K                        ",
"                       Lh*******************h    K*****************************************************uL                       ",
"                       V9999999999999999999V    Z9999999999999999999999999999999999999999999999999999999V                       ",
"                      Lh9999999999999999999L   Lm9999999999999999999999999999999999999999999999999999999hL                      ",
"                     L6XXXXXXXXXXXXXXXXXX#D    ;XXXXXXXXXXXXXXXXXXXXXXXXXXXXXXXXXXXXXXXXXXXXXXXXXXXXXXXXX6L                     ",
"                     LLLLLLLLLLLLLLLLLLLLL    LLLLLLLLLLLLLLLLLLLLLLLLLLLLLLLLLLLLLLLLLLLLLLLLLLLLLLLLLLLLL                     ",
"                                                                                                                                ",
"                                                                                                                                ",
"                                                                                                                                ",
"                                                                                                                                ",
"                                                                                                                                ",
"                                                                                                                                ",
"                   ...............  ....       ....   .....        .....  ................        ......                        ",
"                  ................  ....      .....    .....      .....   ................        ......                        ",
"                  ................  ....     .....      .....    .....    .................      ........                       ",
"                  ...               ....    .....        .....   ....     ....         ....      ........                       ",
"                  ...               ....   .....          ..... ....      ....          ...     ....  ....                      ",
"                  ..............    ...........            .........      ....         ....     ....  ....                      ",
"                  ...............   ..........              .......       .................    ....    ....                     ",
"                   ...............  ..........               .....        ................     ....    ....                     ",
"                     .............  ...........                           ................    ....      ....                    ",
"                               ...  ....    ....                          ....    .....       ....      ....                    ",
"                  ................  ....     ....             ...         ....     .....     ....        ....                   ",
"                  ................  ....      ....           ....         ....      ....     ....        ....                   ",
"                  ...............   ....       ....          ....         ....       ....   ....          ....                  ",
"                   ............     ...         ....          ...         ...         ....  ...            ...                  ",
"                                                                                                                                ",
"                                                                                                                                ",
"                                                                                                                                ",
"                                                                                                                                ",
"                                                                                                                                ",
"                                                                                                                                ",
"                                                                                                                                ",
"                                                                                                                                ",
"                                                                                                                                ",
"                                                                                                                                ",
"                                                                                                                                ",
"                                                                                                                                ",
"                                                                                                                                ",
"                                                                                                                                ",
"                                                                                                                                ",
"                                                                                                                                ",
"                                                                                                                                ",
"                                                                                                                                ",
"                                                                                                                                ",
"                                                                                                                                ",
"                                                                                                                                "
};
